<svg xmlns="http://www.w3.org/2000/svg" width="486.24" height="481.4" viewBox="0 0 486.24 481.4">
  <g id="Calque_2" data-name="Calque 2" transform="translate(0)">
    <g id="Floor">
      <ellipse id="Floor-2" data-name="Floor" cx="243.12" cy="144.62" rx="243.12" ry="144.62" transform="translate(0 192.16)" fill="#fafafa"/>
    </g>
    <g id="Shadows">
      <path id="Shadow" d="M465.2,321.45a8.071,8.071,0,0,1-1.29,3,14,14,0,0,1-4.84,4.3c-8.37,4.84-21.95,4.84-30.33,0a14.24,14.24,0,0,1-4.84-4.3,8.21,8.21,0,0,1-1.28-3h0c-.74-3.64,1.3-7.43,6.13-10.21,8.38-4.85,22-4.85,30.33,0C463.9,314,466,317.81,465.2,321.45Z" fill="#e0e0e0"/>
      <path id="Shadow-2" data-name="Shadow" d="M465.27,384.83a22.231,22.231,0,0,1-3.54,8.26c-2.86,4.32-7.32,8.36-13.33,11.84-23.06,13.31-60.46,13.31-83.52,0-6-3.48-10.46-7.52-13.32-11.84a22.54,22.54,0,0,1-3.53-8.26h0c-2.06-10,3.58-20.43,16.87-28.11,23.06-13.33,60.46-13.33,83.52,0C461.69,364.4,467.33,374.83,465.27,384.83Z" fill="#e0e0e0"/>
      <path id="Shadow-3" data-name="Shadow" d="M105.14,471.59,147,447.52a1.32,1.32,0,0,0,0-2.5L78.18,405.31a4.79,4.79,0,0,0-4.33,0L32,429.37a1.32,1.32,0,0,0,0,2.5l68.79,39.72a4.79,4.79,0,0,0,4.35,0Z" fill="#e0e0e0"/>
      <path id="Shadow-4" data-name="Shadow" d="M175.79,469.45,15.14,376.81c-4.74-2.74-4.74-7.18,0-9.92L249.47,231.58c4.74-2.74,12.43-2.74,17.18,0L427.3,324.22c4.74,2.74,4.74,7.18,0,9.92L193,469.45C188.22,472.19,180.53,472.19,175.79,469.45Z" fill="#e0e0e0"/>
    </g>
    <g id="Window">
      <g id="Window-2" data-name="Window">
        <path id="Tracé_7" data-name="Tracé 7" d="M476.31,78.86c0-24.86-16.37-54.45-36.56-66.11-10.69-6.17-20.3-6.08-27-.93-8.31,3.45-13.63,13-13.63,27.17V183.14l73.12,42.22,4.06-2.35Z" fill="#e6e6e6"/>
        <path id="Tracé_8" data-name="Tracé 8" d="M472.25,225.36V81.2c0-24.85-16.37-54.45-36.56-66.11s-36.56-1-36.56,23.9V183.14Z" fill="#f5f5f5"/>
        <path id="Tracé_9" data-name="Tracé 9" d="M468.25,81.2V218.43l-65.12-37.6V39c0-12.42,4.37-21,11.72-23.69a15.15,15.15,0,0,1,5.33-.92c4.16,0,8.7,1.4,13.51,4.18C452.75,29.56,468.25,57.66,468.25,81.2Z" fill="#e0e0e0"/>
        <path id="Tracé_10" data-name="Tracé 10" d="M403.13,180.83l4.13-2.38,60.99,35.22v4.76Z" fill="#ebebeb"/>
        <path id="Tracé_11" data-name="Tracé 11" d="M468.25,81.2V213.67l-61-35.22V36.6c0-9.87,2.77-17.31,7.6-21.3a15.15,15.15,0,0,1,5.33-.92c4.16,0,8.7,1.4,13.51,4.18C452.75,29.56,468.25,57.66,468.25,81.2Z" fill="#fff"/>
        <path id="Tracé_12" data-name="Tracé 12" d="M437.69,200.78l-4-2.31V17.12h4Z" fill="#f5f5f5"/>
        <path id="Tracé_13" data-name="Tracé 13" d="M441.69,24.34V198.48l-4,2.3V21.15Q439.73,22.62,441.69,24.34Z" fill="#e0e0e0"/>
        <path id="Tracé_14" data-name="Tracé 14" d="M403.13,152.62l30.56,17.64v4.69l-30.56-17.64Z" fill="#f5f5f5"/>
        <path id="Tracé_15" data-name="Tracé 15" d="M407.26,150.24l-4.13,2.38,30.56,17.64v-4.69Z" fill="#ebebeb"/>
        <path id="Tracé_16" data-name="Tracé 16" d="M437.69,172.57l30.56,17.64v4.69l-30.56-17.64Z" fill="#f5f5f5"/>
        <path id="Tracé_17" data-name="Tracé 17" d="M441.82,170.19l-4.13,2.38,30.56,17.64v-4.69Z" fill="#ebebeb"/>
        <path id="Tracé_18" data-name="Tracé 18" d="M403.13,47.9l30.56,17.64v4.69L403.13,52.59Z" fill="#f5f5f5"/>
        <path id="Tracé_19" data-name="Tracé 19" d="M407.26,45.52l-4.13,2.38,30.56,17.64V60.85Z" fill="#ebebeb"/>
        <path id="Tracé_20" data-name="Tracé 20" d="M437.69,67.85l30.56,17.64v4.69L437.69,72.54Z" fill="#f5f5f5"/>
        <path id="Tracé_21" data-name="Tracé 21" d="M441.82,65.47l-4.13,2.38,30.56,17.64V80.8Z" fill="#ebebeb"/>
      </g>
    </g>
    <g id="Pictures">
      <g id="Picture">
        <g id="Frame">
          <path id="Tracé_22" data-name="Tracé 22" d="M102.25,62.55l1.71,1.01,34.95-20.18-1.7-1.01Z" fill="#fafafa"/>
          <path id="Tracé_23" data-name="Tracé 23" d="M137.21,42.37,103.96,61.56V26.74L137.21,7.56Z" fill="#fff"/>
          <path id="Tracé_24" data-name="Tracé 24" d="M142.13,1,100.74,24.88V69.13l41.39-23.89Zm-3.22,42.39L104,63.57V26.74L139,6.56Z" fill="#f0f0f0"/>
          <path id="Tracé_25" data-name="Tracé 25" d="M138.91,43.38l-1.7-1.01V7.56l1.7-1Z" fill="#e0e0e0"/>
          <path id="Tracé_26" data-name="Tracé 26" d="M142.13.99,140.4,0,99.01,23.89l1.73.99Z" fill="#fafafa"/>
          <path id="Tracé_27" data-name="Tracé 27" d="M99.01,23.89l1.73.99V69.13l-1.73-.99Z" fill="#e0e0e0"/>
        </g>
        <g id="Land">
          <path id="Tracé_28" data-name="Tracé 28" d="M135.91,41.33l-30.65,17.7V50.18l7.66-17.7,4.77,4.42-1.71,7.42,10.58-22.64,9.35,10.8Z" fill="#f0f0f0"/>
          <path id="Tracé_29" data-name="Tracé 29" d="M117.41,23.93a5,5,0,0,0-2.27,3.93c0,1.44,1,2,2.27,1.31a5,5,0,0,0,2.26-3.93C119.67,23.79,118.66,23.21,117.41,23.93Z" fill="#f0f0f0"/>
        </g>
      </g>
      <g id="Picture-2" data-name="Picture">
        <g id="Frame-2" data-name="Frame">
          <path id="Tracé_30" data-name="Tracé 30" d="M43.37,96.53l1.7,1.02L80.03,77.36l-1.7-1.01Z" fill="#fafafa"/>
          <path id="Tracé_31" data-name="Tracé 31" d="M78.33,76.35,45.08,95.54V60.72L78.33,41.54Z" fill="#fff"/>
          <path id="Tracé_32" data-name="Tracé 32" d="M83.25,35,41.86,58.86v44.25L83.25,79.22ZM80,77.36,45,97.55V60.72L80,40.54Z" fill="#f0f0f0"/>
          <path id="Tracé_33" data-name="Tracé 33" d="M80.03,77.36l-1.7-1.01V41.54l1.7-1Z" fill="#e0e0e0"/>
          <path id="Tracé_34" data-name="Tracé 34" d="M83.25,34.97l-1.73-.99L40.13,57.87l1.73,1Z" fill="#fafafa"/>
          <path id="Tracé_35" data-name="Tracé 35" d="M40.13,57.87l1.73,1v44.24l-1.73-.99Z" fill="#e0e0e0"/>
        </g>
        <g id="Land-2" data-name="Land">
          <path id="Tracé_36" data-name="Tracé 36" d="M77.03,75.31,46.37,93.01V84.16l7.67-17.7,4.77,4.42L57.09,78.3,67.68,55.66l9.35,10.8Z" fill="#f0f0f0"/>
          <path id="Tracé_37" data-name="Tracé 37" d="M58.52,57.91a5,5,0,0,0-2.26,3.93c0,1.44,1,2,2.26,1.31a5,5,0,0,0,2.27-3.93C60.79,57.77,59.78,57.19,58.52,57.91Z" fill="#f0f0f0"/>
        </g>
      </g>
      <g id="Picture-3" data-name="Picture">
        <g id="Frame-3" data-name="Frame">
          <path id="Tracé_38" data-name="Tracé 38" d="M380.35,116.16l-1.56.93L346.71,98.56l1.56-.93Z" fill="#fafafa"/>
          <path id="Tracé_39" data-name="Tracé 39" d="M348.27,97.63l30.52,17.62V32.58L348.27,14.97Z" fill="#fff"/>
          <path id="Tracé_40" data-name="Tracé 40" d="M343.76,100.27l38,21.93V30.87l-38-21.93Zm2.95-86.22,32.08,18.53v84.51L346.71,98.56Z" fill="#f0f0f0"/>
          <path id="Tracé_41" data-name="Tracé 41" d="M346.71,98.56l1.56-.93V14.97l-1.56-.92Z" fill="#e0e0e0"/>
          <path id="Tracé_42" data-name="Tracé 42" d="M343.76,8.94l1.58-.9,37.99,21.92-1.59.91Z" fill="#fafafa"/>
          <path id="Tracé_43" data-name="Tracé 43" d="M383.33,29.96l-1.59.91V122.2l1.59-.91Z" fill="#e0e0e0"/>
        </g>
        <g id="Land-3" data-name="Land">
          <path id="Tracé_44" data-name="Tracé 44" d="M350.56,95.8l25.94,14.98V35.34L350.56,20.36Z" fill="#f0f0f0"/>
        </g>
        <g id="Land-4" data-name="Land">
          <path id="Tracé_45" data-name="Tracé 45" d="M350.56,95.8l25.94,14.98V35.34L350.56,20.36Z" fill="#f0f0f0"/>
        </g>
        <path id="Tracé_46" data-name="Tracé 46" d="M376.5,85.62a23,23,0,0,1-3.71,0,46.32,46.32,0,0,1-12.63-2.75c-3.14-1.15-6.28-2.66-9.6-2.75V95.8l3.51,2a11.77,11.77,0,0,1,4.82-2.67c5-1.32,10.12,1.2,15.26,1.79a23,23,0,0,0,2.35.11Z" fill="#fafafa"/>
        <path id="Tracé_47" data-name="Tracé 47" d="M376.5,66.84c-5.8-1.72-11.76-3.15-15.9-7.41-3.34-3.43-4.91-8.19-6-12.85s-1.85-9.47-4-13.77l-.07-.12v34.7c.32.48.65,1,1,1.44,3.81,5.16,9.42,9.47,15.83,9.81,3,.15,6.13-.55,9.11-.54Z" fill="#fafafa"/>
        <path id="Tracé_48" data-name="Tracé 48" d="M376.5,49.57a17.7,17.7,0,0,1-5.75-16.09c.08-.43.19-.86.3-1.29l-10-5.76c0,.65.07,1.31.09,2,.1,3.81,0,7.67.81,11.39a22.36,22.36,0,0,0,11.37,14.69,20.7,20.7,0,0,0,3.16,1.32Z" fill="#fafafa"/>
      </g>
      <g id="Picture-4" data-name="Picture">
        <g id="Frame-4" data-name="Frame">
          <path id="Tracé_49" data-name="Tracé 49" d="M328.88,134.18l-1.57.93-32.08-18.52,1.56-.93Z" fill="#fafafa"/>
          <path id="Tracé_50" data-name="Tracé 50" d="M296.79,115.66l30.52,17.61V50.6L296.79,33Z" fill="#fff"/>
          <path id="Tracé_51" data-name="Tracé 51" d="M292.28,118.29l38,21.93V48.9l-38-21.9Zm3-86.21L327.31,50.6v84.51l-32.08-18.52Z" fill="#f0f0f0"/>
          <path id="Tracé_52" data-name="Tracé 52" d="M295.23,116.59l1.56-.93V33l-1.56-.92Z" fill="#e0e0e0"/>
          <path id="Tracé_53" data-name="Tracé 53" d="M292.28,26.97l1.59-.91,37.98,21.93-1.59.91Z" fill="#fafafa"/>
          <path id="Tracé_54" data-name="Tracé 54" d="M331.85,47.99l-1.59.91v91.32l1.59-.91Z" fill="#e0e0e0"/>
        </g>
        <g id="Land-5" data-name="Land">
          <path id="Tracé_55" data-name="Tracé 55" d="M299.08,113.83l25.94,14.98V53.36L299.08,38.38Z" fill="#f0f0f0"/>
        </g>
        <g id="Land-6" data-name="Land">
          <path id="Tracé_56" data-name="Tracé 56" d="M299.08,113.83l25.94,14.98V53.36L299.08,38.38Z" fill="#f0f0f0"/>
        </g>
        <path id="Tracé_57" data-name="Tracé 57" d="M325,103.65a24.059,24.059,0,0,1-3.7,0,46.76,46.76,0,0,1-12.64-2.75c-3.14-1.16-6.28-2.66-9.6-2.76v15.72l3.52,2a11.871,11.871,0,0,1,4.81-2.68c5-1.31,10.13,1.2,15.26,1.79a20.552,20.552,0,0,0,2.35.12Z" fill="#fafafa"/>
        <path id="Tracé_58" data-name="Tracé 58" d="M325,84.86c-5.8-1.72-11.76-3.15-15.9-7.4-3.34-3.44-4.91-8.19-6-12.85s-1.85-9.47-4-13.77a.172.172,0,0,0-.07-.13v34.7c.33.48.65,1,1,1.44,3.81,5.16,9.43,9.48,15.83,9.81,3,.16,6.13-.55,9.11-.54Z" fill="#fafafa"/>
        <path id="Tracé_59" data-name="Tracé 59" d="M325,67.6a17.68,17.68,0,0,1-5.74-16.09c.08-.44.18-.87.29-1.3l-10-5.76c0,.66.07,1.31.09,2,.1,3.81,0,7.67.82,11.38a21.92,21.92,0,0,0,14.52,16Z" fill="#fafafa"/>
      </g>
    </g>
    <g id="Cursor">
      <g id="Text_Cursor" data-name="Text Cursor">
        <path id="Selection" d="M279.44,466.81l-2.37-1.37a.44.44,0,0,0-.62.16.47.47,0,0,0,.16.63l2.38,1.36a.38.38,0,0,0,.22.07.47.47,0,0,0,.4-.23.45.45,0,0,0-.17-.62Zm6.33,3.65-2.38-1.37a.46.46,0,0,0-.62.16.47.47,0,0,0,.17.63l2.37,1.37a.46.46,0,0,0,.23.06.457.457,0,0,0,.23-.85Zm-1.64-40.13a.46.46,0,0,0-.63-.16l-2.37,1.37a.457.457,0,0,0,.46.79L284,431a.47.47,0,0,0,.13-.67ZM298,464.63,295.59,466a.455.455,0,0,0,.45.79l2.37-1.37a.45.45,0,0,0,.17-.62.46.46,0,0,0-.58-.17ZM296.77,423a.46.46,0,0,0-.62-.17l-2.37,1.37a.45.45,0,0,0,.23.85.49.49,0,0,0,.23-.06l2.37-1.37a.44.44,0,0,0,.16-.62Zm-6.32,3.65a.46.46,0,0,0-.62-.17l-2.37,1.37a.46.46,0,0,0-.17.63.47.47,0,0,0,.39.23.39.39,0,0,0,.23-.07l2.37-1.37a.45.45,0,0,0,.17-.59Zm1.18,41.6-2.37,1.37a.47.47,0,0,0-.17.63.48.48,0,0,0,.4.23.39.39,0,0,0,.23-.07l2.37-1.37a.46.46,0,0,0,.17-.62.47.47,0,0,0-.63-.14ZM277.8,434a.45.45,0,0,0-.62-.16l-2.37,1.37a.455.455,0,0,0,.23.85.49.49,0,0,0,.23-.06l2.37-1.37A.46.46,0,0,0,277.8,434Zm-19,11a.45.45,0,0,0-.62-.17l-2.37,1.37a.45.45,0,0,0,.23.85.49.49,0,0,0,.23-.06l2.37-1.37a.45.45,0,0,0,.19-.68Zm14.29,18.21-2.37-1.36a.453.453,0,1,0-.46.78l2.37,1.37a.39.39,0,0,0,.23.07.48.48,0,0,0,.4-.23.47.47,0,0,0-.14-.69Zm-19-10.95-2.37-1.37a.47.47,0,0,0-.63.17.46.46,0,0,0,.17.62l2.37,1.37a.46.46,0,1,0,.46-.79Zm-1.64-3.61a.45.45,0,0,0-.62-.17l-2.37,1.37a.455.455,0,0,0,.22.85.46.46,0,0,0,.23-.06l2.37-1.37a.45.45,0,0,0,.23-.68Zm8,7.26-2.37-1.37a.46.46,0,0,0-.46.79L260,456.7a.46.46,0,0,0,.22.06.45.45,0,0,0,.23-.85Zm11-18.22a.46.46,0,0,0-.62-.16l-2.37,1.37a.45.45,0,0,0,.22.85.46.46,0,0,0,.23-.06l2.37-1.37a.46.46,0,0,0,.2-.69ZM266.8,459.5l-2.38-1.37a.46.46,0,0,0-.62.17.45.45,0,0,0,.17.62l2.37,1.37a.38.38,0,0,0,.23.06.46.46,0,0,0,.39-.22A.47.47,0,0,0,266.8,459.5Zm-1.64-18.21a.46.46,0,0,0-.63-.17l-2.37,1.37a.45.45,0,0,0-.16.62.43.43,0,0,0,.39.23.459.459,0,0,0,.23-.06l2.37-1.37a.46.46,0,0,0,.17-.62Zm50.19-25.55a.43.43,0,0,0,.39-.23.45.45,0,0,0-.16-.62l-.43-.25c.69-.59.59-1.39-.32-1.91a4.09,4.09,0,0,0-3.7,0,1.13,1.13,0,0,0,0,2.14,4.14,4.14,0,0,0,3.05.26l.94.55a.46.46,0,0,0,.23.06Zm20.55,27-2.37,1.37a.45.45,0,0,0,.22.85.46.46,0,0,0,.23-.06l2.37-1.37a.455.455,0,1,0-.45-.79Zm-1.58-16a.44.44,0,0,0,.39-.22.46.46,0,0,0-.16-.63l-2.37-1.37a.47.47,0,0,0-.63.17.46.46,0,0,0,.17.62l2.37,1.37a.46.46,0,0,0,.23.01Zm6.32,3.65a.47.47,0,0,0,.4-.22.46.46,0,0,0-.17-.63l-2.37-1.37a.46.46,0,0,0-.46.79l2.38,1.37a.46.46,0,0,0,.22.01Zm-11.07,16-2.37,1.37a.44.44,0,0,0-.16.62.43.43,0,0,0,.39.23.46.46,0,0,0,.23-.06l2.37-1.37a.46.46,0,1,0-.46-.79Zm-26.47-27a.47.47,0,0,0-.63-.17l-2.37,1.37a.46.46,0,0,0-.16.62.43.43,0,0,0,.39.23.46.46,0,0,0,.23-.06l2.37-1.37a.46.46,0,0,0,.17-.63ZM347,434a.46.46,0,0,0,.23-.86l-2.38-1.36a.45.45,0,1,0-.45.78l2.37,1.37a.39.39,0,0,0,.23.07Zm-4.75,5.08-2.37,1.37a.455.455,0,0,0,.23.85.49.49,0,0,0,.23-.06l2.37-1.37a.46.46,0,0,0,.16-.63.44.44,0,0,0-.65-.16Zm6.95-3.49a.46.46,0,0,0-.63-.16l-2.37,1.37a.44.44,0,0,0-.16.62.45.45,0,0,0,.39.23.39.39,0,0,0,.23-.07l2.37-1.36a.47.47,0,0,0,.14-.63Zm-39.75-19.86a.45.45,0,0,0-.62-.17l-2.37,1.37a.455.455,0,0,0,.22.85.46.46,0,0,0,.23-.06l2.37-1.37a.45.45,0,0,0,.14-.62Zm1.18,41.6-2.37,1.37a.45.45,0,0,0-.16.62.43.43,0,0,0,.39.23.46.46,0,0,0,.23-.06l2.37-1.37a.465.465,0,1,0-.49-.79ZM304.28,461l-2.37,1.37a.45.45,0,0,0,.23.85.459.459,0,0,0,.22-.06l2.38-1.37a.44.44,0,0,0,.16-.62A.46.46,0,0,0,304.28,461Zm17.39-41.59a.45.45,0,0,0,.23-.85l-2.37-1.37a.46.46,0,0,0-.46.79l2.37,1.37a.53.53,0,0,0,.23.04ZM323.25,450l-2.37,1.37a.45.45,0,0,0,.23.85.531.531,0,0,0,.23-.06l2.37-1.37a.46.46,0,0,0-.46-.79Zm-6.32,3.65-2.37,1.37a.45.45,0,0,0,.22.85.46.46,0,0,0,.23-.06l2.37-1.37a.442.442,0,1,0-.45-.76ZM328,423a.454.454,0,0,0,.22-.85l-2.37-1.37a.46.46,0,0,0-.62.17.45.45,0,0,0,.17.62l2.37,1.37A.46.46,0,0,0,328,423Z" opacity="0.2"/>
        <path id="Tracé_60" data-name="Tracé 60" d="M308.78,452.2l-8.37,4.8a2.71,2.71,0,0,1-2.45,0l-5-2.89,6.11-3.53c.45-.26.5-.66.1-.88a1.69,1.69,0,0,0-1.53.06l-6.11,3.53L275,443.79a.74.74,0,0,1,0-1.41l7.65-4.42a.71.71,0,0,0,0-1.24.7.7,0,0,0-.71,0l-8.89,5.14a1,1,0,0,0,0,1.65,2.86,2.86,0,0,0-2.86,0l-8.17,4.72a.71.71,0,0,0,0,1.24.75.75,0,0,0,.71,0l8.4-4.85a2.71,2.71,0,0,1,2.45,0l16.49,9.52L284,457.69c-.45.26-.5.65-.1.88a1.69,1.69,0,0,0,1.53-.06l6.14-3.54,5,2.88a.75.75,0,0,1,0,1.42l-7.68,4.43a.71.71,0,0,0,0,1.24.7.7,0,0,0,.71,0l8.89-5.13a1,1,0,0,0,.05-1.62,2.91,2.91,0,0,0,2.82,0l8.17-4.72a.71.71,0,0,0,0-1.23.7.7,0,0,0-.75-.04Z" opacity="0.2"/>
      </g>
      <g id="Arrow">
        <path id="Tracé_61" data-name="Tracé 61" d="M379.21,427.11l-41.86,3.27a1.73,1.73,0,0,0-1.56,1.7v2.76a2.77,2.77,0,0,0,1.41,2.27l26.61,13.08a1,1,0,0,0,1.61-.86l.54-4.28a1.53,1.53,0,0,1,1.75-1.33l12.79,1.88a3.18,3.18,0,0,0,2.59-1l1.91-2.2a4.94,4.94,0,0,0,1-2.76v-2.77a1.87,1.87,0,0,0-1.55-1.8l-6-.88,1.15-.65a2.75,2.75,0,0,0,1.15-2.22v-2.76a1.43,1.43,0,0,0-1.54-1.45Z" fill="#ba68c8"/>
        <path id="Tracé_62" data-name="Tracé 62" d="M379.21,427.11l-41.86,3.27a1.73,1.73,0,0,0-1.56,1.7v2.76a2.77,2.77,0,0,0,1.41,2.27l26.61,13.08a1,1,0,0,0,1.61-.86l.54-4.28a1.53,1.53,0,0,1,1.75-1.33l12.79,1.88a3.18,3.18,0,0,0,2.59-1l1.91-2.2a4.94,4.94,0,0,0,1-2.76v-2.77a1.87,1.87,0,0,0-1.55-1.8l-6-.88,1.15-.65a2.75,2.75,0,0,0,1.15-2.22v-2.76a1.43,1.43,0,0,0-1.54-1.45Z" fill="#fff" opacity="0.25"/>
        <path id="Tracé_63" data-name="Tracé 63" d="M381.76,439.55v5.9a3,3,0,0,1-1.26.15l-12.78-1.88a1.51,1.51,0,0,0-.92.17V438a1.51,1.51,0,0,1,.92-.14l12.78,1.88a2.79,2.79,0,0,0,1.26-.19Z" fill="#fff" opacity="0.2"/>
        <path id="Tracé_64" data-name="Tracé 64" d="M364.6,444.41v5.91a1.21,1.21,0,0,1-.79-.13l-26.62-13.08a2.79,2.79,0,0,1-1.41-2.27v-2.76a1.75,1.75,0,0,1,1-1.53c-.2.16,0,.4.45.65l26.62,13.08a1.21,1.21,0,0,0,.75.13Z" fill="#fff" opacity="0.2"/>
        <path id="Tracé_65" data-name="Tracé 65" d="M379.21,427.11l-41.86,3.27c-.86.07-.93.43-.15.82l26.61,13.08a1,1,0,0,0,1.61-.86l.54-4.28a1.53,1.53,0,0,1,1.75-1.33l12.79,1.88a3.18,3.18,0,0,0,2.59-1l1.94-2.24c.56-.66.33-1.29-.53-1.42l-12.79-1.88c-.86-.13-.94-.57-.19-1l7.89-4.43C380.16,427.33,380.08,427,379.21,427.11Z" fill="#fff" opacity="0.45"/>
      </g>
    </g>
    <g id="Plant">
      <g id="Plant-2" data-name="Plant">
        <g id="Pot">
          <path id="Tracé_66" data-name="Tracé 66" d="M463.2,302.22H424.61l4,16.62h0c.3,2,1.78,4,4.43,5.49,6,3.47,15.73,3.47,21.73,0,2.86-1.65,4.34-3.79,4.48-5.95Z" fill="#ba68c8"/>
          <path id="Tracé_67" data-name="Tracé 67" d="M463.2,302.22H424.61l4,16.62h0c.3,2,1.78,4,4.43,5.49,6,3.47,15.73,3.47,21.73,0,2.86-1.65,4.34-3.79,4.48-5.95Z" fill="#fff" opacity="0.6"/>
          <path id="Tracé_68" data-name="Tracé 68" d="M463.2,302.22H424.61l4,16.62h0c.3,2,1.78,4,4.43,5.49,6,3.47,15.73,3.47,21.73,0,2.86-1.65,4.34-3.79,4.48-5.95Z" fill="#fff" opacity="0.6"/>
          <path id="Tracé_69" data-name="Tracé 69" d="M458.49,313.61a16.912,16.912,0,0,0,2.32-1.62l2.17-8.88a15.66,15.66,0,0,1-3.91,3.11c-8.14,4.69-21.18,4.81-29.6.38l1-4-.3-.42h-5.53l4,16.61h0c.3,2,1.78,4,4.43,5.49,4.28,2.47,10.44,3.17,15.8,2.12-9.61.72-16.21-3.48-17.2-7.36-.39-1.54-1.08-5-1.08-5C438.59,318.19,450.82,318,458.49,313.61Z" fill="#ba68c8" opacity="0.2"/>
          <path id="Tracé_70" data-name="Tracé 70" d="M465.2,297.3a8.11,8.11,0,0,1-1.29,3,14,14,0,0,1-4.84,4.3c-8.37,4.84-21.95,4.84-30.33,0a14.24,14.24,0,0,1-4.84-4.3,8.25,8.25,0,0,1-1.28-3h0c-.74-3.63,1.3-7.42,6.13-10.21,8.38-4.84,22-4.84,30.33,0C463.9,289.88,466,293.67,465.2,297.3Z" fill="#ba68c8"/>
          <path id="Tracé_71" data-name="Tracé 71" d="M465.2,297.3a8.11,8.11,0,0,1-1.29,3,14,14,0,0,1-4.84,4.3c-8.37,4.84-21.95,4.84-30.33,0a14.24,14.24,0,0,1-4.84-4.3,8.25,8.25,0,0,1-1.28-3h0c-.74-3.63,1.3-7.42,6.13-10.21,8.38-4.84,22-4.84,30.33,0C463.9,289.88,466,293.67,465.2,297.3Z" fill="#fff" opacity="0.8"/>
          <path id="Tracé_72" data-name="Tracé 72" d="M463.91,300.3a14,14,0,0,1-4.84,4.3c-8.37,4.84-21.95,4.84-30.33,0a14.24,14.24,0,0,1-4.84-4.3,8.25,8.25,0,0,1-1.28-3h0l.95,6.54c.44,2.63,2.4,5.2,5.9,7.21,8,4.61,20.92,4.61,28.9,0,3.44-2,5.4-4.52,5.87-7.11v-.34l.92-6.3A8.11,8.11,0,0,1,463.91,300.3Z" fill="#ba68c8"/>
          <path id="Tracé_73" data-name="Tracé 73" d="M463.91,300.3a14,14,0,0,1-4.84,4.3c-8.37,4.84-21.95,4.84-30.33,0a14.24,14.24,0,0,1-4.84-4.3,8.25,8.25,0,0,1-1.28-3h0l.95,6.54c.44,2.63,2.4,5.2,5.9,7.21,8,4.61,20.92,4.61,28.9,0,3.44-2,5.4-4.52,5.87-7.11v-.34l.92-6.3A8.11,8.11,0,0,1,463.91,300.3Z" fill="#fff" opacity="0.6"/>
          <path id="Tracé_74" data-name="Tracé 74" d="M456.55,288.55c-7-4-18.3-4-25.28,0-3.95,2.28-5.66,5.36-5.14,8.34.4,2.28,2.11,4.5,5.14,6.25,7,4,18.3,4,25.28,0,3-1.75,4.74-4,5.14-6.25C462.21,293.91,460.5,290.83,456.55,288.55Z" fill="#ba68c8"/>
          <path id="Tracé_75" data-name="Tracé 75" d="M456.55,288.55c-7-4-18.3-4-25.28,0-3.95,2.28-5.66,5.36-5.14,8.34.4,2.28,2.11,4.5,5.14,6.25,7,4,18.3,4,25.28,0,3-1.75,4.74-4,5.14-6.25C462.21,293.91,460.5,290.83,456.55,288.55Z" fill="#fff" opacity="0.6"/>
          <path id="Tracé_76" data-name="Tracé 76" d="M427.31,299.65a12,12,0,0,0,4,3.49c7,4,18.3,4,25.28,0a12.06,12.06,0,0,0,4-3.49c-.05-2.42-1.67-4.82-4.86-6.66-6.48-3.75-17-3.75-23.48,0C429,294.83,427.36,297.24,427.31,299.65Z" fill="#fafafa"/>
        </g>
        <path id="Tracé_77" data-name="Tracé 77" d="M438.51,273.65c-.34-9.86-4.05-25.19-7.61-31.37a50.4,50.4,0,0,1,11.23,29.16Z" fill="#263238"/>
        <path id="Tracé_78" data-name="Tracé 78" d="M449.22,294.92c.33-6.85,5.37-9.09,11-6.85,4,1.58,9.87,7.58,11.71,17.13C470.16,300.27,457.07,283.66,449.22,294.92Z" fill="#455a64"/>
        <path id="Tracé_79" data-name="Tracé 79" d="M449.52,298.22c.32-2.55,2.62-5.91,6.63-5.08s13.44,8.2,17.45,20.28c-.73-8.11-3.36-15.11-8.78-19.64s-9.37-5.24-13.33-2.88C448.08,292.92,449.52,298.22,449.52,298.22Z" fill="#37474f"/>
        <path id="Tracé_80" data-name="Tracé 80" d="M442.32,301.53c-3.26-10.9-3.74-31.16-.6-42.12,4.44-15.48,13.64-22.26,20.51-23.91-6.5,2.72-13.37,12.64-15.3,22.35s-.83,43.68-.83,43.68Z" fill="#455a64"/>
        <path id="Tracé_81" data-name="Tracé 81" d="M445,290.9c.42-6.1,4-19.62,11-25.07s14.9-1.8,17.28,1.07c-4.28-3-9.4-2.86-13.1.2s-7.48,12.24-9.36,21Z" fill="#263238"/>
        <path id="Tracé_82" data-name="Tracé 82" d="M454.59,267.1c4.43-4.34,7.89-7.28,13.4-7s12.83,8,17.1,24.25c-4.41-10.34-10.1-19.44-19.22-20.41a14.7,14.7,0,0,0-11.28,3.16Z" fill="#37474f"/>
        <path id="Tracé_83" data-name="Tracé 83" d="M405.05,257.43a35.42,35.42,0,0,1,36.44,29.93l-4.88-.79s-4.06-12.82-11.09-19.47C419.26,261.19,414.62,258.83,405.05,257.43Z" fill="#455a64"/>
        <path id="Tracé_84" data-name="Tracé 84" d="M442.69,284.29c.38-5.5-2.21-17.06-10.61-24.9s-11.44-9.54-20.1-11.75a54.77,54.77,0,0,1,18,15c5.56,7.27,5.81,15.89,5.81,19.13C436.75,284.29,440.16,289.6,442.69,284.29Z" fill="#37474f"/>
        <path id="Tracé_85" data-name="Tracé 85" d="M442.32,287c-1.09-7,2.67-19.55,7.08-25.69,5.33-7.42,13.19-13,21.91-14.49-9.34,3.57-18.74,14-21.49,23.82a53.081,53.081,0,0,0-1.15,20Z" fill="#37474f"/>
        <path id="Tracé_86" data-name="Tracé 86" d="M445.3,301.53c-1.19-6.55.9-20.19,11.68-27.7s18.23-5.53,21.06-4.68c-8.34-.56-16.72,4.09-21.84,9.83-3.56,4-6.9,10.53-7.11,21.36Z" fill="#455a64"/>
        <path id="Tracé_87" data-name="Tracé 87" d="M445.45,302.08s2.82-.08,3.95-1.4c0-4.23,1.14-12.71,7.09-17.71s10.56-4,11.5-2.08c0-2.88-3.62-5.44-7.64-4.59C453.64,277.73,444.18,286.4,445.45,302.08Z" fill="#263238"/>
        <path id="Tracé_88" data-name="Tracé 88" d="M456.85,277.59c3.66-2,6.79-3.7,10.87-1.8.18-.11,2.5-.69,3.38.35,3.41,4,2.3,14-3.93,23.61,2.87-7.19,3-20.46-2.3-22.53a10.6,10.6,0,0,0-8.02.37Z" fill="#37474f"/>
        <path id="Tracé_89" data-name="Tracé 89" d="M467.72,275.79c1.64.76,5,6.51,2.83,14.54,2-6.07,1.3-11.9-2.1-14.72a3.538,3.538,0,0,0-.73.18Z" fill="#263238"/>
        <path id="Tracé_90" data-name="Tracé 90" d="M438.27,300.12c-.33-2.55-2.62-5.91-6.63-5.08s-13.45,8.19-17.46,20.28c.73-8.11,3.69-14.92,8.55-20.05,4.37-4.6,10.09-6.81,14.63-4.37S438.27,300.12,438.27,300.12Z" fill="#263238"/>
        <path id="Tracé_91" data-name="Tracé 91" d="M436.61,284.84c-3.52-3.52-6-6.9-12.46-5.56s-10.9,8.37-12.66,17.87c1.1-3.67,4.43-12.06,11-13.49S432.38,282.73,436.61,284.84Z" fill="#455a64"/>
        <path id="Tracé_92" data-name="Tracé 92" d="M438.27,300.12c-.92-6.21-3.28-15.07-9.9-15.42s-13.86,3.8-16.88,12.45c1.54-7.88,8.26-15.39,15.27-15.41s13.89,1.51,15.56,19.79Z" fill="#37474f"/>
        <path id="Tracé_93" data-name="Tracé 93" d="M432.7,273.76a18.07,18.07,0,0,0-9.12-4.52c-2.25-.37-6.63-2.11-11.32,2.26s-9.63,14.57-7.88,21.7C405.13,285.63,415.3,264.39,432.7,273.76Z" fill="#37474f"/>
        <path id="Tracé_94" data-name="Tracé 94" d="M443.26,302.15c0-5.77-4.2-24-10.85-28.68-8.32-5.82-13.88-.86-13.88-.86a11.11,11.11,0,0,1,9.91,1.57c4.29,3.14,8.3,12.33,9.83,25.94a6,6,0,0,0,4.99,2.03Z" fill="#263238"/>
        <path id="Tracé_95" data-name="Tracé 95" d="M439.49,285c-.41,1.69,1.34,14.25,2.69,17.09a12,12,0,0,0,4-.07c1.27-2.2,0-16.41,2.47-16.68C446.78,284.45,440.37,282.09,439.49,285Z" fill="#37474f"/>
        <path id="Tracé_96" data-name="Tracé 96" d="M439.49,285c2-2,9.92,2,11.41,13.83,2-5.63,1.11-12.59-.88-14.36a3.58,3.58,0,0,0-4.08-.55S439.76,281.2,439.49,285Z" fill="#455a64"/>
        <path id="Tracé_97" data-name="Tracé 97" d="M445.94,283.91c2.43,1,5.22,4.41,5.19,10.18.19-2.95-.38-8.14-4.57-10.43a4.186,4.186,0,0,0-.62.25Z" fill="#37474f"/>
      </g>
    </g>
    <g id="Book">
      <g id="Book-2" data-name="Book">
        <g id="Book-3" data-name="Book">
          <path id="Tracé_98" data-name="Tracé 98" d="M25.71,367.32l155.96,88.57L419.85,319.17,263.91,230.6Z" fill="#ba68c8"/>
          <path id="Tracé_99" data-name="Tracé 99" d="M25.71,367.32l155.96,88.57L419.85,319.17,263.91,230.6Z" opacity="0.4"/>
          <path id="Tracé_100" data-name="Tracé 100" d="M182.89,451.22,30.75,364.43c2.71-7.69,2.51-10-.56-20.27l151.48,86.16S183.64,430.17,182.89,451.22Z" fill="#f5f5f5"/>
          <path id="Tracé_101" data-name="Tracé 101" d="M176.37,421.91c5.51,3.16,10,10.85,10,17.17V452.5c0,6.32-4.47,8.88-10,5.72L25.73,372.29v-5L175,452.1c3.3,1.9,6,.36,6-3.43l-.09-11.95a13.14,13.14,0,0,0-6-10.3L25.73,341.61V336Z" fill="#ba68c8"/>
          <path id="Tracé_102" data-name="Tracé 102" d="M176.37,421.91c5.51,3.16,10,10.85,10,17.17V452.5c0,6.32-4.47,8.88-10,5.72L25.73,372.29v-5L175,452.1c3.3,1.9,6,.36,6-3.43l-.09-11.95a13.14,13.14,0,0,0-6-10.3L25.73,341.61V336Z" opacity="0.3"/>
          <path id="Tracé_103" data-name="Tracé 103" d="M25.73,336,263.91,199.27l150.64,85.92c5.5,3.16,10,10.86,10,17.18v13.42c0,3.15-1.11,5.37-2.93,6.41L183.42,458.92c1.81-1,2.91-3.26,2.92-6.41V439.07c0-6.31-4.47-14-10-17.17Z" fill="#ba68c8"/>
          <path id="Tracé_104" data-name="Tracé 104" d="M25.73,336,263.91,199.27l150.64,85.92c5.5,3.16,10,10.86,10,17.18v13.42c0,3.15-1.11,5.37-2.93,6.41L183.42,458.92c1.81-1,2.91-3.26,2.92-6.41V439.07c0-6.31-4.47-14-10-17.17Z" opacity="0.2"/>
          <path id="Tracé_105" data-name="Tracé 105" d="M183.44,429.3a20.27,20.27,0,0,1,2.92,9.77v13.44c0,3.15-1.11,5.37-2.92,6.41L421.6,322.2c1.82-1,2.92-3.26,2.93-6.41V302.37a20.131,20.131,0,0,0-2.92-9.77Z" fill="#ba68c8"/>
          <path id="Tracé_106" data-name="Tracé 106" d="M398.17,305.9c3.23,14,3.18,19.53,0,29.83l-8.26,4.77c3.19-10.3,3.23-15.79,0-29.83Z" fill="#fff"/>
          <path id="Tracé_107" data-name="Tracé 107" d="M219.68,408.45c3.23,14,3.19,19.35,0,29.65l-8.26,4.77c3.19-10.3,3.23-15.61,0-29.65Z" fill="#fff"/>
        </g>
      </g>
    </g>
    <g id="Device">
      <g id="Laptop">
        <path id="Tracé_108" data-name="Tracé 108" d="M39,324.38c0,3.55,2.65,5.82,5.92,7.71l134.11,77.43a13.15,13.15,0,0,0,11.85,0L407.27,284.61c3.27-1.89,5.92-4.32,5.92-7.87s-2.65-5.73-5.92-7.62L273.16,191.69a13.09,13.09,0,0,0-11.85,0L45,316.6C41.69,318.49,39,320.84,39,324.38Z" fill="#37474f"/>
        <path id="Tracé_109" data-name="Tracé 109" d="M45,323.44l134.11,77.43a13.15,13.15,0,0,0,11.85,0L407.27,276c3.27-1.89,3.27-4.95,0-6.84L273.16,191.69a13.09,13.09,0,0,0-11.85,0L45,316.6C41.69,318.49,41.69,321.55,45,323.44Z" fill="#455a64"/>
        <path id="Tracé_110" data-name="Tracé 110" d="M185,402.29v8.64a12.08,12.08,0,0,1-5.92-1.41L45,332.09c-3.27-1.89-5.92-4.16-5.92-7.71,0-3.32,2.39-5.64,5.46-7.52-2.54,1.8-2.59,4.81.46,6.58l134.12,77.43A12.08,12.08,0,0,0,185,402.29Z" fill="#263238"/>
        <path id="Tracé_111" data-name="Tracé 111" d="M36.47,317.51c-2.6-1.19-3.31-3.26-3.55-6.89L21.29,140.53a11.77,11.77,0,0,1,5.47-10L243.11,5.62c3.27-1.89,5.67-2.91,8.69-.85s3.09,3.21,3.34,6.85L266.76,181.7a11.76,11.76,0,0,1-5.47,10L44.94,316.61C41.67,318.5,39.81,319.06,36.47,317.51Z" fill="#37474f"/>
        <path id="Tracé_112" data-name="Tracé 112" d="M138.74,76a4.44,4.44,0,0,0-2.38,4c.1,1.49,1.33,2.14,2.75,1.45a4.47,4.47,0,0,0,2.38-3.94A1.75,1.75,0,0,0,138.74,76Z" fill="#263238"/>
        <path id="Tracé_113" data-name="Tracé 113" d="M139.76,76.78a1.45,1.45,0,0,0-.77,1.28.57.57,0,0,0,.89.47,1.46,1.46,0,0,0,.77-1.28.57.57,0,0,0-.89-.47Z" fill="#455a64"/>
        <path id="Tracé_114" data-name="Tracé 114" d="M255.14,11.61c-.25-3.63-3.11-5-6.38-3.16L32.41,133.36a11.24,11.24,0,0,0-4,4.36l-5.65-2.84h0a11.36,11.36,0,0,1,4.07-4.36L243.11,5.62c3.27-1.89,5.68-2.93,8.69-.85C255,7,254.89,8,255.14,11.61Z" fill="#455a64"/>
        <path id="Tracé_115" data-name="Tracé 115" d="M44.5,316.86c-3,1.76-4.87,2-8,.65-2.43-1-3.3-3.26-3.55-6.89L21.29,140.53a10.56,10.56,0,0,1,1.42-5.65l5.65,2.82h0a10.61,10.61,0,0,0-1.42,5.65l11.62,170.1C38.79,316.82,41.7,318.51,44.5,316.86Z" fill="#263238"/>
        <path id="Tracé_116" data-name="Tracé 116" d="M36.52,144.8,244.72,24.63c2-1.14,3.68-.29,3.83,1.89L259,180.26a7.08,7.08,0,0,1-3.28,6L47.56,306.44c-2,1.13-3.68.28-3.83-1.9L33.23,150.8a7.09,7.09,0,0,1,3.29-6Z"/>
        <path id="Tracé_117" data-name="Tracé 117" d="M36.52,144.8a7.09,7.09,0,0,0-3.29,6L43.55,301.9,249.38,183.1a7.06,7.06,0,0,0,3.28-6L242.34,26Z" fill="#ba68c8"/>
        <path id="Tracé_118" data-name="Tracé 118" d="M36.52,144.8a7.09,7.09,0,0,0-3.29,6L43.55,301.9,249.38,183.1a7.06,7.06,0,0,0,3.28-6L242.34,26Z" fill="#fff" opacity="0.45"/>
        <path id="Tracé_119" data-name="Tracé 119" d="M63.26,317.6,262.08,202.82a6.16,6.16,0,0,1,5.58,0l7.24,4.06c1.55.89,1.55,2.34,0,3.23L76.06,324.87a6.19,6.19,0,0,1-5.59,0l-7.21-4C61.72,319.94,61.72,318.49,63.26,317.6Z" fill="#263238"/>
        <path id="Tracé_120" data-name="Tracé 120" d="M82.79,329.12,281.6,214.33a5.68,5.68,0,0,1,5.1-.27l51.75,29.87c1.28.74,1.06,2.06-.48,2.95L139.39,361.51a5.74,5.74,0,0,1-5.11.29l-52-29.74C81,331.33,81.24,330,82.79,329.12Z" fill="#263238"/>
        <path id="Tracé_121" data-name="Tracé 121" d="M255.06,262.55l6.22-3.6c.27-.15.29-.39.06-.52l-6-3.44a1,1,0,0,0-.9,0l-6.23,3.6c-.26.15-.28.38-.05.52l6,3.44A1,1,0,0,0,255.06,262.55ZM246,250.11l-6.22,3.59c-.27.16-.29.39-.06.53l6,3.43a1,1,0,0,0,.9,0l6.23-3.59c.26-.15.29-.39.05-.52l-6-3.44A1,1,0,0,0,246,250.11Zm-20.11,11.61-10.53,6.08c-.27.16-.29.39-.06.52l6,3.44a1,1,0,0,0,.9,0l10.54-6.08c.26-.15.28-.39.05-.52l-6-3.44a1,1,0,0,0-.93,0Zm11-6.36-6.22,3.6c-.27.15-.29.38-.05.52l6,3.44a1,1,0,0,0,.9,0l6.23-3.6c.26-.15.29-.38,0-.52l-5.95-3.44a1,1,0,0,0-.93,0Zm-24.42,14.1-6.22,3.6c-.27.15-.29.38-.06.52l6,3.44a1,1,0,0,0,.9,0l6.23-3.6c.26-.15.29-.38.05-.52l-5.95-3.44a1,1,0,0,0-.97,0Zm-9.09,5.25-6.23,3.6c-.26.15-.29.39,0,.52l5.95,3.44a1,1,0,0,0,.91,0l6.22-3.6c.27-.15.29-.38.05-.52l-6-3.44a1,1,0,0,0-.92,0Zm23.34,14,6.22-3.59c.27-.15.29-.39.06-.52l-6-3.44a1,1,0,0,0-.9,0l-6.23,3.59c-.26.16-.29.39,0,.53l5.95,3.44a1,1,0,0,0,.88.02ZM217.6,294l6.22-3.6c.27-.15.29-.38.06-.52l-6-3.44a1,1,0,0,0-.9,0l-6.23,3.6c-.26.15-.28.38,0,.52l6,3.44A1,1,0,0,0,217.6,294Zm-9.1,5.25,6.23-3.59c.26-.16.29-.39.05-.53l-6-3.43a1,1,0,0,0-.9,0l-6.22,3.59c-.27.15-.29.39-.06.52l6,3.44A1,1,0,0,0,208.5,299.25Zm-9.1,5.25,6.23-3.59c.26-.15.29-.39.05-.52l-6-3.44a1,1,0,0,0-.91,0l-6.22,3.59c-.27.16-.29.39-.06.52l6,3.44A1,1,0,0,0,199.4,304.5ZM246,267.8l6.23-3.6c.26-.15.29-.38.05-.52l-6-3.44a1,1,0,0,0-.91,0l-6.22,3.6c-.27.15-.29.38-.06.52l6,3.44A1,1,0,0,0,246,267.8Zm-10.2,15.69,13.88-8c.27-.15.29-.38,0-.52l-14.46-8.35a1,1,0,0,0-.9,0l-7.18,4.15c-.27.15-.29.39-.06.52l7.66,4.42a.287.287,0,0,1,0,.52L229,279.56c-.27.15-.29.39-.05.52l5.95,3.44a1,1,0,0,0,.9-.03ZM194.26,280,188,283.56c-.26.15-.29.39-.05.52l6,3.44a1,1,0,0,0,.91,0l6.22-3.59c.27-.16.29-.39.06-.53l-6-3.43a1,1,0,0,0-.88.03Zm-9.1,5.25-6.23,3.59c-.26.16-.28.39-.05.53l6,3.43a1,1,0,0,0,.9,0l6.23-3.59c.26-.15.28-.39.05-.52l-6-3.44a1,1,0,0,0-.9-.03ZM134.81,341.3a1,1,0,0,0,.91,0l6.22-3.59c.27-.16.29-.39.06-.53l-6-3.43a1,1,0,0,0-.9,0l-6.23,3.59c-.26.15-.28.39,0,.52Zm-22.43-14.06-6.23,3.59c-.26.16-.29.39-.05.53l6,3.43a1,1,0,0,0,.91,0l6.22-3.59c.27-.15.29-.39.06-.52l-6-3.44A1,1,0,0,0,112.38,327.24Zm11.53,10.53a1,1,0,0,0,.91,0l6.22-3.59c.27-.16.29-.39.06-.52l-6-3.44a1,1,0,0,0-.9,0l-6.2,3.59c-.26.15-.29.39-.05.52Zm25.1,5.65,6.23-3.6c.26-.15.29-.38,0-.52l-5.95-3.44a1,1,0,0,0-.91,0l-6.22,3.59c-.27.15-.29.39-.05.52l6,3.44a1,1,0,0,0,.89.01Zm-10,5.28a1,1,0,0,0,.91,0l6.22-3.59c.27-.16.29-.39.06-.53l-6-3.43a1,1,0,0,0-.9,0l-6.23,3.59c-.26.15-.29.39-.05.52ZM121.47,322l-6.22,3.59c-.26.16-.29.39,0,.52l6,3.44a1,1,0,0,0,.91,0l6.22-3.59c.27-.15.29-.39.05-.52l-6-3.44A1,1,0,0,0,121.47,322ZM167,295.73l-6.22,3.59c-.27.15-.29.39-.05.52l5.95,3.44a1,1,0,0,0,.9,0l6.23-3.6c.26-.15.29-.38,0-.52l-5.95-3.44A1,1,0,0,0,167,295.73Zm-36.39,21-6.22,3.59c-.27.15-.29.39-.06.52l6,3.44a1,1,0,0,0,.9,0l6.23-3.59c.26-.16.29-.39.05-.53l-6-3.44a1,1,0,0,0-.94.02Zm45.49-26.27-6.22,3.6c-.27.15-.29.38-.06.52l6,3.44a1,1,0,0,0,.9,0l6.23-3.6c.26-.15.29-.38,0-.52L177,290.44a1,1,0,0,0-.94.03ZM157.87,301l-6.23,3.59c-.26.15-.29.39,0,.52l5.95,3.44a1,1,0,0,0,.91,0l6.22-3.59c.27-.16.29-.39.06-.52l-6-3.44A1,1,0,0,0,157.87,301Zm-9.1,5.25-6.23,3.59c-.26.16-.29.39,0,.53l6,3.43a1,1,0,0,0,.9,0l6.22-3.59c.27-.15.29-.39.06-.52l-6-3.44a1,1,0,0,0-.95-.02Zm-9.1,5.25-6.22,3.6c-.27.15-.29.38-.06.52l6,3.44a1,1,0,0,0,.9,0l6.23-3.6c.26-.15.28-.38.05-.52l-6-3.44a1,1,0,0,0-.9-.02Zm41.54,3.5,6.22-3.6c.27-.15.29-.38.06-.52l-6-3.44a1,1,0,0,0-.9,0l-6.23,3.6c-.26.15-.29.38-.05.52l6,3.44A1,1,0,0,0,181.21,315Zm84.87-76.51-6.22,3.59c-.27.16-.29.39-.06.53l6,3.43a1,1,0,0,0,.9,0l6.23-3.59c.26-.15.29-.39.05-.52L267,238.47a1,1,0,0,0-.92.03Zm-11,6.36-6.23,3.59c-.26.15-.28.39-.05.52l6,3.44a1,1,0,0,0,.9,0l6.23-3.59c.26-.16.28-.39.05-.53l-6-3.43a1,1,0,0,0-.91.01Zm20.11-11.61-6.19,3.6c-.27.15-.29.39-.06.52l6,3.44a1,1,0,0,0,.9,0l6.23-3.59c.26-.16.29-.39.05-.53l-6-3.43a1,1,0,0,0-.94,0ZM224.89,280l6.23-3.59c.26-.15.29-.39,0-.52l-5.95-3.44a1,1,0,0,0-.91,0L218.09,276c-.27.16-.29.39-.06.52l6,3.44a1,1,0,0,0,.86.04Zm60.29-52a1,1,0,0,0-.9,0l-6.23,3.6c-.26.15-.29.38-.05.52l6,3.44a1,1,0,0,0,.9,0l6.22-3.6c.27-.15.29-.38.06-.52Zm-94.87,81.79,6.22-3.59c.27-.15.29-.39.05-.52l-6-3.44a1,1,0,0,0-.91,0l-6.22,3.6c-.26.15-.29.38-.05.52l6,3.44a1,1,0,0,0,.91-.05Zm111.56-64.41,6.23-3.59c.26-.16.29-.39,0-.53l-5.95-3.43a1,1,0,0,0-.91,0l-6.22,3.59c-.27.15-.29.39-.06.52l6,3.44a1,1,0,0,0,.91-.04Zm-17.6.34,6.22-3.59c.27-.15.29-.39.06-.52l-6-3.44a1,1,0,0,0-.9,0l-6.23,3.59c-.26.15-.29.39,0,.52l6,3.44a1,1,0,0,0,.85-.04Zm9.42-12.81a1,1,0,0,0-.9,0l-6.23,3.59c-.26.15-.29.39-.05.52l5.95,3.44a1,1,0,0,0,.91,0l6.22-3.59c.27-.16.29-.39.06-.53Zm1.92-1.1,14.46,8.35a1,1,0,0,0,.9,0l6.23-3.6c.26-.15.29-.38.05-.52l-14.46-8.35a1,1,0,0,0-.91,0l-6.22,3.6c-.27.11-.29.34-.05.48Zm-21,11.64L268.37,247c-.27.16-.29.39-.06.53l6,3.43a1,1,0,0,0,.9,0l6.23-3.59c.26-.15.28-.39.05-.52l-6-3.44a1,1,0,0,0-.9,0Zm-68.47,39.53-6.23,3.6c-.26.15-.29.38,0,.52l5.95,3.44a1,1,0,0,0,.91,0l6.22-3.6c.27-.15.29-.38.06-.52l-6-3.44a1,1,0,0,0-.93-.04Zm85.75-32.32a1,1,0,0,0,.91,0L299,247c.27-.15.29-.39.06-.52l-6-3.44a1,1,0,0,0-.9,0L286,246.66c-.26.16-.29.39-.05.53Zm-76.66,27.07-6.22,3.6c-.26.15-.29.38-.05.52l5.95,3.44a1,1,0,0,0,.91,0l6.22-3.6c.27-.15.29-.39,0-.52l-5.95-3.44a1,1,0,0,0-.88-.04Zm-71.3,58.36a1,1,0,0,0,.91,0l6.22-3.6c.27-.15.29-.38.06-.52l-6-3.44a1,1,0,0,0-.9,0l-6.23,3.6c-.26.15-.29.39,0,.52ZM133.33,325l-6.22,3.59c-.27.15-.29.39,0,.52l5.95,3.44a1,1,0,0,0,.91,0l6.22-3.6c.26-.15.29-.38.05-.52l-5.95-3.44A1,1,0,0,0,133.33,325Zm20.58,5.8,6.23-3.6c.26-.15.29-.39.05-.52l-5.95-3.44a1,1,0,0,0-.91,0l-6.22,3.6c-.27.15-.29.38-.05.52L153,330.8a1,1,0,0,0,.91-.03Zm9.1-5.26,6.23-3.59c.26-.15.29-.39,0-.52l-5.9-3.43a1,1,0,0,0-.91,0l-6.22,3.59c-.27.16-.29.39-.06.53l6,3.43a1,1,0,0,0,.85-.04Zm9.1-5.25,6.23-3.59c.26-.16.28-.39,0-.53l-6-3.43a1,1,0,0,0-.9,0l-6.23,3.59c-.26.15-.28.39-.05.52l6,3.44a1,1,0,0,0,.95-.03Zm-29.68-.55-6.22,3.6c-.27.15-.29.38-.06.52l6,3.44a1,1,0,0,0,.9,0l6.23-3.6c.26-.15.29-.38,0-.52l-5.95-3.44a1,1,0,0,0-.9-.03Zm9.1-5.25-6.22,3.59c-.27.16-.29.39-.06.53l6,3.43a1,1,0,0,0,.9,0l6.23-3.59c.26-.15.28-.39,0-.52l-6-3.44a1,1,0,0,0-.85-.03Zm36.39-21L181.7,297c-.27.16-.29.39-.06.53l6,3.43a1,1,0,0,0,.9,0l6.23-3.59c.26-.15.29-.39.05-.52l-5.95-3.44a1,1,0,0,0-.95.04Zm-9.1,5.25-6.22,3.6c-.27.15-.29.38-.06.52l6,3.44a1,1,0,0,0,.9,0l6.23-3.6c.26-.15.29-.39.05-.52l-6-3.44a1,1,0,0,0-.9-.04ZM197,288.2l-6.23,3.59c-.26.15-.28.39,0,.52l6,3.44a1,1,0,0,0,.9,0l6.22-3.59c.27-.16.29-.39.06-.53l-6-3.43A1,1,0,0,0,197,288.2Zm-36.39,21-6.23,3.59c-.26.15-.29.39-.05.52l6,3.44a1,1,0,0,0,.91,0l6.22-3.59c.27-.16.29-.39.06-.53l-6-3.43a1,1,0,0,0-.89.01Zm9.1-5.26-6.23,3.6c-.26.15-.29.38-.05.52l6,3.44a1,1,0,0,0,.91,0l6.22-3.6c.27-.15.29-.38.05-.52l-6-3.44a1,1,0,0,0-.88.06Zm-11.62,34.22,6.23-3.6c.26-.15.29-.38,0-.52l-5.95-3.44a1,1,0,0,0-.91,0l-6.22,3.6c-.27.15-.29.38-.06.52l6,3.44a1,1,0,0,0,.93.01Zm-48-2.27-6-3.44a1,1,0,0,0-.9,0l-6.23,3.6c-.26.15-.28.38,0,.52l6,3.44a1,1,0,0,0,.9,0l6.22-3.6c.27-.14.29-.41.06-.51Zm11.86,3-6-3.44a1,1,0,0,0-.9,0L105.56,341c-.26.15-.29.39,0,.52l5.95,3.44a1,1,0,0,0,.91,0l9.57-5.53c.22-.18.24-.43.01-.55Zm-20.75-9.77-6-3.44a1,1,0,0,0-.9,0l-7.66,4.43c-.27.15-.29.38,0,.52l5.95,3.44a1,1,0,0,0,.9,0l7.67-4.43c.3-.16.32-.39.09-.53Zm5.87-3.39a1,1,0,0,0,.91,0l6.22-3.6c.27-.15.29-.38.06-.52l-6-3.44a1,1,0,0,0-.9,0l-6.23,3.6c-.26.15-.29.39,0,.52Zm25.78,16.69-6-3.44a1,1,0,0,0-.9,0l-12,6.91c-.27.15-.29.39,0,.52l6,3.44a1,1,0,0,0,.9,0l12-6.91c.26-.16.28-.4.05-.53Zm4.2,7.4-6-3.44a1,1,0,0,0-.9,0l-7.66,4.42c-.27.16-.29.39-.06.53l6,3.43a1,1,0,0,0,.9,0l7.66-4.42c.32-.16.34-.4.11-.53Zm37.67-63.14a1,1,0,0,0,.9,0L181.9,283c.26-.15.28-.39,0-.52l-6-3.44a1,1,0,0,0-.9,0l-6.23,3.59c-.26.16-.28.39-.05.53Zm-18.2,10.5a1,1,0,0,0,.91,0l6.22-3.59c.26-.16.29-.39.05-.53l-5.95-3.43a1,1,0,0,0-.91,0l-6.22,3.59c-.27.15-.29.39,0,.52Zm-40.35,23.3a1,1,0,0,0,.91,0l6.22-3.6c.26-.15.29-.38.05-.52l-6-3.44a1,1,0,0,0-.91,0l-6.22,3.6c-.26.15-.29.38,0,.52Zm49.45-28.55a1,1,0,0,0,.9,0l6.23-3.6c.26-.15.29-.38,0-.52l-5.95-3.44a1,1,0,0,0-.91,0l-6.22,3.6c-.27.15-.29.38-.06.52Zm-18.2,10.5a1,1,0,0,0,.91,0l6.22-3.59c.27-.15.29-.39.06-.52l-6-3.44a1,1,0,0,0-.9,0l-6.23,3.59c-.26.16-.29.39,0,.53Zm-5.9,47.76a1,1,0,0,0-.91,0l-9.58,5.52c-.26.16-.28.39-.05.53l6,3.44a1,1,0,0,0,.9,0l9.58-5.52c.26-.16.29-.39.05-.53ZM134.42,310a1,1,0,0,0,.9,0l6.23-3.59c.26-.16.28-.39,0-.53l-6-3.43a1,1,0,0,0-.9,0L128.51,306c-.26.15-.28.39,0,.52Zm-9.1,5.25a1,1,0,0,0,.9,0l6.23-3.59c.26-.15.29-.39.05-.52l-6-3.44a1,1,0,0,0-.91,0l-6.22,3.59c-.27.16-.29.39-.06.53ZM310.11,252.9a1,1,0,0,0-.9,0l-15.32,8.85c-.27.15-.29.39-.06.52l6,3.44a1,1,0,0,0,.9,0L316,256.82c.26-.15.29-.38.05-.52ZM290,264.47a1,1,0,0,0-.9,0l-6.23,3.59c-.26.15-.28.39-.05.52l6,3.44a1,1,0,0,0,.9,0l6.23-3.6c.26-.15.28-.38,0-.52ZM167.21,332.91l6.23-3.59c.26-.15.28-.39.05-.52l-6-3.44a1,1,0,0,0-.9,0L160.4,329c-.26.16-.28.39-.05.53l6,3.43A1,1,0,0,0,167.21,332.91ZM271.81,275a1,1,0,0,0-.91,0l-6.22,3.59c-.27.16-.29.39-.05.53l5.95,3.43a1,1,0,0,0,.9,0l6.23-3.59c.26-.15.29-.39.05-.52Zm47.4-27.37a1,1,0,0,0-.9,0l-6.23,3.6c-.26.15-.28.38-.05.52l6,3.44a1,1,0,0,0,.9,0l6.22-3.59c.27-.15.29-.39.06-.52Zm15.06-1.81-14.47-8.35a1,1,0,0,0-.9,0l-6.23,3.59c-.26.15-.28.39-.05.52l14.46,8.35a1,1,0,0,0,.91,0l6.22-3.59c.27-.17.29-.41.06-.54Zm-96.46,48.81a1,1,0,0,0-.9,0l-7.66,4.42c-.27.15-.29.39-.06.52l6,3.44a1,1,0,0,0,.9,0l7.66-4.42c.27-.15.29-.39.06-.52Zm23-13.27a1,1,0,0,0-.91,0l-9.58,5.53c-.26.15-.28.38-.05.52l6,3.44a1,1,0,0,0,.9,0l9.58-5.53c.26-.15.29-.39.05-.52Zm-44.06,25.43a1,1,0,0,0-.9,0L164.6,336.38c-.26.16-.29.39,0,.52l5.95,3.44a1,1,0,0,0,.91,0l51.23-29.58c.27-.15.29-.38.06-.52ZM162.63,338a1,1,0,0,0-.9,0l-7.66,4.42c-.27.16-.29.39-.06.53l6,3.44a1,1,0,0,0,.9,0l7.67-4.42c.26-.15.28-.38.05-.52Zm64.65-37.32a1,1,0,0,0-.91,0l-7.66,4.42c-.26.16-.29.39-.05.53l6,3.43a1,1,0,0,0,.91,0l7.66-4.42c.26-.15.29-.39,0-.52Zm-75.18,43.4a1,1,0,0,0-.9,0l-7.67,4.43c-.26.15-.28.38-.05.52l6,3.44a1,1,0,0,0,.9,0l7.66-4.43c.27-.15.29-.38.05-.52Zm96.25-55.56a1,1,0,0,0-.91,0L239.78,293c-.26.15-.29.39-.05.52l6,3.44a1,1,0,0,0,.91,0l7.66-4.42c.26-.16.29-.39.05-.53Zm32.56-18.8a1,1,0,0,0-.91,0l-6.22,3.59c-.27.15-.29.39-.06.52l6,3.44a1,1,0,0,0,.9,0l6.23-3.59c.26-.16.29-.39.05-.53Zm20.37-14.22,6.23-3.6c.26-.15.29-.39.05-.52L301.61,248a1,1,0,0,0-.91,0l-6.22,3.6c-.27.15-.29.38-.06.52l6,3.44a1,1,0,0,0,.86-.05Zm-37.12,1.78,6.22-3.59c.27-.15.29-.39.06-.52l-6-3.44a1,1,0,0,0-.9,0l-6.23,3.59c-.26.16-.29.39-.05.53l5.95,3.43a1,1,0,0,0,.95.01ZM240,290.89l18.2-10.5c.26-.16.29-.39.05-.53l-6-3.43a1,1,0,0,0-.91,0L233.19,287c-.27.15-.29.39-.06.52l6,3.44A1,1,0,0,0,240,290.89Zm51.29-30.1a1,1,0,0,0,.91,0l6.22-3.6c.27-.15.29-.38,0-.52l-5.95-3.44a1,1,0,0,0-.9,0l-6.23,3.6c-.26.15-.29.39-.05.52Zm-7.6-4.94,6.22-3.6c.27-.15.29-.38.06-.52l-6-3.44a1,1,0,0,0-.9,0l-6.23,3.6c-.26.15-.29.38-.05.52l5.95,3.44a1,1,0,0,0,.94,0ZM230.9,296.14l6.22-3.59c.26-.15.29-.39,0-.52l-5.95-3.44a1,1,0,0,0-.91,0l-6.22,3.6c-.27.15-.29.38-.05.52l6,3.43A1,1,0,0,0,230.9,296.14Zm40.27-23.74a1,1,0,0,0,.91,0l6.22-3.59c.26-.16.29-.39.05-.53l-6-3.44a1,1,0,0,0-.91,0l-6.22,3.59c-.27.15-.29.39,0,.52Zm-85.76,50,6.22-3.6c.27-.15.29-.38.05-.52l-6-3.44a1,1,0,0,0-.9,0l-6.23,3.6c-.26.15-.29.38,0,.52l5.95,3.44a1,1,0,0,0,.91.01Zm9.09-5.26,6.23-3.59c.26-.15.29-.39.05-.52l-5.95-3.44a1,1,0,0,0-.91,0l-6.22,3.6c-.27.15-.29.38-.06.52l6,3.44a1,1,0,0,0,.86,0Zm-18.19,10.51,6.22-3.59c.27-.16.29-.39.06-.53l-6-3.43a1,1,0,0,0-.9,0l-6.23,3.59c-.26.15-.29.39-.05.52l6,3.44a1,1,0,0,0,.9.01Zm36.39-21,6.22-3.59c.27-.16.29-.39.06-.53l-6-3.43a1,1,0,0,0-.9,0l-6.23,3.59c-.26.15-.28.39,0,.52l6,3.44a1,1,0,0,0,.85,0Zm-9.1,5.25,6.23-3.59c.26-.15.29-.39,0-.52l-6-3.44a1,1,0,0,0-.9,0L196.8,308c-.27.16-.29.39-.06.52l6,3.44a1,1,0,0,0,.86-.06Zm18.2-10.5,6.22-3.6c.27-.15.29-.38.06-.52l-6-3.44a1,1,0,0,0-.9,0l-6.23,3.6c-.26.15-.29.38-.05.52l5.95,3.44a1,1,0,0,0,.95,0Zm49.64-73.07a1,1,0,0,0,.91,0l6.22-3.59c.27-.15.29-.39.06-.52l-1.59-.92a1,1,0,0,0-.9,0l-6.23,3.6c-.26.15-.29.38-.05.52ZM226.23,257a1,1,0,0,0,.9,0l6.22-3.59c.27-.15.29-.39.06-.52l-6-3.44a1,1,0,0,0-.9,0l-6.23,3.6c-.26.15-.29.38,0,.52Zm18.19-10.51a1,1,0,0,0,.9,0l6.23-3.59c.26-.16.29-.39,0-.53l-5.95-3.43a1,1,0,0,0-.91,0l-6.22,3.59c-.26.15-.29.39-.05.52Zm-29.3,16.92a1,1,0,0,0,.9,0l6.23-3.6c.26-.15.28-.38.05-.52l-6-3.44a1,1,0,0,0-.9,0l-6.23,3.59c-.26.15-.28.39-.05.52Zm20.2-11.67a1,1,0,0,0,.91,0l6.22-3.59c.27-.15.29-.39.06-.52l-6-3.44a1,1,0,0,0-.9,0l-6.23,3.59c-.26.16-.29.39,0,.52Zm-38.4,22.18a1,1,0,0,0,.9,0l6.23-3.59c.26-.15.29-.39,0-.52l-5.95-3.44a1,1,0,0,0-.91,0L191,269.91c-.27.16-.29.39-.05.53Zm9.1-5.26a1,1,0,0,0,.9,0l6.23-3.59c.26-.16.29-.39,0-.52l-5.9-3.55a1,1,0,0,0-.91,0l-6.22,3.59c-.27.15-.29.39-.06.52Zm47.23-29.79a1,1,0,0,0,.9,0l6.23-3.59c.26-.16.29-.39.05-.53l-1.58-.91a1,1,0,0,0-.91,0l-6.22,3.59c-.27.16-.29.39-.06.52Zm27.29-15.76a1,1,0,0,0,.91,0l6.22-3.59c.27-.16.29-.39.06-.52l-1.59-.92a1,1,0,0,0-.9,0l-6.23,3.6c-.26.15-.29.38-.05.52Zm12.51,7.23a1,1,0,0,0,.91,0l6.22-3.59c.27-.15.29-.39.06-.52l-6-3.44a1,1,0,0,0-.9,0l-6.23,3.6c-.26.15-.29.38,0,.52Zm17.33,19.95,6.23-3.59c.26-.15.29-.39.05-.52l-6-3.44a1,1,0,0,0-.9,0l-6.22,3.59c-.27.16-.29.39-.06.52l6,3.44a1,1,0,0,0,.9-.04Zm-48-16.67a1,1,0,0,0,.9,0l6.23-3.6c.26-.15.28-.38,0-.52l-1.59-.91a1,1,0,0,0-.9,0l-6.23,3.59c-.26.15-.28.39-.05.52Zm-74.53,45.55a1,1,0,0,0,.91,0l6.22-3.6c.27-.15.29-.38.06-.52l-6-3.44a1,1,0,0,0-.9,0l-6.23,3.6c-.26.15-.29.38,0,.52Z" fill="#455a64"/>
        <path id="Tracé_122" data-name="Tracé 122" d="M213.88,330.9l1.35.78,35.95,20.75,63.94-36.91,1.33-.76-37.31-21.53Z" fill="#263238"/>
        <path id="Tracé_123" data-name="Tracé 123" d="M314.3,315.99l-35.16-20.28-63.09,36.44,35.13,20.28Z" fill="#37474f"/>
      </g>
    </g>
    <g id="Briefcase">
      <g id="Briefcase-2" data-name="Briefcase">
        <path id="Tracé_124" data-name="Tracé 124" d="M91.35,396.42h3V382.65a11.08,11.08,0,0,0-5.08-8.8l-16.1-9.29a4,4,0,0,0-6.47,3.83l.28,14,3-.06-.28-14c0-.74.16-1.31.46-1.48a1.731,1.731,0,0,1,1.51.31l16.1,9.29a8,8,0,0,1,3.58,6.2Z" fill="#37474f"/>
        <path id="Tracé_125" data-name="Tracé 125" d="M40.92,430.22l3.22-59.29a5.21,5.21,0,0,1,2.34-3.8l1.85-1.07a1.58,1.58,0,0,1,1.63-.13h0l62,35.77-8.53,65.69L41.47,431.64h0a1.48,1.48,0,0,1-.55-1.42Z" fill="#37474f"/>
        <path id="Tracé_126" data-name="Tracé 126" d="M114.21,461.81l-9.35,5.4c-1.21.7-2.13.13-2-1.26L106,406.66a5.28,5.28,0,0,1,2.34-3.81l1.85-1.06a1.43,1.43,0,0,1,2.33,1.26l3.75,55a4.54,4.54,0,0,1-2.06,3.76Z" fill="#263238"/>
        <path id="Tracé_127" data-name="Tracé 127" d="M81.61,449.36a.84.84,0,0,0,.84-.79l1.64-27.78a.83.83,0,0,0-.79-.89.85.85,0,0,0-.9.79l-1.64,27.78a.85.85,0,0,0,.8.89Z" fill="#ba68c8"/>
        <path id="Tracé_128" data-name="Tracé 128" d="M57.88,435.73a.84.84,0,0,0,.84-.8l1.64-27.77a.85.85,0,0,0-.79-.9.86.86,0,0,0-.9.8L57,434.84a.84.84,0,0,0,.79.89Z" fill="#ba68c8"/>
        <path id="Tracé_129" data-name="Tracé 129" d="M98,434a4.49,4.49,0,0,0,6.72-3.64L106,406.65a5.21,5.21,0,0,1,2.35-3.79l1.84-1.07a1.64,1.64,0,0,1,1.51-.2L50,365.92h0a1.53,1.53,0,0,0-1.63.12l-1.86,1.07a5.24,5.24,0,0,0-2.33,3.8l-1.26,23.43a12.39,12.39,0,0,0,6.18,11.42Z" fill="#455a64"/>
        <path id="Tracé_130" data-name="Tracé 130" d="M76.34,418.81l-8.98-5.18-.38,4.97,8.99,5.19Z" fill="#ba68c8"/>
      </g>
    </g>
    <g id="Article">
      <g id="Window-3" data-name="Window">
        <g id="Window-4" data-name="Window">
          <path id="Tracé_131" data-name="Tracé 131" d="M56.26,171.06a5,5,0,0,1-2.16-3.91V154.49a5.1,5.1,0,0,1,2.31-4L261.27,32.17A4.34,4.34,0,0,1,267.91,36V48.66a5.07,5.07,0,0,1-2.31,4L60.73,171a4.9,4.9,0,0,1-4.47.06Z" fill="#ba68c8"/>
          <path id="Tracé_132" data-name="Tracé 132" d="M267.88,35.62c-.16-1.19-1.13-1.63-2.28-.95L60.73,153a5,5,0,0,0-1.63,1.73l-4.33-2.51a4.8,4.8,0,0,1,1.63-1.71L261.27,32.17a4.31,4.31,0,0,1,6.61,3.45Z" fill="#fff" opacity="0.2"/>
          <path id="Tracé_133" data-name="Tracé 133" d="M59.1,154.72a4.72,4.72,0,0,0-.67,2.27v7l-4.34-2.5v-7.27a4.71,4.71,0,0,1,.09-.58,5.51,5.51,0,0,1,.58-1.43Z" opacity="0.15"/>
          <path id="Tracé_134" data-name="Tracé 134" d="M267.91,36v7L130,122.63,64.78,160.3,58.43,164v-7a5.12,5.12,0,0,1,2.3-4L265.6,34.67C266.87,33.93,267.91,34.53,267.91,36Z" fill="#ba68c8"/>
          <path id="Tracé_135" data-name="Tracé 135" d="M261.59,40.38c.82-.48,1.49-.09,1.49.86a3.29,3.29,0,0,1-1.49,2.58c-.82.48-1.49.09-1.49-.86a3.29,3.29,0,0,1,1.49-2.58Z" fill="#fff"/>
          <path id="Tracé_136" data-name="Tracé 136" d="M256.22,43.47c.82-.47,1.49-.09,1.49.86a3.33,3.33,0,0,1-1.49,2.59c-.82.47-1.49.09-1.49-.86a3.31,3.31,0,0,1,1.49-2.59Z" fill="#fff"/>
          <path id="Tracé_137" data-name="Tracé 137" d="M250.85,46.57c.82-.48,1.49-.09,1.49.86A3.29,3.29,0,0,1,250.85,50c-.82.48-1.49.09-1.49-.86a3.29,3.29,0,0,1,1.49-2.57Z" fill="#fff"/>
          <path id="Tracé_138" data-name="Tracé 138" d="M60.73,319a4,4,0,0,1-1.81.55,4.53,4.53,0,0,1-2.65-.47,4.91,4.91,0,0,1-2.17-3.91V161.46l4.34,2.5V317.69c0,1.05.52,1.65,1.28,1.65a2.24,2.24,0,0,0,1.01-.34Z" fill="#e0e0e0"/>
          <path id="Tracé_139" data-name="Tracé 139" d="M267.91,196.7a5.1,5.1,0,0,1-2.31,4L60.73,319c-1.27.73-2.3.13-2.3-1.34V164l6.35-3.66L130,122.63,267.91,43Z" fill="#fafafa"/>
          <path id="Tracé_140" data-name="Tracé 140" d="M267,44.56V196.7a4.24,4.24,0,0,1-1.84,3.21L60.27,318.23a1.14,1.14,0,0,1-.56.2c-.32,0-.36-.46-.36-.74V164.49l5.89-3.4,65.24-37.67L267,44.56m.92-1.59L130,122.63,64.78,160.3,58.43,164V317.69c0,1.05.52,1.65,1.28,1.65a2.09,2.09,0,0,0,1-.31L265.6,200.7a5.1,5.1,0,0,0,2.31-4V43Z" fill="#ebebeb"/>
        </g>
      </g>
      <g id="Article-2" data-name="Article">
        <g id="Window-5" data-name="Window">
          <path id="Tracé_141" data-name="Tracé 141" d="M272.38,54.46,72.76,169.55a4.73,4.73,0,0,0-2.14,3.71V324.9a4.71,4.71,0,0,0,2.15,3.71l1.34.76a4.73,4.73,0,0,0,4.29,0L278,214.19a4.75,4.75,0,0,0,2.15-3.72V58.92a4.71,4.71,0,0,0-2.15-3.7l-1.34-.77A4.77,4.77,0,0,0,272.38,54.46Z" fill="#e0e0e0"/>
          <path id="Tracé_142" data-name="Tracé 142" d="M280.16,210.63c0,1.88-1.32,3.08-3,4l-198,114.22c-1.63.94-3,.18-3-1.72V177.42h0a5.88,5.88,0,0,1,2.95-5.11l198-114.25a2,2,0,0,1,3,1.71h0Z" fill="#fafafa"/>
          <path id="Tracé_143" data-name="Tracé 143" d="M278.18,58.79a1,1,0,0,1,1,1V210.63c0,1.22-.74,2.17-2.46,3.16L78.72,328a1.62,1.62,0,0,1-.82.27c-.56,0-.64-.7-.64-1.12V177.42a4.91,4.91,0,0,1,2.451-4.25l198-114.25a1.09,1.09,0,0,1,.49-.13m0-1a1.92,1.92,0,0,0-1,.27L79.2,172.31a5.88,5.88,0,0,0-2.95,5.11V327.16c0,1.35.67,2.12,1.64,2.12a2.69,2.69,0,0,0,1.32-.4l198-114.22c1.65-.95,3-2.15,3-4V59.77a2,2,0,0,0-2-2Z" fill="#ebebeb"/>
          <path id="Tracé_144" data-name="Tracé 144" d="M280.16,58.93v.84a2,2,0,0,0-3-1.71L79.2,172.31a5.76,5.76,0,0,0-2.15,2.15.36.36,0,0,0,0,.07l-5.8-3.34a4.46,4.46,0,0,1,1.55-1.64L272.38,54.46a4.8,4.8,0,0,1,4.29,0l1.34.77A4.74,4.74,0,0,1,280.16,58.93Z" fill="#f0f0f0"/>
        </g>
        <g id="Article-3" data-name="Article">
          <g id="Title">
            <path id="Tracé_145" data-name="Tracé 145" d="M153.84,152.93l1.22-1,.23-.13,1.23-.44v.87l-2.68,1.55Zm3.51-13.5,1-.57,2.74,10.77-1.6.92-2.23-9.22.37-.69L155.23,153l-.64.37ZM156,147.8l3.25-1.88.23.84-3.68,2.12Zm2.19,2.64,1.44-1.11.53-.3,1.52-.6v.85l-3.49,2Z" fill="#455a64"/>
            <path id="Tracé_146" data-name="Tracé 146" d="M162.21,137.55v-.87l1.81-1v1.14l-.16.09Zm2,9.14,1.65-.68v.87L162.21,149v-.87l1.65-1.23Zm-.94-4.86v-5.72l1.62-.94v12.29l-1.62.94v-6.57Zm.79-.51,1.46-.85a3.78,3.78,0,0,0,1.74-3.42c0-1.52-.53-2-1.65-1.35l-1.56.9v-1l1.82-1c1.87-1.08,2.93-.52,2.93,1.47a5.68,5.68,0,0,1-2.6,4.62v-.18c1.39-.69,1.9-.19,2.16,1.48l.46,2.71-.69-.26,1.53-.62v.87a5,5,0,0,1-1.1.86c-.89.51-1.35.4-1.49-.68l-.35-2.37c-.18-1.27-.55-1.47-1.41-1l-1.27.73Z" fill="#455a64"/>
            <path id="Tracé_147" data-name="Tracé 147" d="M170,133.15l.71-1.4-.35,3.58-.84.48.07-3.41,6.83-3.94.06,3.34-.84.48-.35-3.17.71.58Zm3.19,8.32,1.75-.74v.87l-3.87,2.24V143l1.73-1.28Zm-1-4.84V130.9l1.63-.94v12.29l-1.63.94v-6.56Z" fill="#455a64"/>
            <path id="Tracé_148" data-name="Tracé 148" d="M177.22,128.89V128l3.63-2.1v.87L179.17,128l-.3.17Zm1.95,9.14,1.68-.69v.87l-3.63,2.1v-.87l1.65-1.24Zm-.92-4.87v-5.72l1.63-.94v12.29l-1.63.94v-6.57Z" fill="#455a64"/>
            <path id="Tracé_149" data-name="Tracé 149" d="M187.82,132.38v1l-.77.71.35-3,.83-.48v2.79a7.88,7.88,0,0,1-2.48,2.35c-2.38,1.37-4.13,0-4.13-4.07s1.86-7.53,4.16-8.86a3,3,0,0,1,2.35-.45v2.75l-.82.48-.36-2.63.78-.18v1.08a1.43,1.43,0,0,0-1.77-.19c-1.45.84-2.67,3.32-2.67,7s1.13,4.8,2.6,4a5.69,5.69,0,0,0,1.93-2.3Z" fill="#455a64"/>
            <path id="Tracé_150" data-name="Tracé 150" d="M189.09,122v-.87l3.68-2.12v.87l-1.68,1.24-.34.2Zm1.82,9.22v1.15l-1.82,1v-.87l1.66-1.24Zm-.82-10.67,1.63-.94V131.9l-1.63.94v-6.56c.04-1.91.04-3.83,0-5.7Zm5.24,5.71-.12,3.63-4.3,2.48v-1l3.88-2.25-.79,1.45.48-3.83Z" fill="#455a64"/>
            <path id="Tracé_151" data-name="Tracé 151" d="M196,118v-.87l1.81-1v1.15l-.15.09Zm1.81,9.22v1.15l-1.81,1v-.87l1.66-1.24Zm-.78-5V116.5l1.64-.94v12.29l-1.64.94v-6.57Zm3.91-8,.71.58-3.84,2.22v-1l4.25-2.46.09,3.2-.84.48Zm-.44,6.73-2.69,1.55v-1l2.69-1.55Zm1.89,1.48-.08,3.29-4.5,2.6v-1l4.08-2.36-.71,1.39.37-3.45Zm-2.27-2,.18-2,.62-.36v4.19l-.62.36-.18-1.86Z" fill="#455a64"/>
            <path id="Tracé_152" data-name="Tracé 152" d="M207.65,115.22c4.3-2.72,8.65-5.34,13-8s8.76-5.15,13.14-7.72,8.82-5.06,13.26-7.53l6.67-3.69c2.25-1.2,4.47-2.42,6.73-3.6-2.15,1.37-4.32,2.69-6.48,4l-6.53,3.93c-4.36,2.61-8.77,5.15-13.15,7.72s-8.81,5-13.26,7.52S212.15,112.86,207.65,115.22Z" fill="#455a64"/>
            <path id="Tracé_153" data-name="Tracé 153" d="M96,179.72c4.29-2.72,8.65-5.35,13-8s8.76-5.14,13.14-7.72,8.82-5,13.26-7.52l6.67-3.69c2.24-1.2,4.47-2.43,6.72-3.6-2.14,1.37-4.32,2.68-6.47,4l-6.54,3.93c-4.36,2.61-8.76,5.15-13.14,7.72s-8.82,5.06-13.26,7.53S100.46,177.35,96,179.72Z" fill="#455a64"/>
          </g>
          <g id="Image">
            <path id="Tracé_154" data-name="Tracé 154" d="M92.82,200.9v53.52c0,.77.54,1.08,1.21.69L144.42,226a2.67,2.67,0,0,0,1.21-2.09V170.42c0-.77-.54-1.09-1.21-.7L94,198.81a2.67,2.67,0,0,0-1.18,2.09Z" fill="#ba68c8"/>
            <path id="Tracé_155" data-name="Tracé 155" d="M92.82,200.9v53.52c0,.77.54,1.08,1.21.69L144.42,226a2.67,2.67,0,0,0,1.21-2.09V170.42c0-.77-.54-1.09-1.21-.7L94,198.81a2.67,2.67,0,0,0-1.18,2.09Z" fill="#fff" opacity="0.5"/>
            <path id="Tracé_156" data-name="Tracé 156" d="M95.61,201.12l47.23-27.27v49.86L95.61,250.98Z" fill="#fff" opacity="0.5"/>
            <path id="Tracé_157" data-name="Tracé 157" d="M95.61,250.98V235.01l12.75-28.97,20.8,14.45-6.89-7,8.77-10.99,11.8,5.35v15.86Z" fill="#fff"/>
            <ellipse id="Ellipse_33" data-name="Ellipse 33" cx="5.33" cy="3.08" rx="5.33" ry="3.08" transform="translate(121.439 196.059) rotate(-60)" fill="#fff"/>
          </g>
          <g id="Image-2" data-name="Image">
            <path id="Tracé_158" data-name="Tracé 158" d="M210.6,184.48V238c0,.77.54,1.08,1.21.7l50.39-29.1a2.67,2.67,0,0,0,1.21-2.09V154c0-.77-.54-1.08-1.21-.69L211.81,182.4a2.67,2.67,0,0,0-1.21,2.08Z" fill="#ba68c8"/>
            <path id="Tracé_159" data-name="Tracé 159" d="M210.6,184.48V238c0,.77.54,1.08,1.21.7l50.39-29.1a2.67,2.67,0,0,0,1.21-2.09V154c0-.77-.54-1.08-1.21-.69L211.81,182.4a2.67,2.67,0,0,0-1.21,2.08Z" fill="#fff" opacity="0.5"/>
            <path id="Tracé_160" data-name="Tracé 160" d="M213.39,184.7l47.23-27.27v49.86l-47.23,27.27Z" fill="#fff" opacity="0.5"/>
            <path id="Tracé_161" data-name="Tracé 161" d="M213.39,234.56V218.58l12.75-28.96,20.8,14.45-6.89-7,8.77-11,11.8,5.36v15.86Z" fill="#fff"/>
            <path id="Tracé_162" data-name="Tracé 162" d="M244.55,172.2c2.08-1.2,3.77-.23,3.77,2.18a8.34,8.34,0,0,1-3.77,6.53c-2.08,1.2-3.77.23-3.77-2.18a8.34,8.34,0,0,1,3.77-6.53Z" fill="#fff"/>
          </g>
          <g id="Sample_Text" data-name="Sample Text">
            <path id="Tracé_163" data-name="Tracé 163" d="M92.82,266.06a.75.75,0,0,1-.37-1.4l52.8-30.49a.75.75,0,0,1,1,.27.76.76,0,0,1-.28,1L93.2,266a.86.86,0,0,1-.38.06Z" fill="#e0e0e0"/>
            <path id="Tracé_164" data-name="Tracé 164" d="M92.82,273.07a.75.75,0,0,1-.65-.37.76.76,0,0,1,.28-1l52.8-30.49a.75.75,0,1,1,.75,1.3L93.2,273a.75.75,0,0,1-.38.07Z" fill="#e0e0e0"/>
            <path id="Tracé_165" data-name="Tracé 165" d="M92.82,280.08a.75.75,0,0,1-.65-.37.76.76,0,0,1,.28-1l52.8-30.48a.75.75,0,1,1,.75,1.29L93.2,280a.75.75,0,0,1-.38.08Z" fill="#e0e0e0"/>
            <path id="Tracé_166" data-name="Tracé 166" d="M92.82,287.1a.75.75,0,0,1-.37-1.4l52.8-30.49a.75.75,0,1,1,.75,1.3L93.2,287a.75.75,0,0,1-.38.1Z" fill="#e0e0e0"/>
            <path id="Tracé_167" data-name="Tracé 167" d="M92.82,294.11a.75.75,0,0,1-.65-.37.76.76,0,0,1,.28-1l52.8-30.49a.75.75,0,1,1,.75,1.3L93.2,294a.75.75,0,0,1-.38.11Z" fill="#e0e0e0"/>
            <path id="Tracé_168" data-name="Tracé 168" d="M92.82,301.12a.75.75,0,0,1-.65-.37.76.76,0,0,1,.28-1l52.8-30.48a.75.75,0,0,1,1,.27.76.76,0,0,1-.28,1L93.2,301A.75.75,0,0,1,92.82,301.12Z" fill="#e0e0e0"/>
            <path id="Tracé_169" data-name="Tracé 169" d="M92.82,308.14a.75.75,0,0,1-.37-1.4l52.8-30.49a.75.75,0,1,1,.75,1.3L93.2,308A.75.75,0,0,1,92.82,308.14Z" fill="#e0e0e0"/>
            <path id="Tracé_170" data-name="Tracé 170" d="M210.6,134.65a.75.75,0,0,1-.65-.37.76.76,0,0,1,.28-1L263,102.77a.75.75,0,0,1,1,.27.76.76,0,0,1-.28,1L211,134.55a.75.75,0,0,1-.4.1Z" fill="#e0e0e0"/>
            <path id="Tracé_171" data-name="Tracé 171" d="M210.6,141.67a.75.75,0,0,1-.37-1.4L263,109.78a.75.75,0,0,1,.75,1.3L211,141.57a.75.75,0,0,1-.4.1Z" fill="#e0e0e0"/>
            <path id="Tracé_172" data-name="Tracé 172" d="M210.6,148.68a.75.75,0,0,1-.65-.37.76.76,0,0,1,.28-1L263,116.79a.75.75,0,0,1,.75,1.3L211,148.58a.75.75,0,0,1-.4.1Z" fill="#e0e0e0"/>
            <path id="Tracé_173" data-name="Tracé 173" d="M210.6,155.69a.74.74,0,0,1-.37-1.39L263,123.81a.75.75,0,0,1,1,.27.76.76,0,0,1-.28,1L211,155.59a.75.75,0,0,1-.4.1Z" fill="#e0e0e0"/>
            <path id="Tracé_174" data-name="Tracé 174" d="M210.6,162.71a.75.75,0,0,1-.37-1.4L263,130.82a.75.75,0,0,1,.75,1.3L211,162.61a.75.75,0,0,1-.4.1Z" fill="#e0e0e0"/>
            <path id="Tracé_175" data-name="Tracé 175" d="M210.6,169.72a.75.75,0,0,1-.65-.37.76.76,0,0,1,.28-1L263,137.83a.76.76,0,0,1,1,.28.75.75,0,0,1-.28,1L211,169.62a.75.75,0,0,1-.4.1Z" fill="#e0e0e0"/>
            <path id="Tracé_176" data-name="Tracé 176" d="M210.6,176.74a.75.75,0,0,1-.37-1.4L263,144.85a.75.75,0,0,1,1,.27.76.76,0,0,1-.28,1L211,176.63a.76.76,0,0,1-.4.11Z" fill="#e0e0e0"/>
            <path id="Tracé_177" data-name="Tracé 177" d="M151.8,232a.77.77,0,0,1-.65-.38.75.75,0,0,1,.28-1l52.81-30.49a.74.74,0,0,1,1,.27.76.76,0,0,1-.27,1l-52.81,30.49a.86.86,0,0,1-.36.11Z" fill="#e0e0e0"/>
            <path id="Tracé_178" data-name="Tracé 178" d="M151.8,239a.77.77,0,0,1-.65-.38.75.75,0,0,1,.28-1l52.81-30.49a.74.74,0,0,1,1,.28.75.75,0,0,1-.27,1L152.16,238.9a.75.75,0,0,1-.36.1Z" fill="#e0e0e0"/>
            <path id="Tracé_179" data-name="Tracé 179" d="M151.8,246a.75.75,0,0,1-.37-1.4l52.81-30.49a.75.75,0,1,1,.75,1.3L152.18,245.9a.75.75,0,0,1-.38.1Z" fill="#e0e0e0"/>
            <path id="Tracé_180" data-name="Tracé 180" d="M151.8,253.05a.77.77,0,0,1-.65-.38.75.75,0,0,1,.28-1l52.81-30.49a.74.74,0,0,1,1,.27.76.76,0,0,1-.27,1L152.18,253a.86.86,0,0,1-.38.05Z" fill="#e0e0e0"/>
            <path id="Tracé_181" data-name="Tracé 181" d="M151.8,260.06a.77.77,0,0,1-.65-.38.75.75,0,0,1,.28-1l52.81-30.49a.75.75,0,1,1,.75,1.3L152.18,260a.75.75,0,0,1-.38.06Z" fill="#e0e0e0"/>
            <path id="Tracé_182" data-name="Tracé 182" d="M151.8,267.07a.75.75,0,0,1-.37-1.4l52.81-30.48a.75.75,0,0,1,.75,1.29L152.18,267a.75.75,0,0,1-.38.07Z" fill="#e0e0e0"/>
            <path id="Tracé_183" data-name="Tracé 183" d="M151.8,274.09a.77.77,0,0,1-.65-.38.75.75,0,0,1,.28-1l52.81-30.49a.75.75,0,0,1,1,.27.76.76,0,0,1-.27,1L152.18,274A.86.86,0,0,1,151.8,274.09Z" fill="#e0e0e0"/>
            <path id="Tracé_184" data-name="Tracé 184" d="M151.8,182.74a.77.77,0,0,1-.65-.38.75.75,0,0,1,.28-1l52.81-30.49a.74.74,0,0,1,1,.27.76.76,0,0,1-.27,1l-52.81,30.48a.76.76,0,0,1-.36.12Z" fill="#e0e0e0"/>
            <path id="Tracé_185" data-name="Tracé 185" d="M151.8,189.75a.77.77,0,0,1-.65-.38.75.75,0,0,1,.28-1l52.81-30.49a.74.74,0,0,1,1,.28.75.75,0,0,1-.27,1l-52.81,30.49a.75.75,0,0,1-.36.1Z" fill="#e0e0e0"/>
            <path id="Tracé_186" data-name="Tracé 186" d="M151.8,168.57a.76.76,0,0,1-.65-.37.75.75,0,0,1,.28-1l52.81-30.49a.74.74,0,0,1,1,.27.76.76,0,0,1-.27,1l-52.81,30.48A.75.75,0,0,1,151.8,168.57Z" fill="#e0e0e0"/>
            <path id="Tracé_187" data-name="Tracé 187" d="M151.8,175.59a.77.77,0,0,1-.65-.38.75.75,0,0,1,.28-1l52.81-30.49a.75.75,0,0,1,1,.27.76.76,0,0,1-.27,1l-52.81,30.49A.75.75,0,0,1,151.8,175.59Z" fill="#e0e0e0"/>
            <path id="Tracé_188" data-name="Tracé 188" d="M151.8,196.76a.75.75,0,0,1-.37-1.4l52.81-30.49a.75.75,0,1,1,.75,1.3l-52.81,30.49a.75.75,0,0,1-.38.1Z" fill="#e0e0e0"/>
            <path id="Tracé_189" data-name="Tracé 189" d="M151.8,203.78a.77.77,0,0,1-.65-.38.75.75,0,0,1,.28-1l52.81-30.49a.74.74,0,0,1,1,.27.76.76,0,0,1-.27,1l-52.81,30.49A.86.86,0,0,1,151.8,203.78Z" fill="#e0e0e0"/>
            <path id="Tracé_190" data-name="Tracé 190" d="M151.8,210.79a.738.738,0,0,1-.37-1.38l52.81-30.49a.74.74,0,0,1,1,.28.75.75,0,0,1-.27,1l-52.81,30.49a.75.75,0,0,1-.36.1Z" fill="#e0e0e0"/>
            <path id="Tracé_191" data-name="Tracé 191" d="M151.8,217.8a.75.75,0,0,1-.37-1.4l52.81-30.49a.75.75,0,1,1,.75,1.3L152.18,217.7a.75.75,0,0,1-.38.1Z" fill="#e0e0e0"/>
            <path id="Tracé_192" data-name="Tracé 192" d="M151.8,224.82a.77.77,0,0,1-.65-.38.75.75,0,0,1,.28-1l52.81-30.49a.74.74,0,0,1,1,.27.76.76,0,0,1-.27,1l-52.81,30.49a.86.86,0,0,1-.36.11Z" fill="#e0e0e0"/>
          </g>
        </g>
      </g>
    </g>
    <g id="Character">
      <g id="Character-2" data-name="Character">
        <g id="Bottom">
          <path id="Tracé_193" data-name="Tracé 193" d="M409.08,300.7s-9.87,33.45-11.24,40.19c-1,5-1.87,8.74-1.63,12.5s2.19,9.32,3.41,12.06c0,0,3.67,7.27,2.31,7.51s-12.91-1.88-17.48-4.86-3.85-7.4-3.28-15.67,2.45-20.05,2.45-20.05a5.14,5.14,0,0,0,.9-1.16c1.33-2,2.41-27.33,2.57-33.08Z" fill="#874c4c"/>
          <path id="Tracé_194" data-name="Tracé 194" d="M386,319.08l13.38,15.47c1.16-4.33,2.75-10,4.3-15.4-1.79-5.35-4.08-12.07-5.9-16.9-.41-1.1-.81-2.09-1.2-3l-9.53-1.11C387,301.42,386.61,311,386,319.08Z" fill="#9e6767"/>
          <path id="Tracé_195" data-name="Tracé 195" d="M376.91,341.12c-.34,1.89.43,4.46.08,7.48a52.381,52.381,0,0,1-2.16,10.11c-1.25,4-1.43,4.61-1.43,4.61l1.25.39,2.62-8.39c.79-2.55,2-4.3,3.25-4.2C380.52,351.12,383,343,376.91,341.12Z" fill="#263238"/>
          <path id="Tracé_196" data-name="Tracé 196" d="M384.13,331.4c-1.44,1.9-4.14,3.42-6.12,6.37a7.14,7.14,0,0,0-1.15,4.22c.67,1.34,1.2,1.9,1.73,2.85a10.87,10.87,0,0,1,1.82,4.91,80.282,80.282,0,0,1,0,11c-.2,3.63-.5,5.77,1.92,8.31,1.88,2,8.44,5.52,13.06,7.2,6.32,2.31,10-.21,8.31-3.39s-3.52-6.69-4.1-7.43a12.17,12.17,0,0,0-6.23-.93c-4.06.49-5.82,2.25-9.05-.75-2.93-2.72-3.14-9.89-.16-18.93C387.55,334.59,384.13,331.4,384.13,331.4Z" fill="#263238"/>
          <path id="Tracé_197" data-name="Tracé 197" d="M407.36,327.38c5.74,21.36,8.52,32.68,10.46,37.64s3.62,9.61,5.8,12.88a35.391,35.391,0,0,0,8.17,8.15s7.1,4.67,6,5.6-12.64,5-18.32,4.69-7.33-4.68-11.11-12.45-8.22-19.38-8.22-19.38a5.678,5.678,0,0,0,.22-1.52c.13-2.54-5.11-10.66-9-16.77Z" fill="#9e6767"/>
          <path id="Tracé_198" data-name="Tracé 198" d="M398.62,375.89c.67,1.89,2.71,3.81,4,6.71a55,55,0,0,1,3.31,10.27c1,4.29,1.1,4.9,1.1,4.9l1.33-.29s-1.38-6.21-2-8.94-.48-4.91.75-5.49C407.08,383.05,405.06,374.45,398.62,375.89Z" fill="#37474f"/>
          <path id="Tracé_199" data-name="Tracé 199" d="M400.08,363.35c-.31,2.47-2,5.25-2.21,8.95a7.47,7.47,0,0,0,1.15,4.41c1.3.86,2.08,1.09,3.05,1.67a11.36,11.36,0,0,1,4.2,3.49,81.777,81.777,0,0,1,5.74,9.94c1.71,3.38,2.55,5.46,6.06,6.5,2.73.81,10.49.6,15.55-.29,6.9-1.2,8.91-5.38,5.74-7.38s-6.66-4.21-7.57-4.59a12.73,12.73,0,0,0-6.11,2.41c-3.41,2.55-4.09,5.06-8.57,4-4.06-.94-8-7.31-10-17C404.83,364.46,400.08,363.35,400.08,363.35Z" fill="#37474f"/>
          <path id="Tracé_200" data-name="Tracé 200" d="M370.22,236.72c7.54,4.83,28.58,21.23,39.36,30,3.12,2.54,5.81,4.19,5.1,13.5C413.87,290.88,403,326,403,326l-63.1-69.41Z" fill="#ba68c8"/>
          <path id="Tracé_201" data-name="Tracé 201" d="M370.22,236.72c7.54,4.83,28.58,21.23,39.36,30,3.12,2.54,5.81,4.19,5.1,13.5C413.87,290.88,403,326,403,326l-63.1-69.41Z" fill="#fff" opacity="0.6"/>
          <path id="Tracé_202" data-name="Tracé 202" d="M404.84,316.87c-9.68-7.11-45.84-54.11-45.84-54.11l1.23-.35a30.82,30.82,0,0,0,10.22-14.12c1.15,7.77-2.09,11.53-4.88,13.93,2.47,1.87,18,12.84,27.67,19.53,2.42,1.68,4.92,3.79,6,7.89C401.72,299.46,404.93,314.85,404.84,316.87Z" fill="#ba68c8" opacity="0.5"/>
          <path id="Tracé_203" data-name="Tracé 203" d="M369.05,240.75h0l-55.88,11.66c-.15,10.73,4.16,18.85,6.54,21.77,3.55,4.35,11,9.87,24.59,15.91,13.81,6.14,26.09,12,29.31,13.27,2.42,1,4.07,5.92,5.47,12,1.46,6.36,1.18,11.16,8.26,24.29,6.93,12.87,9.18,15.82,9.18,15.82s11-.47,17.06-6.44c0,0-11.81-44.52-14.11-52.57-1.28-4.49-1.43-6.89-7.35-11.58-5.07-4-31.89-22.46-31.89-22.46S375.26,252.91,369.05,240.75Z" fill="#ba68c8"/>
          <path id="Tracé_204" data-name="Tracé 204" d="M369.05,240.75h0l-55.88,11.66c-.15,10.73,4.16,18.85,6.54,21.77,3.55,4.35,11,9.87,24.59,15.91,13.81,6.14,26.09,12,29.31,13.27,2.42,1,4.07,5.92,5.47,12,1.46,6.36,1.18,11.16,8.26,24.29,6.93,12.87,9.18,15.82,9.18,15.82s11-.47,17.06-6.44c0,0-11.81-44.52-14.11-52.57-1.28-4.49-1.43-6.89-7.35-11.58-5.07-4-31.89-22.46-31.89-22.46S375.26,252.91,369.05,240.75Z" fill="#fff" opacity="0.6"/>
          <path id="Tracé_205" data-name="Tracé 205" d="M389.41,330.29a136.844,136.844,0,0,1-4.87-18.23c-1.24-5.68-2.22-10.16-3.51-12-1.65-2.41-10.15-6.39-20.92-11.43-6-2.83-12.87-6-19.25-9.33a57,57,0,0,1-10.34-6.65l-1-.82c-7.8-7-8.22-13.66-8.61-20.18l-1.08.07c.55,9.11,1.13,18.54,20.49,28.54,6.4,3.31,13.25,6.51,19.29,9.35,10.2,4.77,19,8.9,20.49,11.06,1.17,1.7,2.18,6.32,3.34,11.66a140.38,140.38,0,0,0,4.92,18.38c3.12,8.42,8.82,19.24,11.62,24.38l1.13-.21C398.44,349.89,392.6,338.88,389.41,330.29Z" fill="#ba68c8" opacity="0.5"/>
        </g>
        <g id="Top">
          <path id="Hair" d="M364.49,172.63a2.81,2.81,0,0,1-.17-1,10.711,10.711,0,0,0-.38-4.32c-.82-2.24-3.2-3.39-5.43-3.77a6.44,6.44,0,0,1-2.44-.44,3.56,3.56,0,0,1-1.5-3.28,8,8,0,0,1,1.86-4.56c1.13-1.64,2.88-2.76,3.49-4.76.32-1,.34-3.83-.78-4.47a4.31,4.31,0,0,0,4.93.8,3.34,3.34,0,0,0,1.66-3.19c-1.12,1.58-3,.44-3.61-.27-1.32-1.6-.33-3.93-.79-5.79a6.81,6.81,0,0,0-3.07-3.6c-.73-.49-1.5-1-2.26-1.43a3.51,3.51,0,0,1-1.45-1.57c-.51-.87-1-1.72-1.6-2.56a9.38,9.38,0,0,0-3.68-3.66,9.71,9.71,0,0,0-6.57-.42,9.06,9.06,0,0,0-2.91,1.38,4.45,4.45,0,0,1-2.19,1.11,8.61,8.61,0,0,1-2.84-.53,11.51,11.51,0,0,0-8.76.7,9.4,9.4,0,0,0-4.25,4.18,15.629,15.629,0,0,0-.88,3.69c0-.07-3.69.9-4,1a11.39,11.39,0,0,0-3.41,2.38,8.93,8.93,0,0,0-2.65,7.29c.05,1.28.35,2.9-.2,4.1a9.09,9.09,0,0,1-2.75,2.84c-2.09,1.8-4,4.36-4.24,7.17a13.079,13.079,0,0,0,.67,4.42c.24,1,.78,2.15.21,3.09a9,9,0,0,1-2.21,2.22c-2.66,1.91-5,4.08-5,7.65a9.57,9.57,0,0,0,1.3,5.05c.86,1.55,1.84,3.23,1.26,5s-1.42,2.86-1.13,4.78c.32,2.13,2.27,3.93,4,5,4.71,2.91,9.3,1.63,14.13.11a39.571,39.571,0,0,1,9.08-2.19,23.85,23.85,0,0,1,7.54,1c5.56,1.37,14.62,1.77,18.33-3.58.81-1.15,1.27-2.66,2.6-3.38a8.75,8.75,0,0,1,4.05-.77c2.37-.05,4.82.57,7.16,0a6.92,6.92,0,0,0,4.72-4.45c1.26-3.48-.89-6.35-3.52-8.35a6.61,6.61,0,0,1-2.32-2.62Z" fill="#263238"/>
          <g id="Arm">
            <path id="Tracé_206" data-name="Tracé 206" d="M409.77,165.73c-4.37,7.08-13.57,20.85-13.57,20.85l-15.71-4.23c-20.51-5.54-21.85-5.68-30-4.68L362,200.36c4.89-.55,24.46,1.94,30.51,2.77,10.49,1.45,12.55,1.54,15.65-4.42,3.92-7.51,4.67-9.39,6.5-13.2s4.87-10.51,6.18-13.45Z" fill="#9e6767"/>
            <path id="Tracé_207" data-name="Tracé 207" d="M407.11,170.56c3.24-5.56,4.47-7.48,2.69-11.38s-2.26-4.88-2.34-5.9,1.19-6.13,1.2-8.33.59-2.84,2.19-3.81,5.12-3,6-3.77a2.64,2.64,0,0,1,0,3.76c-.8.94-1.91,2.31-1.91,2.31s2,1,3,1.37,1.08,1,1.18,3.6a2.36,2.36,0,0,1,1.75.71,5.24,5.24,0,0,1,.67,2.54,2.4,2.4,0,0,1,1.42.56c.63.56.87,2.68.83,4.59.22,2.18,1.23,4.76,1.27,6.63s-1.3,3.38-2.94,6.19c-2.08,3.55-5.81,11.55-5.81,11.55S404,176,407.11,170.56Z" fill="#9e6767"/>
            <path id="Tracé_208" data-name="Tracé 208" d="M410,153a8,8,0,0,0,1.06-5.05c-.27-1.73-.69-3.62-.19-3.87.84-.41,3.2.49,3.89,3.26s.8,6,1,6.76a12.54,12.54,0,0,0,2.69,3.18,7.38,7.38,0,0,1,1.11,8.38,6.84,6.84,0,0,0,1.57-4.83c-.05-3.23-2.92-5.22-3.84-6.37s-1.1-1.38-1.31-4-.43-5.4-3.15-6.79-3,0-3,.88S411.47,150.36,410,153Z" fill="#874c4c"/>
            <path id="Tracé_209" data-name="Tracé 209" d="M415,143.44l-1.22,1.5.69.18a2.25,2.25,0,0,1,2.26-.87Z" fill="#874c4c"/>
            <path id="Tracé_210" data-name="Tracé 210" d="M419.12,148.41c.06.86.09,3.53.11,4.07s-.92.79-1.82.16a3.54,3.54,0,0,1-1.57-2.1,3.87,3.87,0,0,0,1.28,2.44c1.12.85,2,.63,2.43.25S419.24,150.24,419.12,148.41Z" fill="#874c4c"/>
            <path id="Tracé_211" data-name="Tracé 211" d="M421.54,151.66c.06.65,0,1.54.1,3.32.07,1,.15,1.69-.43,1.87a2.56,2.56,0,0,1-2.39-1.68,8.638,8.638,0,0,1-.4-2h-.52a6.85,6.85,0,0,0,.87,3.1c.82,1.19,2.52,1.63,2.93,1s.35-1.16.19-2.64S421.54,151.66,421.54,151.66Z" fill="#874c4c"/>
            <path id="Tracé_212" data-name="Tracé 212" d="M421.69,156.78c.08.42.66,1.17,1.29.91a1.48,1.48,0,0,0,.81-.88,1.25,1.25,0,0,1-.74,1.25c-.76.3-1.46-.3-1.88-.9Z" fill="#874c4c"/>
          </g>
          <g id="Chest">
            <path id="Tracé_213" data-name="Tracé 213" d="M332.11,180c9.3-1.62,18.37-2.36,18.37-2.36s9.9,7.71,12.53,10.87c3.08,3.7,9.39,11.56,2.18,23.09l.36,18.21,6.94,8.4S369.56,249,355.28,252s-27.52-1.7-27.52-1.7a77.24,77.24,0,0,1-15.22,4,96.637,96.637,0,0,1,.81-12.84c1.42-8.52,1.38-5.93,1.3-10.4S314.3,217,314.3,217s5.39-2.3,6.3-11.8a45.369,45.369,0,0,0-3.38-21.83S320.83,182,332.11,180Z" fill="#f0f0f0"/>
          </g>
          <g id="Head">
            <path id="Tracé_214" data-name="Tracé 214" d="M324.36,164.26a6,6,0,0,1-5.45-2.07c-2.87-3.15-3.14-6.37-1.81-8.51,1.1-1.76,3.8-2.89,5.7-1.7s2.1,2.31,2.87,3.74,3.74,1.31,4.44-4.49c.65-5.41,1.47-10.37,4.11-12.82,3.95-3.65,8.54-2,10.12.1a5.25,5.25,0,0,1,7.15-2.06c2.65,1.42,4.19,4.41,5.14,14.68,1,10.46-1.2,17.88-3.6,19.64-1.82,1.34-4.13,1.63-8,1.81l-.18,8.27s7.58,11.8,7.58,20.77c0,0-4.43-1.57-14.52-9.69-6.72-5.41-11.83-10.3-11.83-10.3l.57-19S326.38,163.88,324.36,164.26Z" fill="#9e6767"/>
            <path id="Tracé_215" data-name="Tracé 215" d="M328,164.68a4.81,4.81,0,0,1-2.63,4.61,4.44,4.44,0,0,1-1.81.5,4.77,4.77,0,0,1-5.1-4.44,4.86,4.86,0,0,1,.72-2.9,3.737,3.737,0,0,0,.42.39,4.21,4.21,0,0,0,.85.57,3.16,3.16,0,0,0-.45,1.83,3.24,3.24,0,0,0,3.46,3,3.16,3.16,0,0,0,1.85-.78,3.2,3.2,0,0,0-2.3-5.64.783.783,0,0,1-.13-1.56,4.79,4.79,0,0,1,5.12,4.42Z" fill="#fafafa"/>
            <path id="Tracé_216" data-name="Tracé 216" d="M340.62,152.07a1.74,1.74,0,0,1-2.17,1.2,1.79,1.79,0,1,1,2.17-1.2Z" fill="#263238"/>
            <path id="Tracé_217" data-name="Tracé 217" d="M338.87,149.78c-1.08,0-1.72,1.49-2.76.91a1.55,1.55,0,0,0,2.11.85C338.71,151.29,338.87,149.78,338.87,149.78Z" fill="#263238"/>
            <path id="Tracé_218" data-name="Tracé 218" d="M354.15,144.72l-4-.83a2,2,0,0,1,2.36-1.64,2.17,2.17,0,0,1,1.64,2.47Z" fill="#263238"/>
            <path id="Tracé_219" data-name="Tracé 219" d="M350,152a1.73,1.73,0,1,0,1-2.29,1.78,1.78,0,0,0-1,2.29Z" fill="#263238"/>
            <path id="Tracé_220" data-name="Tracé 220" d="M351.61,149.6c1.08,0,1.8,1.4,2.81.76a1.56,1.56,0,0,1-2.06,1C351.86,151.1,351.61,149.6,351.61,149.6Z" fill="#263238"/>
            <path id="Tracé_221" data-name="Tracé 221" d="M339.19,144.42,335,145.73a2.12,2.12,0,0,1,1.37-2.75,2.31,2.31,0,0,1,2.82,1.44Z" fill="#263238"/>
            <path id="Tracé_222" data-name="Tracé 222" d="M339.34,160.73l5.76,1.61a3,3,0,0,1-4,2,2.8,2.8,0,0,1-1.76-3.61Z" fill="#874c4c"/>
            <path id="Tracé_223" data-name="Tracé 223" d="M342.78,164.43a3.14,3.14,0,0,0-3.26-2.67l-.29.05a2.64,2.64,0,0,0,1.91,2.51A3.3,3.3,0,0,0,342.78,164.43Z" fill="#f28f8f"/>
            <path id="Tracé_224" data-name="Tracé 224" d="M345,172.58c-3.65-.23-7.57-.41-11.18-2.05-2.1-1-3.61-3-5.18-6.49,0,0,.16,5.36,4.56,7.92s11.75,3,11.75,3Z" fill="#874c4c"/>
            <path id="Tracé_225" data-name="Tracé 225" d="M358.57,145.7l-.78-.06c-2.51-.17-5.77-.12-7.68.57-2.41.86-3.22,1.76-4.59,1.82s-2.44-.77-5.12-1.43a25.33,25.33,0,0,0-8.27.09l-.82.13a1.33,1.33,0,0,0-.87,1.44,3.19,3.19,0,0,0,.85,1.61,2,2,0,0,1,.3.65,29.74,29.74,0,0,0,1.2,4.57,5.91,5.91,0,0,0,1.15,1.63,4.39,4.39,0,0,0,.57.48l.33.21a5.069,5.069,0,0,0,1,.43H336l.26.07h.27a6.85,6.85,0,0,0,.84.11h.81c3.48-.13,4.82-1.92,5.57-3.72s.37-4.23,1.94-4.29h.29c1.19.23,1.2,2.49,2.06,4.09a7.11,7.11,0,0,0,1.26,1.76l.29.26.15.13.17.12a.709.709,0,0,0,.14.1l.16.1.12.08.09.05a5.359,5.359,0,0,0,1.43.52h.13a7,7,0,0,0,1.7.11,4.58,4.58,0,0,0,4.59-3.44,30.752,30.752,0,0,0,.54-4.64,1.34,1.34,0,0,1,.23-.61,3,3,0,0,0,.55-1.69A1.48,1.48,0,0,0,358.57,145.7Zm-15.84,7.1a5.19,5.19,0,0,1-1.05,2.49h0a4.7,4.7,0,0,1-3.7,1.57,4.2,4.2,0,0,1-3.71-1.65l-.12-.17-.11-.17-.1-.16a1.091,1.091,0,0,1-.08-.15l-.06-.11a.541.541,0,0,1-.05-.11.891.891,0,0,1-.08-.17h0a4.117,4.117,0,0,1-.2-.51h0a1.06,1.06,0,0,0-.1-.3c-.03-.09-.1-.35-.14-.49a.442.442,0,0,1,0-.1v-.09c-.31-1.2-.72-3.56-.16-4.12s2.09-1.17,4.63-1h.27a11.7,11.7,0,0,1,1.17.15l.45.1a8.682,8.682,0,0,1,1.15.33l.35.13a3.521,3.521,0,0,1,.39.17h.08l.14.07a2.29,2.29,0,0,1,.79.6C343,149.85,342.93,151.43,342.73,152.8Zm14.85-1.13c-.11,1-.34,3-2.06,4a4.3,4.3,0,0,1-1.87.52,4.36,4.36,0,0,1-4-1.69h0a1,1,0,0,0-.08-.11l-.09-.13v-.07a1.178,1.178,0,0,1-.11-.19l-.12-.22-.06-.11v-.06l-.05-.09v-.07a6.944,6.944,0,0,1-.31-.9c-.36-1.34-.62-2.9-.19-3.66s2.22-1.64,4-1.94c.41-.07.8-.11,1.16-.14h1.32l.59.08h.38l.17.05.29.1h.05a2.811,2.811,0,0,1,.66.38c.54.64.46,3.02.32,4.25Z" fill="#37474f"/>
            <path id="Tracé_226" data-name="Tracé 226" d="M331.61,147.05l-9.87,4.51a6.23,6.23,0,0,1,2.3,1.36l7.54-3.53Z" fill="#37474f"/>
            <path id="Tracé_227" data-name="Tracé 227" d="M344.7,150.7l1,8.69,5.58-2.15-5.9-7.08A1,1,0,0,0,344.7,150.7Z" fill="#874c4c"/>
          </g>
        </g>
        <g id="Laptop-2" data-name="Laptop">
          <path id="Tracé_228" data-name="Tracé 228" d="M411.67,270.08c-.7-.74-1.48-1.38-2.29-2.09-6.1-5.28-15.56-13.21-23.88-19.94l-50,32a.41.41,0,0,0,0,.71l32.87,17Z" opacity="0.2"/>
          <path id="Tracé_229" data-name="Tracé 229" d="M423.45,256.82v.74a3.06,3.06,0,0,1-1.4,2.72L370,293.64a2.919,2.919,0,0,1-1.5.48,3.059,3.059,0,0,1-1.56-.34L337,278.35a3,3,0,0,1-1.65-2.57l-.05-1h0a.35.35,0,0,0,.21.32l32.88,17Z" fill="#263238"/>
          <path id="Tracé_230" data-name="Tracé 230" d="M368.41,292.09l.1,2a3,3,0,0,0,1.5-.48l52.07-33.36a3.07,3.07,0,0,0,1.41-2.72v-.74Z" fill="#263238"/>
          <path id="Tracé_231" data-name="Tracé 231" d="M423.45,256.82,390.88,240a1.82,1.82,0,0,0-1.82.09l-53.55,34.32a.41.41,0,0,0,0,.71l32.87,17Z" fill="#37474f"/>
          <path id="Tracé_232" data-name="Tracé 232" d="M368,289.41l-17.57-9.08,48.69-31.2,17.65,9.02Z" fill="#455a64"/>
          <path id="Tracé_233" data-name="Tracé 233" d="M416.77,258.15l-.64.41-16.98-8.67L351.1,280.68l-.67-.34,48.68-31.21Z" fill="#263238"/>
          <path id="Tracé_234" data-name="Tracé 234" d="M358.31,262.35l.33.17,8.61,4.45,14.51-9.3.3-.19-8.93-4.62Z" fill="#263238"/>
          <path id="Tracé_235" data-name="Tracé 235" d="M358.64,262.52l8.61,4.45,14.51-9.3-8.61-4.45Z" fill="#455a64"/>
          <g id="Arm-2" data-name="Arm">
            <path id="Tracé_236" data-name="Tracé 236" d="M373.23,268.61c-2.13-2.63-5.24-6.28-8.05-7.56a15.874,15.874,0,0,0-2-.85,26.156,26.156,0,0,0,3.06-.28,5.23,5.23,0,0,0,2.7-1.41c.29-.3.52-.8.23-1.09a.67.67,0,0,0-.39-.2c-2.31-.32-4.06-.88-6.18-1.24A26.089,26.089,0,0,0,357,255a59.8,59.8,0,0,0-6.67.43,9.41,9.41,0,0,1-6.86-1.82c-2.4-1.63-8-5.05-8-5.05s-.38,1-3.81,5.57-2.63,6.57-2.63,6.57l10.58,5.6h0l.14.07a34.234,34.234,0,0,0,4.65,2.68c3.12,1.33,7.38.6,10.2.76s7.43,1.95,9.92,3.28,6-2.33,7.29-1.71S375.37,271.23,373.23,268.61Z" fill="#9e6767"/>
            <path id="Tracé_237" data-name="Tracé 237" d="M362.16,258.52a9.93,9.93,0,0,0-4,.22,21.67,21.67,0,0,1,5.08,1.46,26.161,26.161,0,0,0,3.06-.28,5.47,5.47,0,0,0,2.44-1.16C367,259.66,364,258.92,362.16,258.52Z" fill="#874c4c"/>
          </g>
          <path id="Tracé_238" data-name="Tracé 238" d="M317.22,183.33c-8.78,2.15-12.66,6-14.11,12.95-1.38,6.59-2.94,26-3.68,34.41-1.15,13.17-1,15.69,6.63,20,11,6.2,30.09,13.87,30.09,13.87l7.27-10.89L318,237.13l2.9-24.4S325.8,191.53,317.22,183.33Z" fill="#9e6767"/>
          <path id="Tracé_239" data-name="Tracé 239" d="M369.29,292.5a3.67,3.67,0,0,0,3.12-.39l51.83-33.22a3.61,3.61,0,0,0,1.64-2.61l4.22-35a3,3,0,0,0,0-.6,3.59,3.59,0,0,0-1.19-2.52l-53.86,34.52a2.69,2.69,0,0,0-1.22,1.94Z" fill="#37474f"/>
          <path id="Tracé_240" data-name="Tracé 240" d="M368.41,292.09l.38.19a4.462,4.462,0,0,0,.5.22l4.56-37.92a2.69,2.69,0,0,1,1.22-1.94l53.86-34.52a3.44,3.44,0,0,0-.76-.53l-54,34.59a2.69,2.69,0,0,0-1.21,1.93Z" fill="#455a64"/>
          <path id="Tracé_241" data-name="Tracé 241" d="M374.31,253.39l-.88-.46a2.621,2.621,0,0,0-.45,1.18l-4.57,38,.38.19a4.467,4.467,0,0,0,.5.22l4.56-37.92A2.749,2.749,0,0,1,374.31,253.39Z" fill="#263238"/>
          <path id="Tracé_242" data-name="Tracé 242" d="M397.8,259c.29-2.35,2.55-5.55,5.05-7.16s4.31-1,4,1.35-2.55,5.55-5.05,7.15S397.52,261.36,397.8,259Z" fill="#e0e0e0"/>
        </g>
      </g>
    </g>
    <g id="Button">
      <g id="Button-2" data-name="Button">
        <g id="Button-3" data-name="Button">
          <path id="Tracé_243" data-name="Tracé 243" d="M378.79,139.05V114.41a2,2,0,0,1,.91-1.59l58.89-34a.564.564,0,0,1,.91.53V104a2,2,0,0,1-.91,1.58l-58.89,34C379.2,139.87,378.79,139.63,378.79,139.05Z" opacity="0.15"/>
          <path id="Tracé_244" data-name="Tracé 244" d="M441.78,80.69l-58.89,34a2,2,0,0,0-.91,1.59V140.9a2,2,0,0,0,.92,1.57l3.27,1.84a2.07,2.07,0,0,0,1.83,0l58.89-34a2,2,0,0,0,.91-1.59V84.09a2,2,0,0,0-.92-1.57l-3.27-1.84a2.07,2.07,0,0,0-1.83.01Z" fill="#ba68c8"/>
          <path id="Tracé_245" data-name="Tracé 245" d="M387.09,143.77V119.13a2,2,0,0,1,.91-1.58l58.89-34a.565.565,0,0,1,.91.53v24.64a2,2,0,0,1-.91,1.59L388,144.3C387.5,144.59,387.09,144.35,387.09,143.77Z" fill="#ba68c8"/>
          <path id="Tracé_246" data-name="Tracé 246" d="M388,144.3a2.1,2.1,0,0,1-1.83,0l-3.27-1.84a2,2,0,0,1-.92-1.57V116.26a1.87,1.87,0,0,1,.29-.94l5.09,2.91a1.81,1.81,0,0,0-.27.9v24.64C387.09,144.3,387.47,144.61,388,144.3Z" opacity="0.2"/>
          <path id="Tracé_247" data-name="Tracé 247" d="M447.79,83.93c-.07-.46-.45-.63-.9-.37l-58.88,34a1.71,1.71,0,0,0-.65.68l-5.1-2.91a2,2,0,0,1,.63-.65l58.89-34a2,2,0,0,1,1.83,0l3.27,1.84A2,2,0,0,1,447.79,83.93Z" fill="#fff" opacity="0.4"/>
        </g>
        <path id="Tracé_248" data-name="Tracé 248" d="M396.78,120c.94-.54,1.66-.62,2.18-.24s.77,1.22.77,2.52a7.24,7.24,0,0,1-.77,3.44,5.54,5.54,0,0,1-2.18,2.29l-1.85,1.07v4a.92.92,0,0,1-.09.39.56.56,0,0,1-.22.27l-.94.54a.15.15,0,0,1-.21,0,.37.37,0,0,1-.1-.29v-11.5a.81.81,0,0,1,.1-.39.61.61,0,0,1,.21-.27Zm-1.85,6.85,1.8-1a2.843,2.843,0,0,0,1.39-2.63c0-.66-.13-1-.39-1.15a1.25,1.25,0,0,0-1,.23l-1.8,1Z" fill="#fafafa"/>
        <path id="Tracé_249" data-name="Tracé 249" d="M407.25,113.93a.18.18,0,0,1,.22,0,.4.4,0,0,1,.09.29v7.3a10.339,10.339,0,0,1-.21,2.11,7.91,7.91,0,0,1-.62,1.89,6.609,6.609,0,0,1-1,1.59,5.691,5.691,0,0,1-1.45,1.18,3.14,3.14,0,0,1-1.45.5,1.42,1.42,0,0,1-1-.4,2.33,2.33,0,0,1-.62-1.17,7.317,7.317,0,0,1-.2-1.88v-7.3a.92.92,0,0,1,.09-.39.56.56,0,0,1,.22-.27l.93-.54a.18.18,0,0,1,.23,0,.36.36,0,0,1,.09.28v7.21a4.23,4.23,0,0,0,.13,1.18,1.259,1.259,0,0,0,.35.63.7.7,0,0,0,.56.16,1.86,1.86,0,0,0,.7-.25,3.492,3.492,0,0,0,.72-.56,3.42,3.42,0,0,0,.56-.81,5,5,0,0,0,.36-1,6.061,6.061,0,0,0,.13-1.33v-7.21a.81.81,0,0,1,.1-.39.56.56,0,0,1,.22-.27Z" fill="#fafafa"/>
        <path id="Tracé_250" data-name="Tracé 250" d="M409.62,125a.18.18,0,0,1-.22,0,.4.4,0,0,1-.09-.29v-11.5a.92.92,0,0,1,.09-.39.52.52,0,0,1,.22-.27l3.41-2a2.09,2.09,0,0,1,1.24-.37,1.22,1.22,0,0,1,.8.41,2.06,2.06,0,0,1,.43.89,4.37,4.37,0,0,1,.14,1.07,4.677,4.677,0,0,1-.1,1,5.678,5.678,0,0,1-.22.84,5.884,5.884,0,0,1-.27.64,3.711,3.711,0,0,1-.21.39,1.66,1.66,0,0,1,.66.68,3.21,3.21,0,0,1,.3,1.57,7.372,7.372,0,0,1-.16,1.43,7.754,7.754,0,0,1-.48,1.48,6.13,6.13,0,0,1-.78,1.31,3.78,3.78,0,0,1-1.08,1Zm4.46-11.44c0-.45-.1-.74-.28-.86s-.48-.07-.88.16l-2.05,1.18v2.74l2.05-1.18a2.33,2.33,0,0,0,.88-.85,2.519,2.519,0,0,0,.28-1.16Zm-3.21,8.49,2.14-1.23a2.31,2.31,0,0,0,.93-1,2.72,2.72,0,0,0,.3-1.26,1.18,1.18,0,0,0-.31-.93c-.2-.17-.51-.13-.92.1L410.87,119Z" fill="#fafafa"/>
        <path id="Tracé_251" data-name="Tracé 251" d="M422.62,115.3a.17.17,0,0,1,.22,0,.36.36,0,0,1,.09.28v1.26a.929.929,0,0,1-.09.4.56.56,0,0,1-.22.27l-5.06,2.92a.17.17,0,0,1-.22,0,.33.33,0,0,1-.1-.28v-11.5a.88.88,0,0,1,.1-.4.49.49,0,0,1,.22-.26l.93-.55a.18.18,0,0,1,.22,0,.38.38,0,0,1,.09.28v9.76Z" fill="#fafafa"/>
        <path id="Tracé_252" data-name="Tracé 252" d="M424.36,116.52a.17.17,0,0,1-.22,0,.4.4,0,0,1-.09-.29v-11.5a.92.92,0,0,1,.09-.39.56.56,0,0,1,.22-.27l.93-.54a.17.17,0,0,1,.22,0,.4.4,0,0,1,.1.29v11.5a.94.94,0,0,1-.1.39.51.51,0,0,1-.22.27Z" fill="#fafafa"/>
        <path id="Tracé_253" data-name="Tracé 253" d="M430.19,100.52a3,3,0,0,1,1.36-.47,1.61,1.61,0,0,1,1,.23,1.52,1.52,0,0,1,.6.72,2.929,2.929,0,0,1,.23,1,.93.93,0,0,1-.09.4.6.6,0,0,1-.23.26l-.81.47a.32.32,0,0,1-.29.06.48.48,0,0,1-.18-.21.91.91,0,0,0-.53-.47,1.32,1.32,0,0,0-1,.27,3.769,3.769,0,0,0-.58.43,3.1,3.1,0,0,0-.47.56,3,3,0,0,0-.32.64,1.92,1.92,0,0,0-.11.67,1.19,1.19,0,0,0,.11.6.44.44,0,0,0,.37.23,1.88,1.88,0,0,0,.68-.05,5.178,5.178,0,0,0,1.07-.24,4.19,4.19,0,0,1,1.19-.14,1.37,1.37,0,0,1,.83.27,1.47,1.47,0,0,1,.47.73,4.08,4.08,0,0,1,.16,1.21,6,6,0,0,1-.23,1.62,7.17,7.17,0,0,1-.66,1.56,7.252,7.252,0,0,1-1.06,1.38,6.2,6.2,0,0,1-1.4,1.09,3.81,3.81,0,0,1-1.23.48,2,2,0,0,1-1.05-.09,1.52,1.52,0,0,1-.73-.67,2.76,2.76,0,0,1-.32-1.25.71.71,0,0,1,.09-.4.66.66,0,0,1,.23-.26l.8-.47c.14-.07.24-.1.31-.06a.37.37,0,0,1,.17.22,1.749,1.749,0,0,0,.2.35.61.61,0,0,0,.31.23,1.12,1.12,0,0,0,.49,0,2.459,2.459,0,0,0,.73-.31,4.48,4.48,0,0,0,.67-.47,3.23,3.23,0,0,0,.57-.6,2.93,2.93,0,0,0,.39-.69,2,2,0,0,0,.15-.77.71.71,0,0,0-.16-.54.6.6,0,0,0-.49-.15,4.181,4.181,0,0,0-.81.13c-.33.08-.7.16-1.13.24a3.34,3.34,0,0,1-1,.08,1.13,1.13,0,0,1-.71-.31,1.64,1.64,0,0,1-.43-.76,5.1,5.1,0,0,1-.14-1.3,5.659,5.659,0,0,1,.24-1.61,6.67,6.67,0,0,1,1.6-2.84,5,5,0,0,1,1.14-1Z" fill="#fafafa"/>
        <path id="Tracé_254" data-name="Tracé 254" d="M441.21,94.33a.17.17,0,0,1,.22,0,.36.36,0,0,1,.09.28v11.5a.92.92,0,0,1-.09.39.52.52,0,0,1-.22.27l-.94.55a.18.18,0,0,1-.22,0A.39.39,0,0,1,440,107v-4.7l-3.49,2V109a.81.81,0,0,1-.1.39.56.56,0,0,1-.22.27l-.93.54a.18.18,0,0,1-.22,0,.4.4,0,0,1-.09-.3V98.45a.92.92,0,0,1,.09-.39.56.56,0,0,1,.22-.27l.93-.54a.17.17,0,0,1,.22,0,.37.37,0,0,1,.1.29v4.57l3.49-2V95.53a.92.92,0,0,1,.09-.39.62.62,0,0,1,.22-.27Z" fill="#fafafa"/>
      </g>
    </g>
  </g>
</svg>
