<svg xmlns="http://www.w3.org/2000/svg" xmlns:xlink="http://www.w3.org/1999/xlink" width="319.329" height="330.062" viewBox="0 0 319.329 330.062">
  <defs>
    <linearGradient id="linear-gradient" y1="0.5" x2="1" y2="0.5" gradientUnits="objectBoundingBox">
      <stop offset="0" stop-color="#e38ddd"/>
      <stop offset="1" stop-color="#9571f6"/>
    </linearGradient>
    <clipPath id="clip-path">
      <path id="Tracé_262" data-name="Tracé 262" d="M1722.13,1081.117c3.623,12.3,6.807,24.959,10.383,37.362,7.271.792,15.845,1.546,17.7-7.371,2.585-12.4,24.346-16.6,34.566-16.569,12.648.042,40-2.41,34.726-20.246-4.391-14.849-12.98-22.259,3.744-31.105s23.643-21.429,16.367-37.144c-7.657-16.539,8.946-38.2-6.526-49.058-26.961-18.912-48.9,27.954-47.8,53.974s-12.949,20.013-29.8,24.663c-23,6.349-4.16,27.939-12.829,37.859C1735.872,1081.257,1730.727,1079.661,1722.13,1081.117Z" transform="translate(-1722.13 -952.604)" fill="none"/>
    </clipPath>
    <clipPath id="clip-path-2">
      <path id="Tracé_271" data-name="Tracé 271" d="M1866.679,346.359q-15.014-2.022-30-4.732c-.16.148-3.7-21.53,6.477-33.045,20.131-22.312,6.148-41.947,2.086-53.634-6.477-16.468-3.5-36.618,14.766-33.074,17.795,3.028,20.043-33.557,16.635-61.678-2.782-13.674,9.946-30.46,22.8-34.416,13.123-4.37,26.374,4.087,30.74,31.355,6.484,31.556-16.368,50.911-24.722,66.873-8.221,15.669,11.5,28.028-4.083,42.012-13.1,12.418-29.684,21.431-23.384,36.751C1884.452,317.917,1883.1,330.38,1866.679,346.359Z" transform="translate(-1835.958 -124.692)" fill="none"/>
    </clipPath>
    <linearGradient id="linear-gradient-2" x1="0.195" y1="0.024" x2="-0.557" y2="0.944" gradientUnits="objectBoundingBox">
      <stop offset="0" stop-color="#ff9085"/>
      <stop offset="1" stop-color="#fb6fbb"/>
    </linearGradient>
    <linearGradient id="linear-gradient-3" x1="1.061" y1="1.542" x2="0.091" y2="2.169" gradientUnits="objectBoundingBox">
      <stop offset="0" stop-color="#26264f"/>
      <stop offset="1" stop-color="#444b8c"/>
    </linearGradient>
    <linearGradient id="linear-gradient-4" x1="0.019" y1="0.501" x2="1.126" y2="0.479" gradientUnits="objectBoundingBox">
      <stop offset="0" stop-color="#444b8c"/>
      <stop offset="1" stop-color="#26264f"/>
    </linearGradient>
    <linearGradient id="linear-gradient-5" x1="0.291" y1="2.149" x2="0.864" y2="1.654" xlink:href="#linear-gradient-4"/>
    <linearGradient id="linear-gradient-6" x1="0.541" y1="-1.092" x2="0.458" y2="2.152" xlink:href="#linear-gradient-4"/>
    <linearGradient id="linear-gradient-7" x1="0.252" y1="0.202" x2="0.8" y2="0.86" xlink:href="#linear-gradient-2"/>
    <linearGradient id="linear-gradient-8" x1="0.31" y1="1.286" x2="0.72" y2="-0.437" gradientUnits="objectBoundingBox">
      <stop offset="0" stop-color="#f36f56"/>
      <stop offset="1" stop-color="#ffc444"/>
    </linearGradient>
    <linearGradient id="linear-gradient-9" x1="-0.727" y1="2.202" x2="0.554" y2="0.404" xlink:href="#linear-gradient-8"/>
    <linearGradient id="linear-gradient-10" x1="0" y1="0.5" x2="1" y2="0.5" xlink:href="#linear-gradient-2"/>
    <linearGradient id="linear-gradient-14" x1="6.019" y1="-14.189" x2="6.192" y2="-13.555" gradientUnits="objectBoundingBox">
      <stop offset="0" stop-color="#ab316d"/>
      <stop offset="1" stop-color="#792d3d"/>
    </linearGradient>
    <linearGradient id="linear-gradient-15" x1="6.165" y1="-19.115" x2="6.046" y2="-18.982" xlink:href="#linear-gradient-14"/>
    <linearGradient id="linear-gradient-16" x1="26.659" y1="-45.458" x2="26.411" y2="-37.254" gradientUnits="objectBoundingBox">
      <stop offset="0" stop-color="#ffc444"/>
      <stop offset="1" stop-color="#f36f56"/>
    </linearGradient>
    <linearGradient id="linear-gradient-17" x1="68.912" y1="-108.861" x2="68.858" y2="-101.966" xlink:href="#linear-gradient-14"/>
    <linearGradient id="linear-gradient-18" x1="0.522" y1="0.328" x2="0.37" y2="1.498" xlink:href="#linear-gradient-4"/>
    <linearGradient id="linear-gradient-19" x1="0.573" y1="0.296" x2="0.319" y2="1.564" xlink:href="#linear-gradient-4"/>
    <linearGradient id="linear-gradient-20" x1="0.894" y1="0.977" x2="-0.544" y2="-0.765" gradientUnits="objectBoundingBox">
      <stop offset="0" stop-color="#aa80f9"/>
      <stop offset="1" stop-color="#6165d7"/>
    </linearGradient>
    <linearGradient id="linear-gradient-22" x1="0.573" y1="0.296" x2="0.319" y2="1.564" xlink:href="#linear-gradient-4"/>
    <linearGradient id="linear-gradient-23" x1="0.894" y1="0.977" x2="-0.544" y2="-0.765" xlink:href="#linear-gradient-20"/>
  </defs>
  <g id="quality" transform="translate(0 -0.001)">
    <g id="Calque_2" data-name="Calque 2" transform="translate(0 0.001)">
      <g id="Illustration" transform="translate(0 0)">
        <path id="Tracé_255" data-name="Tracé 255" d="M97.126,3.378a81.036,81.036,0,0,0-68.5,94.685c12.4,67.931-100.837,207.137,52.9,227.625s232.711-34.886,236.387-85.3C321.414,192.333,335.507-29.881,97.126,3.378Z" transform="translate(0 -0.001)" fill="#f4f7fa"/>
        <path id="Tracé_256" data-name="Tracé 256" d="M1779.872,1114.039a15.333,15.333,0,0,1-6.33-3.536c-4.9-6.595-14.867-18.347-14.117-27,.127-1.478,6.779-2.67,7.743-4,4.062-1.79,5.575-2.158,8.6-5.754,8.918-10.614-10.178-31.532,12.89-38.064,16.9-4.786,30.889,1.375,29.8-24.682s20.843-72.881,47.805-53.983c15.48,10.846-1.135,32.521,6.526,49.058,7.28,15.713.357,28.295-16.368,37.144s-8.124,16.248-3.744,31.107c5.262,17.853-22.046,20.24-34.747,20.265C1807.7,1094.615,1781.667,1101.57,1779.872,1114.039Z" transform="translate(-1566.233 -848.057)" fill="url(#linear-gradient)"/>
        <g id="Groupe_6" data-name="Groupe 6" transform="translate(189.062 104.581)" clip-path="url(#clip-path)">
          <path id="Tracé_257" data-name="Tracé 257" d="M1824.577,1067.58l-.167-.367a151.69,151.69,0,0,0,67.413-60.442c15.37-25.558,24.084-56,25.205-88.031l.4.014c-1.124,32.1-9.86,62.609-25.264,88.225A152.084,152.084,0,0,1,1824.577,1067.58Z" transform="translate(-1813.181 -922.458)" fill="#fcfdfe"/>
          <path id="Tracé_258" data-name="Tracé 258" d="M2156.224,2083.622c-15.724-5.643-42.267-6.516-59.154-1.945l-.11-.388c16.961-4.589,43.605-3.712,59.393,1.955Z" transform="translate(-2055.81 -1954.758)" fill="#fcfdfe"/>
          <path id="Tracé_259" data-name="Tracé 259" d="M1922.761,1754.856l-.261-.306c6.917-5.906,10.584-15.084,10.9-27.277.229-8.94-1.317-19.264-4.6-30.683l.386-.11c3.293,11.46,4.843,21.825,4.611,30.806C1933.483,1739.6,1929.77,1748.872,1922.761,1754.856Z" transform="translate(-1900.503 -1614.814)" fill="#fcfdfe"/>
          <path id="Tracé_260" data-name="Tracé 260" d="M2457.978,1566.223l-.278-.293c12.469-11.806,30.313-14.565,43.088-14.8l.008.4C2488.093,1551.767,2470.358,1554.5,2457.978,1566.223Z" transform="translate(-2376.946 -1485.421)" fill="#fcfdfe"/>
          <path id="Tracé_261" data-name="Tracé 261" d="M2474.657,991.119l-.4-.041c.828-8.261-.046-25.111-15.206-45.144l.322-.244C2474.614,965.834,2475.491,982.8,2474.657,991.119Z" transform="translate(-2378.148 -946.449)" fill="#fcfdfe"/>
        </g>
        <g id="Groupe_7" data-name="Groupe 7" transform="translate(201.559 13.689)" clip-path="url(#clip-path-2)">
          <path id="Tracé_263" data-name="Tracé 263" d="M1866.679,346.359q-15.014-2.022-30-4.732c-.16.148-3.7-21.53,6.477-33.045,20.131-22.312,6.148-41.947,2.086-53.634-6.41-16.458-3.363-34.4,13.463-34.871,18.656-.886,21.664-31.82,17.939-59.881-2.782-13.674,9.946-30.46,22.8-34.416,13.123-4.37,26.374,4.087,30.74,31.355,6.484,31.556-16.368,50.911-24.722,66.873-8.221,15.669,11.5,28.028-4.083,42.012-13.1,12.418-29.684,21.431-23.384,36.751C1884.452,317.917,1883.1,330.38,1866.679,346.359Z" transform="translate(-1835.958 -124.692)" fill="url(#linear-gradient-2)"/>
          <path id="Tracé_264" data-name="Tracé 264" d="M1990.943,294.259h-.4c0-.192,8.984-45.99,24.909-90.665,2.186-7.227,4.567-14.519,6.87-21.57,6.168-18.883,12.546-38.409,15.451-57.809,3.248-21.685,1.756-41.161-4.549-59.544l.38-.131c6.331,18.444,7.825,37.985,4.568,59.733-2.91,19.432-9.293,38.973-15.466,57.875-2.305,7.049-4.683,14.339-6.87,21.571C2000.646,246.325,1991.056,292.832,1990.943,294.259Z" transform="translate(-1973.569 -71.144)" fill="#fcfdfe"/>
          <path id="Tracé_265" data-name="Tracé 265" d="M2382.323,415.529l-.3-.266c10.988-12.515,24.214-30.263,31.319-39.8,5.716-7.671,5.753-7.662,5.988-7.628l-.057.4.029-.2.083.179c-.291.205-2.687,3.421-5.72,7.492C2406.553,385.246,2393.325,403.006,2382.323,415.529Z" transform="translate(-2322.071 -341.139)" fill="#fcfdfe"/>
          <path id="Tracé_266" data-name="Tracé 266" d="M2225.22,343.454c-2.48-14.157-8.432-23.42-12.992-28.69-5.037-5.828-9.638-8.335-10.106-8.385a.161.161,0,0,0,.1-.03l-.228-.329c.1-.068.219-.053.491.06,1.238.52,5.881,3.345,10.79,9.3a60.219,60.219,0,0,1,12.346,28.011Z" transform="translate(-2161.805 -286.077)" fill="#fcfdfe"/>
          <path id="Tracé_267" data-name="Tracé 267" d="M1923.661,1066.9l-.4-.043c1.411-13.216-1.838-27.372-9.653-42.078a122.59,122.59,0,0,0-15.37-22.286c-.439-.516-.6-.7-.649-.783l.346-.205c.036.059.289.354.608.726a123.153,123.153,0,0,1,15.419,22.363C1921.818,1039.362,1925.081,1053.6,1923.661,1066.9Z" transform="translate(-1890.824 -905.241)" fill="#fcfdfe"/>
          <path id="Tracé_268" data-name="Tracé 268" d="M2171.746,1297.42l-.346-.208c11.747-19.51,36.992-21.153,37.2-21.087l.153.187-.136.2-.066-.188-.014.2h0C2208.2,1276.521,2183.323,1278.2,2171.746,1297.42Zm36.738-21.288.067.189Z" transform="translate(-2134.574 -1149.715)" fill="#fcfdfe"/>
          <path id="Tracé_269" data-name="Tracé 269" d="M1893.571,1842.971l-.4-.01c.141-5.747-2.032-15.517-13.186-29.412-.6-.754-.6-.754-.591-.867l.4.053-.2-.026.183-.078c.032.058.259.34.522.666C1891.531,1827.283,1893.714,1837.152,1893.571,1842.971Z" transform="translate(-1874.62 -1627.321)" fill="#fcfdfe"/>
          <path id="Tracé_270" data-name="Tracé 270" d="M2027.338,1813.205l-.388-.11c1.208-4.385,6.093-13.007,25.141-21.486l.493-.22.189.356c-.064.034-.241.11-.518.236C2033.358,1800.39,2028.532,1808.888,2027.338,1813.205Z" transform="translate(-2005.982 -1608.413)" fill="#fcfdfe"/>
        </g>
        <path id="Tracé_272" data-name="Tracé 272" d="M590.317,516.211c0,5.364-3.805,9.951-8.5,10.224L400.771,537c-5.379.314-9.771-4.125-9.771-9.894V267.4c0-5.769,4.391-10.286,9.771-10.067l181.047,7.337c4.694.19,8.5,4.709,8.5,10.073Z" transform="translate(-348.074 -229.071)" fill="url(#linear-gradient-3)"/>
        <path id="Tracé_273" data-name="Tracé 273" d="M638.733,516.211c0,5.364-3.806,9.951-8.5,10.224L449.181,537c-5.379.314-9.771-4.125-9.771-9.894V267.4c0-5.769,4.391-10.286,9.771-10.067l181.048,7.337c4.693.2,8.5,4.709,8.5,10.076Z" transform="translate(-391.17 -229.071)" fill="url(#linear-gradient-4)"/>
        <path id="Tracé_274" data-name="Tracé 274" d="M480.94,306.952v259.3a5.055,5.055,0,0,0,5.213,5.288l143.189-8.112,37.858-2.144c2.515-.143,4.551-2.59,4.551-5.466V313.981c0-2.876-2.035-5.287-4.551-5.379l-39.225-1.522-141.822-5.51A5.164,5.164,0,0,0,480.94,306.952Z" transform="translate(-428.14 -268.459)" fill="url(#linear-gradient-5)"/>
        <path id="Tracé_275" data-name="Tracé 275" d="M692.591,572.2a2.052,2.052,0,0,1-1.912,2.037l-181.323,9.272a2.008,2.008,0,0,1-2.186-1.965V334.532a2.042,2.042,0,0,1,2.186-1.995l181.323,6.82a2.018,2.018,0,0,1,1.912,2.012Z" transform="translate(-451.491 -296.028)" fill="#d8dee8"/>
        <path id="Tracé_276" data-name="Tracé 276" d="M1219.325,2609.026l-36.818,2.024a3.2,3.2,0,0,1-3.567-3.049v-.134a3.645,3.645,0,0,1,3.567-3.433l36.818-1.937a3.134,3.134,0,0,1,3.463,3.011v.133A3.563,3.563,0,0,1,1219.325,2609.026Z" transform="translate(-1049.511 -2316.781)" fill="url(#linear-gradient-6)"/>
        <path id="Tracé_277" data-name="Tracé 277" d="M1366.831,320.717a1.73,1.73,0,0,1-1.884,1.654,1.9,1.9,0,0,1-1.887-1.8,1.729,1.729,0,0,1,1.887-1.653A1.9,1.9,0,0,1,1366.831,320.717Z" transform="translate(-1213.418 -283.903)" fill="url(#linear-gradient-7)"/>
        <g id="Groupe_8" data-name="Groupe 8" transform="translate(48.24 28.25)" opacity="0.3">
          <path id="Tracé_278" data-name="Tracé 278" d="M590.808,499.213c-.738-15.825,16.857-25.107,15.168-47.427-.153-2.014-1.726-19.29-15.63-31-12.486-10.516-22.981-6.56-46.091-14.947-16.2-5.882-34.409-12.491-41.764-25.751-14.624-26.332,27.166-52.633,18.613-86.721-2.45-9.771-9.371-21.737-27.649-34.245l-44.274-1.794c-5.379-.22-9.771,4.3-9.771,10.067V527.109c0,5.769,4.391,10.21,9.771,9.894l164.96-9.628C596.576,517.217,591.2,507.459,590.808,499.213Z" transform="translate(-439.41 -257.32)" fill="#fff"/>
        </g>
        <path id="Tracé_279" data-name="Tracé 279" d="M757.091,540.242,594.17,552.258l.875-246.118,162.046,3.872Z" transform="translate(-528.94 -272.531)" fill="url(#linear-gradient-8)"/>
        <path id="Tracé_280" data-name="Tracé 280" d="M767.416,448.053l-73.776-.766.065-20.507,73.743,1.366Z" transform="translate(-617.489 -379.927)" fill="#fff"/>
        <path id="Tracé_281" data-name="Tracé 281" d="M891.038,886l-23.678.255.07-25.866,23.665,0Z" transform="translate(-772.138 -765.933)" fill="#fff"/>
        <path id="Tracé_282" data-name="Tracé 282" d="M1235.427,871.773l-83.267.506.026-12.768,83.245-.071Z" transform="translate(-1025.671 -765.087)" fill="#fff"/>
        <path id="Tracé_283" data-name="Tracé 283" d="M889.773,1356.393l-23.7.774.07-25.921,23.691-.516Z" transform="translate(-770.989 -1184.637)" fill="#fff"/>
        <path id="Tracé_284" data-name="Tracé 284" d="M1234.547,1324.92l-83.357,2.26.026-12.794,83.335-1.826Z" transform="translate(-1024.808 -1168.462)" fill="#fff"/>
        <path id="Tracé_285" data-name="Tracé 285" d="M888.5,1827.768l-23.731,1.3.07-25.978,23.718-1.037Z" transform="translate(-769.832 -1604.214)" fill="#fff"/>
        <path id="Tracé_286" data-name="Tracé 286" d="M1233.657,1779.015l-83.447,4.024.026-12.823,83.425-3.586Z" transform="translate(-1023.935 -1572.682)" fill="#fff"/>
        <path id="Tracé_287" data-name="Tracé 287" d="M692.781,541.245,595,548.457l.829-246.117,60.4,1.444c-11.811,20.31-26.222,60.892,14.992,98.922C713.108,441.356,729.9,500.444,692.781,541.245Z" transform="translate(-529.678 -269.148)" fill="#fff" opacity="0.3"/>
        <path id="Tracé_288" data-name="Tracé 288" d="M809.171,185.671V415.9l-65.048,4.8-97.782,7.213.829-246.117,60.4,1.444Z" transform="translate(-575.382 -161.841)" fill="url(#linear-gradient-9)"/>
        <path id="Tracé_289" data-name="Tracé 289" d="M744.1,420.705l-97.782,7.212.831-246.117,60.4,1.449c-11.811,20.31-26.222,60.885,14.992,98.915C764.431,320.815,781.223,379.9,744.1,420.705Z" transform="translate(-575.364 -161.841)" fill="#fff" opacity="0.5"/>
        <path id="Tracé_290" data-name="Tracé 290" d="M820.395,323.7l-73.775-.765.065-20.508,73.742,1.366Z" transform="translate(-664.653 -269.228)" opacity="0.6" fill="url(#linear-gradient-10)"/>
        <path id="Tracé_291" data-name="Tracé 291" d="M959.147,777.2l-23.677.254.07-25.865,23.664,0Z" transform="translate(-832.77 -669.078)" opacity="0.6" fill="url(#linear-gradient-10)"/>
        <path id="Tracé_292" data-name="Tracé 292" d="M1303.537,762.964l-83.267.5.026-12.768,83.245-.071Z" transform="translate(-1086.304 -668.223)" fill="#fff" opacity="0.5"/>
        <path id="Tracé_293" data-name="Tracé 293" d="M957.875,1247.584l-23.7.774.071-25.921,23.69-.517Z" transform="translate(-831.613 -1087.773)" opacity="0.6" fill="url(#linear-gradient-10)"/>
        <path id="Tracé_294" data-name="Tracé 294" d="M1302.647,1216.12l-83.357,2.26.026-12.8,83.335-1.825Z" transform="translate(-1085.432 -1071.606)" fill="#fff" opacity="0.5"/>
        <path id="Tracé_295" data-name="Tracé 295" d="M956.6,1718.959l-23.732,1.3.071-25.978,23.718-1.037Z" transform="translate(-830.456 -1507.349)" opacity="0.6" fill="url(#linear-gradient-10)"/>
        <path id="Tracé_296" data-name="Tracé 296" d="M1301.767,1670.215l-83.447,4.024.026-12.823,83.425-3.585Z" transform="translate(-1084.568 -1475.827)" fill="#fff" opacity="0.5"/>
        <path id="Tracé_297" data-name="Tracé 297" d="M1418.133,2695.651a13.871,13.871,0,0,0-1.192-11.691l-161.871,16.508,1.192,11.691Z" transform="translate(-1117.283 -2389.304)" fill="url(#linear-gradient-14)"/>
        <path id="Tracé_298" data-name="Tracé 298" d="M1421.388,2715.7a13.321,13.321,0,0,1,.465,4.391l-162.994,16.626-.449-4.391Z" transform="translate(-1120.257 -2417.56)" fill="url(#linear-gradient-15)"/>
        <path id="Tracé_299" data-name="Tracé 299" d="M961.405,2846.021a10.964,10.964,0,0,0-1.192-11.691l-36.085,9.2a.389.389,0,0,0,.078.76Z" transform="translate(-822.426 -2523.166)" fill="url(#linear-gradient-16)"/>
        <path id="Tracé_300" data-name="Tracé 300" d="M924.128,2889.138l14.027-3.578a10.262,10.262,0,0,1,.517,5.01l-14.466-.673a.389.389,0,0,1-.078-.76Z" transform="translate(-822.426 -2568.771)" fill="url(#linear-gradient-17)"/>
        <path id="Tracé_301" data-name="Tracé 301" d="M199.373,1979.886c4.028,2.044,9.087.167,11.3-4.194s.743-9.551-3.284-11.6a6.718,6.718,0,0,0-.635-.28,51.219,51.219,0,0,0,1.691-7.278,6.5,6.5,0,0,0,.7-.025,9.264,9.264,0,0,0,8.145-9.43,7.844,7.844,0,0,0-8.493-7.946c-.24.021-.476.059-.71.1a47.038,47.038,0,0,0-1.967-6.949c.211-.124.422-.251.627-.4a9.267,9.267,0,0,0,2.807-12.141,7.847,7.847,0,0,0-11.429-2.167c-.2.142-.391.294-.577.448a41.436,41.436,0,0,0-5.1-4.758c.13-.212.257-.427.371-.653,2.214-4.361,5.107-9.124,1.048-11.1-9.389-4.583-13.418-.659-15.631,3.7a7.293,7.293,0,0,0-.309.686,41.544,41.544,0,0,0-6.851-1.309c.015-.242.026-.485.021-.731-.1-4.8,1.327-7.4-3.284-7.484-10.057-.2-13.451,4.172-13.354,8.967.005.251.026.5.051.74a46.656,46.656,0,0,0-6.77,2.513c-.11-.22-.214-.427-.338-.634a7.845,7.845,0,0,0-11.427-2.167,9.265,9.265,0,0,0-2.807,12.14c.122.2.256.392.391.578a51.278,51.278,0,0,0-4.878,5.659c-.194-.123-.392-.241-.6-.348-4.027-2.044-9.087-.167-11.3,4.194s-.744,9.551,3.283,11.6a6.643,6.643,0,0,0,.636.28,50.865,50.865,0,0,0-1.691,7.276,6.5,6.5,0,0,0-.7.025,9.267,9.267,0,0,0-8.145,9.43,7.847,7.847,0,0,0,8.494,7.947c.239-.021.475-.059.71-.1a46.778,46.778,0,0,0,1.967,6.949c-.212.124-.422.251-.628.4a9.265,9.265,0,0,0-2.806,12.14c2.381,3.95,10.262,5.787,14.192,3.033.2-.142-2.374-1.159-2.186-1.317a41.429,41.429,0,0,0,5.1,4.759c-.13.212-.256.427-.371.659-2.214,4.361-.744,9.551,3.283,11.6s9.087.167,11.3-4.194c.11-.225.213-.454.308-.685a41.437,41.437,0,0,0,6.849,1.307c-.014.243-.025.485-.021.731a7.847,7.847,0,0,0,8.494,7.947,9.264,9.264,0,0,0,8.144-9.43,7.134,7.134,0,0,0-.05-.739,46.93,46.93,0,0,0,6.771-2.513,6.99,6.99,0,0,0,.338.634,7.844,7.844,0,0,0,11.427,2.167,9.266,9.266,0,0,0,2.807-12.141c-.122-.2-.256-.391-.392-.578a51.02,51.02,0,0,0,4.878-5.659C198.967,1979.657,199.165,1979.78,199.373,1979.886Zm-50.2.637c-14.621-7.424-19.958-26.276-11.919-42.108s26.407-22.653,41.028-15.225,19.958,26.276,11.92,42.108S163.795,1987.947,149.173,1980.523Z" transform="translate(-98.069 -1688.181)" fill="url(#linear-gradient-18)"/>
        <path id="Tracé_302" data-name="Tracé 302" d="M556.717,2029.776a9.265,9.265,0,0,0,8.145-9.43,7.845,7.845,0,0,0-8.493-7.946c-.24.021-.477.059-.71.1a47.009,47.009,0,0,0-1.967-6.949c.211-.124.422-.251.627-.4,3.93-2.753,8.794-9.407,6.021-13.093-5.263-7-10.711-3.968-14.642-1.214-.2.142-.391.293-.577.448a41.434,41.434,0,0,0-5.1-4.758c.13-.213.257-.427.371-.653a9.114,9.114,0,0,0,.516-7.214q-5.694,10.023-11.221,20.14c11.665,8.55,15.379,25.391,8.087,39.752-6.178,12.169-18.459,19-30.452,18.146-.535,1.388-1.06,2.782-1.632,4.157-1.555,3.732-3.321,7.38-5.09,11.026q1.669.314,3.349.492c-.014.243-.025.485-.021.731.1,4.8,3.01,8.876,11.336,8.435,4.611-.245,5.4-5.119,5.3-9.918a7.137,7.137,0,0,0-.051-.739,46.9,46.9,0,0,0,6.771-2.513,7,7,0,0,0,.338.633c2.38,3.952,10.638,5.63,14.569,2.875s2.045-8.9-.335-12.845c-.122-.2-.256-.392-.392-.578a51.011,51.011,0,0,0,4.878-5.66c.194.122.392.242.6.347,4.028,2.045,9.087.168,11.3-4.193s.743-9.551-3.284-11.6a6.687,6.687,0,0,0-.635-.28,51.235,51.235,0,0,0,1.691-7.276C556.251,2029.8,556.482,2029.8,556.717,2029.776Z" transform="translate(-445.642 -1761.444)" fill="url(#linear-gradient-19)"/>
        <path id="Tracé_303" data-name="Tracé 303" d="M238.833,1980.375c4.027,2.045,9.086.168,11.3-4.193s.744-9.551-3.284-11.6a6.334,6.334,0,0,0-.635-.28,51.216,51.216,0,0,0,1.691-7.278,6.437,6.437,0,0,0,.7-.025,9.264,9.264,0,0,0,8.144-9.43,7.846,7.846,0,0,0-8.493-7.947c-.24.022-.475.059-.71.1a46.776,46.776,0,0,0-1.967-6.949c.212-.123.422-.251.627-.4a9.264,9.264,0,0,0,2.807-12.14,7.845,7.845,0,0,0-11.427-2.167c-.2.14-.391.293-.579.448a41.5,41.5,0,0,0-5.1-4.758c.13-.213.256-.428.371-.659,2.213-4.359.743-9.551-3.284-11.6s-9.086-.168-11.3,4.193c-.11.226-.213.456-.308.685a41.569,41.569,0,0,0-6.849-1.308c.014-.243.025-.485.021-.731a7.847,7.847,0,0,0-8.494-7.947,9.266,9.266,0,0,0-8.145,9.43,7.158,7.158,0,0,0,.052.74,46.8,46.8,0,0,0-6.771,2.512c-.1-.213-.213-.426-.338-.633a7.845,7.845,0,0,0-11.427-2.167,9.267,9.267,0,0,0-2.807,12.141c.122.2.256.392.391.579a51.039,51.039,0,0,0-4.877,5.658c-.2-.122-.393-.241-.6-.347-4.027-2.045-9.086-.167-11.3,4.193s-.744,9.551,3.284,11.6a6.5,6.5,0,0,0,.635.28,51.212,51.212,0,0,0-1.691,7.277,6.532,6.532,0,0,0-.7.025,9.265,9.265,0,0,0-8.145,9.431,7.846,7.846,0,0,0,8.493,7.947c.24-.022.476-.059.71-.1a46.779,46.779,0,0,0,1.967,6.949c-.212.123-.422.251-.627.4a9.265,9.265,0,0,0-2.807,12.14,7.845,7.845,0,0,0,11.427,2.167c.2-.141.391-.293.579-.448a41.5,41.5,0,0,0,5.1,4.758c-.13.213-.256.428-.371.659-2.213,4.359-.743,9.551,3.284,11.6s9.086.168,11.3-4.193c.11-.226.213-.456.308-.685a41.556,41.556,0,0,0,6.849,1.307c-.014.243-.025.485-.021.731a7.847,7.847,0,0,0,8.494,7.947,9.266,9.266,0,0,0,8.145-9.43,7.157,7.157,0,0,0-.052-.74,46.8,46.8,0,0,0,6.771-2.512c.11.214.22.426.338.632a7.845,7.845,0,0,0,11.427,2.168,9.267,9.267,0,0,0,2.807-12.141c-.122-.2-.256-.392-.391-.578a51.042,51.042,0,0,0,4.877-5.658C238.427,1980.15,238.625,1980.269,238.833,1980.375Zm-50.2.637c-14.621-7.424-19.959-26.276-11.92-42.108s26.407-22.647,41.028-15.224,19.959,26.276,11.92,42.108S203.253,1988.436,188.638,1981.011Z" transform="translate(-133.197 -1688.177)" fill="url(#linear-gradient-20)"/>
        <path id="Tracé_304" data-name="Tracé 304" d="M65.332,1279.837a5.567,5.567,0,0,0,5.025-9.9c-.131-.066-.265-.122-.4-.176a32,32,0,0,0,1.059-4.561,3.98,3.98,0,0,0,.439-.016,5.811,5.811,0,0,0,5.1-5.91,4.917,4.917,0,0,0-5.323-4.982c-.15.014-.3.037-.446.064A29.309,29.309,0,0,0,69.56,1250c.133-.078.265-.158.393-.248a5.8,5.8,0,0,0,1.757-7.609,4.919,4.919,0,0,0-7.163-1.358c-.126.088-.245.183-.362.281a25.982,25.982,0,0,0-3.195-2.983c.081-.133.16-.268.233-.41,1.388-2.732,3.2-5.719.659-6.96-5.884-2.873-8.409-.414-9.8,2.32-.071.142-.134.285-.193.429a26.1,26.1,0,0,0-4.294-.82c.01-.151.016-.3.013-.458-.06-3.008.832-4.635-2.058-4.691-6.3-.123-8.43,2.613-8.37,5.621a4.6,4.6,0,0,0,.032.463,29.338,29.338,0,0,0-4.243,1.574c-.066-.134-.134-.267-.212-.4A4.917,4.917,0,0,0,25.6,1233.4a5.8,5.8,0,0,0-1.757,7.609c.077.126.16.245.245.362a32.084,32.084,0,0,0-3.056,3.547c-.122-.077-.246-.151-.377-.219a5.347,5.347,0,0,0-7.083,2.628,5.349,5.349,0,0,0,2.058,7.269c.131.067.263.123.4.176a32.047,32.047,0,0,0-1.059,4.562,4.232,4.232,0,0,0-.439.015,5.807,5.807,0,0,0-5.1,5.911,4.918,4.918,0,0,0,5.323,4.981c.15-.013.3-.037.445-.064a29.446,29.446,0,0,0,1.232,4.358c-.132.077-.263.157-.393.248a5.806,5.806,0,0,0-1.759,7.608c1.492,2.477,6.431,3.623,8.893,1.9.127-.089-1.488-.727-1.37-.823a26.133,26.133,0,0,0,3.195,2.983c-.08.133-.16.268-.232.409a5.35,5.35,0,0,0,2.057,7.269,5.345,5.345,0,0,0,7.082-2.628c.072-.142.134-.285.193-.429a26,26,0,0,0,4.294.819c-.009.153-.015.3-.013.459a4.918,4.918,0,0,0,5.323,4.981,5.808,5.808,0,0,0,5.1-5.911,4.6,4.6,0,0,0-.032-.463,29.326,29.326,0,0,0,4.244-1.575c.066.134.134.268.212.4a4.918,4.918,0,0,0,7.162,1.358,5.8,5.8,0,0,0,1.757-7.609c-.076-.126-.159-.246-.245-.362a31.953,31.953,0,0,0,3.057-3.547C65.078,1279.7,65.2,1279.771,65.332,1279.837Zm-31.464.4c-9.165-4.653-12.51-16.468-7.472-26.392s16.552-14.2,25.716-9.541,12.509,16.468,7.471,26.391-16.551,14.2-25.715,9.542Z" transform="translate(-8.385 -1092.735)" fill="url(#linear-gradient-18)"/>
        <path id="Tracé_305" data-name="Tracé 305" d="M289.293,1311.1a5.811,5.811,0,0,0,5.1-5.91,4.917,4.917,0,0,0-5.323-4.982c-.15.014-.3.037-.446.064a29.276,29.276,0,0,0-1.233-4.355c.133-.078.265-.158.393-.248,2.464-1.726,5.512-5.9,3.773-8.206-3.294-4.385-6.712-2.487-9.177-.761-.126.088-.245.183-.362.281a25.981,25.981,0,0,0-3.195-2.983c.081-.133.16-.268.233-.409a5.736,5.736,0,0,0,.323-4.522q-3.568,6.283-7.033,12.625c7.31,5.357,9.639,15.919,5.069,24.921-3.872,7.62-11.566,11.9-19.086,11.366-.336.869-.665,1.743-1.024,2.605-.974,2.336-2.08,4.625-3.189,6.916q1.046.2,2.1.309c-.009.153-.015.3-.013.459.06,3.007,1.887,5.563,7.105,5.286,2.887-.154,3.384-3.209,3.323-6.216a4.6,4.6,0,0,0-.032-.463,29.34,29.34,0,0,0,4.244-1.575c.066.134.134.268.212.4,1.492,2.476,6.668,3.529,9.132,1.8s1.281-5.576-.211-8.053c-.076-.127-.159-.246-.245-.362a31.989,31.989,0,0,0,3.058-3.547c.122.077.246.151.377.22a5.567,5.567,0,0,0,5.025-9.9c-.131-.066-.265-.122-.4-.176a32,32,0,0,0,1.059-4.56C289,1311.119,289.144,1311.119,289.293,1311.1Z" transform="translate(-226.222 -1138.649)" fill="url(#linear-gradient-22)"/>
        <path id="Tracé_306" data-name="Tracé 306" d="M90.035,1280.167a5.568,5.568,0,0,0,5.026-9.9c-.132-.067-.265-.123-.4-.176a32.047,32.047,0,0,0,1.059-4.562,4.232,4.232,0,0,0,.439-.015,5.81,5.81,0,0,0,5.1-5.911,4.915,4.915,0,0,0-5.322-4.981c-.15.013-.3.037-.446.063a29.338,29.338,0,0,0-1.229-4.355c.133-.078.265-.158.393-.248a5.8,5.8,0,0,0,1.757-7.609,4.918,4.918,0,0,0-7.162-1.358c-.126.089-.245.184-.362.281a25.972,25.972,0,0,0-3.195-2.983c.081-.133.16-.268.233-.41a5.142,5.142,0,1,0-9.141-4.641c-.072.142-.134.285-.193.429a26.02,26.02,0,0,0-4.294-.819c.009-.153.016-.3.013-.459a4.918,4.918,0,0,0-5.323-4.981,5.812,5.812,0,0,0-5.1,5.911,4.6,4.6,0,0,0,.032.463,29.355,29.355,0,0,0-4.244,1.575c-.065-.135-.133-.268-.211-.4a4.918,4.918,0,0,0-7.163-1.358,5.8,5.8,0,0,0-1.757,7.609c.077.126.16.245.245.362a31.966,31.966,0,0,0-3.062,3.543c-.122-.077-.246-.151-.377-.219a5.568,5.568,0,0,0-5.026,9.9c.132.067.265.123.4.176a32.05,32.05,0,0,0-1.059,4.561,4.266,4.266,0,0,0-.439.016,5.808,5.808,0,0,0-5.1,5.911,4.927,4.927,0,0,0,5.326,4.986c.15-.013.3-.037.439-.062a29.468,29.468,0,0,0,1.233,4.355c-.133.078-.265.158-.393.248a5.8,5.8,0,0,0-1.757,7.609,4.918,4.918,0,0,0,7.162,1.358c.126-.089.245-.183.362-.281a25.982,25.982,0,0,0,3.195,2.983c-.081.133-.16.268-.233.409a5.142,5.142,0,1,0,9.141,4.641c.072-.142.134-.285.193-.429a25.994,25.994,0,0,0,4.3.819c-.009.153-.016.3-.013.459a4.918,4.918,0,0,0,5.323,4.981,5.807,5.807,0,0,0,5.1-5.911,4.6,4.6,0,0,0-.032-.463,29.326,29.326,0,0,0,4.241-1.58c.065.135.133.268.211.4a4.919,4.919,0,0,0,7.163,1.358,5.8,5.8,0,0,0,1.757-7.609c-.076-.126-.16-.245-.245-.362a31.95,31.95,0,0,0,3.057-3.543C89.781,1280.026,89.9,1280.1,90.035,1280.167Zm-31.464.4c-9.164-4.653-12.509-16.468-7.465-26.391s16.546-14.2,25.707-9.542,12.509,16.468,7.471,26.391S67.735,1285.218,58.571,1280.566Z" transform="translate(-30.374 -1092.755)" fill="url(#linear-gradient-23)"/>
      </g>
    </g>
  </g>
</svg>
