<svg id="Calque_2" data-name="Calque 2" xmlns="http://www.w3.org/2000/svg" width="3116" height="1640" viewBox="0 0 3116 1640">
  <g id="_Layer_" data-name="&lt;Layer&gt;">
    <rect id="Rectangle_62" data-name="Rectangle 62" width="3116" height="1640" fill="#fff"/>
    <path id="Tracé_307" data-name="Tracé 307" d="M434.12,1500s-301.3-323.49-51-673.72c222.12-310.74,481.09-289.5,671.09-163.4,80.92,53.71,314.23,6.62,512.81-309.57C1837.86-77.93,2776.57,183.6,2605.42,847c-82.83,321,252.07,332.71,81.43,653.63Z" fill="#ebf3fa"/>
    <path id="Tracé_308" data-name="Tracé 308" d="M1858.16,1154.94l23.11,3.8a9.879,9.879,0,0,1,4.76,2.16,8.179,8.179,0,0,1,2.72,4.2,6.412,6.412,0,0,1,.23,1.51,6.543,6.543,0,0,1-.09,1.39l-53.17,322.25c-.68,4.16-5,7-9.73,6.4l-.46-.06-23.11-3.8-.46-.09c-4.65-1-7.85-5-7.16-9.17l53.2-322.26a6.918,6.918,0,0,1,.37-1.35,7.175,7.175,0,0,1,.69-1.35,8.261,8.261,0,0,1,3.94-3.11A9.88,9.88,0,0,1,1858.16,1154.94Z" fill="#ffb93e"/>
    <path id="Tracé_309" data-name="Tracé 309" d="M1864.07,1318.45l-28.49,172.64c-.61,3.71-4.87,6.14-9.59,5.56l-.46-.06-23.11-3.8-.46-.09c-4.65-1-7.91-4.63-7.3-8.34l25-151.44C1832.09,1332.48,1849.69,1329.59,1864.07,1318.45Z" fill="#ffa412"/>
    <rect id="Rectangle_63" data-name="Rectangle 63" width="3.71" height="41.47" transform="matrix(0.163, -0.987, 0.987, 0.163, 1842.052, 1196.215)" fill="#ffa412"/>
    <rect id="Rectangle_64" data-name="Rectangle 64" width="3.721" height="41.588" transform="matrix(0.16, -0.987, 0.987, 0.16, 1839.261, 1199.528)" fill="#ffa412"/>
    <rect id="Rectangle_65" data-name="Rectangle 65" width="3.71" height="41.47" transform="translate(1837.595 1223.517) rotate(-80.63)" fill="#ffa412"/>
    <rect id="Rectangle_66" data-name="Rectangle 66" width="3.71" height="41.47" transform="translate(1833.948 1246.417) rotate(-80.63)" fill="#ffa412"/>
    <rect id="Rectangle_67" data-name="Rectangle 67" width="3.71" height="41.47" transform="translate(1829.931 1270.468) rotate(-80.63)" fill="#ffa412"/>
    <rect id="Rectangle_68" data-name="Rectangle 68" width="3.721" height="41.588" transform="matrix(0.16, -0.987, 0.987, 0.16, 1823.319, 1297.986)" fill="#ffa412"/>
    <rect id="Rectangle_69" data-name="Rectangle 69" width="3.71" height="41.47" transform="matrix(0.163, -0.987, 0.987, 0.163, 1818.016, 1341.886)" fill="#ffa412"/>
    <rect id="Rectangle_70" data-name="Rectangle 70" width="3.71" height="41.47" transform="translate(1813.083 1372.928) rotate(-80.63)" fill="#ffa412"/>
    <rect id="Rectangle_71" data-name="Rectangle 71" width="3.721" height="41.588" transform="matrix(0.16, -0.987, 0.987, 0.16, 1843.143, 1175.346)" fill="#ffa412"/>
    <rect id="Rectangle_72" data-name="Rectangle 72" width="3.71" height="41.47" transform="translate(1845.398 1176.721) rotate(-80.63)" fill="#ffa412"/>
    <rect id="Rectangle_73" data-name="Rectangle 73" width="3.721" height="41.588" transform="matrix(0.16, -0.987, 0.987, 0.16, 1845.601, 1160.049)" fill="#ffa412"/>
    <path id="Tracé_310" data-name="Tracé 310" d="M1847.59,1163.56l40.93,6.73.37-2.29a6.539,6.539,0,0,0,.09-1.39l-40.64-6.69a6.931,6.931,0,0,0-.37,1.35Z" fill="#ffa412"/>
    <path id="Tracé_311" data-name="Tracé 311" d="M1849,1158.57l39.72,6.53a8.179,8.179,0,0,0-2.72-4.2l-33.06-5.44a8.259,8.259,0,0,0-3.94,3.11Z" fill="#ffa412"/>
    <path id="Tracé_312" data-name="Tracé 312" d="M1900.09,1154.94l23.11,3.8a9.81,9.81,0,0,1,4.75,2.16,8.2,8.2,0,0,1,2.73,4.2,6.989,6.989,0,0,1,.22,1.51,6.519,6.519,0,0,1-.08,1.39l-53.17,322.25c-.69,4.16-5,7-9.74,6.4l-.45-.06-23.12-3.8-.45-.09c-4.65-1-7.85-5-7.17-9.17l53.17-322.26a7.682,7.682,0,0,1,.37-1.35,6.661,6.661,0,0,1,.7-1.35,8.191,8.191,0,0,1,3.93-3.11,9.93,9.93,0,0,1,5.2-.52Z" fill="#ffb93e"/>
    <path id="Tracé_313" data-name="Tracé 313" d="M1906,1318.45l-28.49,172.64c-.61,3.71-4.88,6.14-9.6,5.56l-.45-.06-23.12-3.8-.45-.09c-4.66-1-7.92-4.63-7.3-8.34l25-151.44C1874,1332.48,1891.61,1329.59,1906,1318.45Z" fill="#ffa412"/>
    <rect id="Rectangle_74" data-name="Rectangle 74" width="3.71" height="41.47" transform="matrix(0.163, -0.987, 0.987, 0.163, 1883.976, 1196.215)" fill="#ffa412"/>
    <rect id="Rectangle_75" data-name="Rectangle 75" width="3.71" height="41.47" transform="translate(1882.211 1208.86) rotate(-80.64)" fill="#ffa412"/>
    <rect id="Rectangle_76" data-name="Rectangle 76" width="3.71" height="41.47" transform="translate(1879.521 1223.516) rotate(-80.63)" fill="#ffa412"/>
    <rect id="Rectangle_77" data-name="Rectangle 77" width="3.71" height="41.47" transform="translate(1875.835 1246.367) rotate(-80.63)" fill="#ffa412"/>
    <rect id="Rectangle_78" data-name="Rectangle 78" width="3.71" height="41.47" transform="translate(1871.856 1270.467) rotate(-80.63)" fill="#ffa412"/>
    <rect id="Rectangle_79" data-name="Rectangle 79" width="3.71" height="41.47" transform="translate(1865.691 1307.34) rotate(-80.63)" fill="#ffa412"/>
    <rect id="Rectangle_80" data-name="Rectangle 80" width="3.71" height="41.47" transform="translate(1860.05 1341.986) rotate(-80.63)" fill="#ffa412"/>
    <rect id="Rectangle_81" data-name="Rectangle 81" width="3.71" height="41.47" transform="translate(1854.958 1372.887) rotate(-80.63)" fill="#ffa412"/>
    <rect id="Rectangle_82" data-name="Rectangle 82" width="3.71" height="41.47" transform="translate(1885.971 1184.453) rotate(-80.63)" fill="#ffa412"/>
    <rect id="Rectangle_83" data-name="Rectangle 83" width="3.71" height="41.47" transform="translate(1887.486 1176.856) rotate(-80.64)" fill="#ffa412"/>
    <rect id="Rectangle_84" data-name="Rectangle 84" width="3.71" height="41.47" transform="translate(1888.647 1169.268) rotate(-80.64)" fill="#ffa412"/>
    <path id="Tracé_314" data-name="Tracé 314" d="M1889.52,1163.56l40.92,6.73.38-2.29a6.535,6.535,0,0,0,.08-1.39l-40.64-6.69a7.7,7.7,0,0,0-.37,1.35Z" fill="#ffa412"/>
    <path id="Tracé_315" data-name="Tracé 315" d="M1891,1158.57l39.72,6.53a8.2,8.2,0,0,0-2.73-4.2l-33.06-5.44a8.19,8.19,0,0,0-3.93,3.11Z" fill="#ffa412"/>
    <path id="Tracé_316" data-name="Tracé 316" d="M1746.76,1464.31v23.42a9.809,9.809,0,0,1-1.36,5,8.331,8.331,0,0,1-3.72,3.37,6.614,6.614,0,0,1-1.45.46,6.983,6.983,0,0,1-1.39.14l-326.61-.78c-4.21,0-7.67-3.83-7.87-8.58v-24.35c.22-4.75,3.7-8.55,7.91-8.54l326.61.78a7.125,7.125,0,0,1,1.39.14,6.561,6.561,0,0,1,1.44.47,8.24,8.24,0,0,1,3.71,3.39A9.8,9.8,0,0,1,1746.76,1464.31Z" fill="#ffb93e"/>
    <path id="Tracé_317" data-name="Tracé 317" d="M1586.32,1496.38l-175-.42c-3.76,0-6.85-3.83-7-8.58v-24.35c.2-4.75,3.3-8.55,7.06-8.54l153.49.36C1567.34,1467.07,1573,1484,1586.32,1496.38Z" fill="#ffa412"/>
    <rect id="Rectangle_85" data-name="Rectangle 85" width="41.47" height="3.71" transform="translate(1699.25 1493.15) rotate(-90)" fill="#ffa412"/>
    <rect id="Rectangle_86" data-name="Rectangle 86" width="41.47" height="3.71" transform="translate(1686.72 1493.13) rotate(-90)" fill="#ffa412"/>
    <rect id="Rectangle_87" data-name="Rectangle 87" width="41.47" height="3.71" transform="translate(1675.571 1496.552) rotate(-89.85)" fill="#ffa412"/>
    <rect id="Rectangle_88" data-name="Rectangle 88" width="41.47" height="3.71" transform="translate(1652.398 1496.416) rotate(-89.87)" fill="#ffa412"/>
    <rect id="Rectangle_89" data-name="Rectangle 89" width="41.47" height="3.71" transform="translate(1624.27 1492.98) rotate(-90)" fill="#ffa412"/>
    <rect id="Rectangle_90" data-name="Rectangle 90" width="41.47" height="3.71" transform="translate(1586.92 1492.89) rotate(-90)" fill="#ffa412"/>
    <rect id="Rectangle_91" data-name="Rectangle 91" width="41.47" height="3.71" transform="translate(1555.7 1496.406) rotate(-89.86)" fill="#ffa412"/>
    <rect id="Rectangle_92" data-name="Rectangle 92" width="41.47" height="3.71" transform="translate(1524.284 1496.231) rotate(-89.85)" fill="#ffa412"/>
    <rect id="Rectangle_93" data-name="Rectangle 93" width="41.47" height="3.71" transform="translate(1715.329 1496.777) rotate(-89.86)" fill="#ffa412"/>
    <rect id="Rectangle_94" data-name="Rectangle 94" width="41.47" height="3.71" transform="translate(1723.082 1496.681) rotate(-89.88)" fill="#ffa412"/>
    <rect id="Rectangle_95" data-name="Rectangle 95" width="41.47" height="3.71" transform="translate(1726.67 1493.22) rotate(-90)" fill="#ffa412"/>
    <path id="Tracé_318" data-name="Tracé 318" d="M1736.56,1455.26l-.08,41.47h2.32a7,7,0,0,0,1.39-.14l.08-41.19a7.108,7.108,0,0,0-1.39-.14Z" fill="#ffa412"/>
    <path id="Tracé_319" data-name="Tracé 319" d="M1741.71,1455.88l-.07,40.26a8.328,8.328,0,0,0,3.72-3.37l.06-33.5a8.239,8.239,0,0,0-3.71-3.39Z" fill="#ffa412"/>
    <path id="Tracé_320" data-name="Tracé 320" d="M1711.92,1422.75v23.42a9.91,9.91,0,0,1-1.37,5,8.19,8.19,0,0,1-3.71,3.37,6.8,6.8,0,0,1-1.45.46,7.127,7.127,0,0,1-1.39.14l-326.61-.77c-4.21,0-7.67-3.83-7.88-8.58v-24.35c.22-4.75,3.69-8.56,7.9-8.55l326.61.78h1.4a6.715,6.715,0,0,1,1.44.46l.21.1.2.1.39.22.23.15a1.372,1.372,0,0,1,.2.13l.37.27.41.35.3.28h0l.2.21c.2.21.39.44.57.67l.16.21.15.22.29.46A9.86,9.86,0,0,1,1711.92,1422.75Z" fill="#ffb93e"/>
    <path id="Tracé_321" data-name="Tracé 321" d="M1551.48,1454.82l-175-.41c-3.76,0-6.85-3.83-7-8.58v-24.35c.2-4.75,3.3-8.56,7.06-8.55l153.48.37q.11.5.21,1C1532.82,1426.44,1538.54,1442.75,1551.48,1454.82Z" fill="#ffa412"/>
    <rect id="Rectangle_96" data-name="Rectangle 96" width="41.47" height="3.71" transform="translate(1668.275 1454.992) rotate(-89.87)" fill="#ffa412"/>
    <rect id="Rectangle_97" data-name="Rectangle 97" width="41.47" height="3.71" transform="translate(1655.706 1454.952) rotate(-89.87)" fill="#ffa412"/>
    <rect id="Rectangle_98" data-name="Rectangle 98" width="41.47" height="3.71" transform="translate(1636.91 1451.63) rotate(-90)" fill="#ffa412"/>
    <rect id="Rectangle_99" data-name="Rectangle 99" width="41.47" height="3.71" transform="translate(1613.88 1451.58) rotate(-90)" fill="#ffa412"/>
    <rect id="Rectangle_100" data-name="Rectangle 100" width="41.47" height="3.71" transform="translate(1593.23 1454.904) rotate(-89.88)" fill="#ffa412"/>
    <rect id="Rectangle_101" data-name="Rectangle 101" width="41.47" height="3.71" transform="translate(1555.807 1454.833) rotate(-89.85)" fill="#ffa412"/>
    <rect id="Rectangle_102" data-name="Rectangle 102" width="41.47" height="3.71" transform="translate(1517.18 1451.35) rotate(-90)" fill="#ffa412"/>
    <rect id="Rectangle_103" data-name="Rectangle 103" width="41.47" height="3.71" transform="translate(1489.423 1454.663) rotate(-89.88)" fill="#ffa412"/>
    <rect id="Rectangle_104" data-name="Rectangle 104" width="41.47" height="3.71" transform="translate(1680.232 1455.022) rotate(-89.87)" fill="#ffa412"/>
    <rect id="Rectangle_105" data-name="Rectangle 105" width="41.47" height="3.71" transform="translate(1688.373 1455.245) rotate(-89.86)" fill="#ffa412"/>
    <rect id="Rectangle_106" data-name="Rectangle 106" width="41.47" height="3.71" transform="translate(1691.92 1451.77) rotate(-90)" fill="#ffa412"/>
    <path id="Tracé_322" data-name="Tracé 322" d="M1701.71,1413.7l-.07,41.48H1704a7.135,7.135,0,0,0,1.39-.14l.07-41.18a6.375,6.375,0,0,0-1.39-.15Z" fill="#ffa412"/>
    <path id="Tracé_323" data-name="Tracé 323" d="M1706.87,1414.32l-.07,40.26a8.249,8.249,0,0,0,3.71-3.37l.06-33.5A8.28,8.28,0,0,0,1706.87,1414.32Z" fill="#ffa412"/>
    <path id="Tracé_324" data-name="Tracé 324" d="M1728.87,1382.34v23.42a9.811,9.811,0,0,1-1.36,5,8.191,8.191,0,0,1-3.71,3.37,6.79,6.79,0,0,1-1.45.46,7.234,7.234,0,0,1-1.4.14l-326.6-.77a7.1,7.1,0,0,1-3.64-1,9.13,9.13,0,0,1-4.21-7.14,2.8,2.8,0,0,1,0-.4v-24.35c.23-4.75,3.7-8.56,7.91-8.55l326.61.78a6.375,6.375,0,0,1,1.39.15,6.623,6.623,0,0,1,1.45.46,8.33,8.33,0,0,1,3.7,3.39,10,10,0,0,1,1.31,5.04Z" fill="#ffb93e"/>
    <path id="Tracé_325" data-name="Tracé 325" d="M1568.43,1414.41l-175-.41a5.84,5.84,0,0,1-3.25-1,9.35,9.35,0,0,1-3.75-7.14,2.806,2.806,0,0,1,0-.4c0-.16,0-.31,0-.47v-23.88c.2-4.75,3.31-8.56,7.07-8.55l153.48.37c2.37,11.88,7.81,28.19,20.34,40.49C1567.71,1413.73,1568.06,1414.07,1568.43,1414.41Z" fill="#ffa412"/>
    <path id="Tracé_326" data-name="Tracé 326" d="M1736.76,1340.89v23.42a9.809,9.809,0,0,1-1.36,5,8.2,8.2,0,0,1-3.72,3.36,6.562,6.562,0,0,1-1.44.47,7.217,7.217,0,0,1-1.4.14l-326.6-.78c-4.21,0-7.68-3.83-7.88-8.58v-24.35c.21-4.39,3.2-8,7-8.48a7.013,7.013,0,0,1,.93-.06l326.61.77a7.011,7.011,0,0,1,1.39.15,6.815,6.815,0,0,1,1.45.47,8.269,8.269,0,0,1,3.7,3.39,9.8,9.8,0,0,1,1.32,5.08Z" fill="#ffb93e"/>
    <path id="Tracé_327" data-name="Tracé 327" d="M1576.33,1373l-175-.42c-3.76,0-6.85-3.83-7-8.58v-24.35c.18-4.39,2.86-8,6.23-8.48a4.574,4.574,0,0,1,.83-.06l153.49.36a.166.166,0,0,1,0,.07C1557.36,1343.7,1563.05,1360.56,1576.33,1373Z" fill="#ffa412"/>
    <path id="Tracé_328" data-name="Tracé 328" d="M1712.83,1299.42v23.42a9.911,9.911,0,0,1-1.37,5,8.31,8.31,0,0,1-3.71,3.37,6.789,6.789,0,0,1-1.45.46l-.46.08h-.93l-326.61-.77c-4.21,0-7.67-3.83-7.88-8.58v-.47l.05-23.42v-.84a8.8,8.8,0,0,1,5.94-7.89l.24-.07a6.9,6.9,0,0,1,1.71-.21l326.6.78h1.02a2.313,2.313,0,0,1,.36.07,6.626,6.626,0,0,1,1.45.46,8.282,8.282,0,0,1,3.7,3.39A9.828,9.828,0,0,1,1712.83,1299.42Z" fill="#ffb93e"/>
    <path id="Tracé_329" data-name="Tracé 329" d="M1552.39,1331.49l-175-.42c-3.75,0-6.84-3.82-7-8.57v-.47l.05-23.42v-.84c.29-3.91,2.55-7.11,5.49-8l.3-.08a5.7,5.7,0,0,1,1.25-.14L1531,1290a1.6,1.6,0,0,0,.06.3c2.45,12.17,8.13,28.86,21.28,41.16Z" fill="#ffa412"/>
    <path id="Tracé_330" data-name="Tracé 330" d="M1712.22,1258.24v23.42a9.809,9.809,0,0,1-1.36,5,8.31,8.31,0,0,1-3.71,3.37,7.991,7.991,0,0,1-1.13.39h0l-.31.07a7.128,7.128,0,0,1-1.39.14l-326.61-.77a6.78,6.78,0,0,1-1-.09,2.444,2.444,0,0,1-.39-.07c-3.55-.74-6.29-4.22-6.47-8.43v-24.34c.23-4.76,3.7-8.56,7.91-8.55l326.61.78h1.39a6.617,6.617,0,0,1,1.45.46l.21.1.2.1.39.22.43.28a3.17,3.17,0,0,1,.37.27,4.5,4.5,0,0,1,.41.35,3.83,3.83,0,0,1,.3.28h0l.2.2c.2.22.39.45.57.68l.16.21.15.22c.1.15.2.3.29.46a9.831,9.831,0,0,1,1.33,5.25Z" fill="#ffb93e"/>
    <path id="Tracé_331" data-name="Tracé 331" d="M1551.78,1290.31l-175-.42h-.41a3.247,3.247,0,0,1-.45-.06c-3.37-.54-6-4.12-6.17-8.51v-24.34c.21-4.76,3.31-8.56,7.07-8.55l153.48.36.21,1c2.52,12,8.18,28.16,20.89,40.2Z" fill="#ffa412"/>
    <path id="Tracé_332" data-name="Tracé 332" d="M1729.17,1217.83l-.05,23.42a9.808,9.808,0,0,1-1.36,5,8.28,8.28,0,0,1-3.72,3.37,6.532,6.532,0,0,1-1.44.46,7.226,7.226,0,0,1-1.4.14l-326.6-.78a7,7,0,0,1-3.64-1,9.17,9.17,0,0,1-4.22-7.14v-24.76c.23-4.75,3.7-8.55,7.91-8.54l326.61.78a7,7,0,0,1,1.39.14,7.227,7.227,0,0,1,1.45.47,8.269,8.269,0,0,1,3.7,3.39A9.929,9.929,0,0,1,1729.17,1217.83Z" fill="#ffb93e"/>
    <path id="Tracé_333" data-name="Tracé 333" d="M1568.72,1249.9l-175-.42a5.75,5.75,0,0,1-3.25-1,9.41,9.41,0,0,1-3.76-7.14v-24.76c.2-4.75,3.31-8.55,7.06-8.54l153.49.36c2.37,11.88,7.81,28.2,20.34,40.5Z" fill="#ffa412"/>
    <path id="Tracé_334" data-name="Tracé 334" d="M1755.93,1176.42v23.42a10,10,0,0,1-1.36,5,8.329,8.329,0,0,1-3.72,3.37,6.618,6.618,0,0,1-1.45.46,6.984,6.984,0,0,1-1.39.14l-326.61-.78c-4.21,0-7.67-3.83-7.88-8.58v-24.34c.2-4.39,3.19-8,7-8.48a7.31,7.31,0,0,1,.94-.06l326.6.78a7.219,7.219,0,0,1,1.4.14,7.147,7.147,0,0,1,1.44.47,8.24,8.24,0,0,1,3.71,3.39A9.919,9.919,0,0,1,1755.93,1176.42Z" fill="#ffb93e"/>
    <path id="Tracé_335" data-name="Tracé 335" d="M1595.49,1208.49l-175-.42c-3.75,0-6.84-3.83-7-8.58v-24.38c.18-4.39,2.85-8,6.23-8.48a5.67,5.67,0,0,1,.83-.06l153.49.36v.07C1576.53,1179.24,1582.21,1196.1,1595.49,1208.49Z" fill="#ffa412"/>
    <path id="Tracé_336" data-name="Tracé 336" d="M1713.13,1134.91l-.05,23.42a9.808,9.808,0,0,1-1.36,5,8.309,8.309,0,0,1-3.71,3.37,6.8,6.8,0,0,1-1.45.46l-.46.08h-.93l-326.61-.78c-4.21,0-7.67-3.83-7.88-8.58v-24.35c.23-4.75,3.7-8.55,7.91-8.54l326.61.78h.42a7.554,7.554,0,0,1,1,.13,6.643,6.643,0,0,1,1.45.47,6.209,6.209,0,0,1,.68.35c.14.08.28.16.41.25h0c.14.09.27.19.4.29a.178.178,0,0,1,.07,0l.35.29a6.472,6.472,0,0,1,.78.79,2.832,2.832,0,0,1,.23.26h0l.13.17h0c.08.1.15.21.23.33s.21.32.31.49A9.8,9.8,0,0,1,1713.13,1134.91Z" fill="#ffb93e"/>
    <path id="Tracé_337" data-name="Tracé 337" d="M1552.69,1167l-175-.42c-3.75,0-6.85-3.83-7-8.58v-24.35c.21-4.75,3.31-8.55,7.07-8.54l153.48.36c.07.32.13.64.2,1,2.53,12.11,8.24,28.42,21.15,40.5Z" fill="#ffa412"/>
    <path id="Tracé_338" data-name="Tracé 338" d="M1737.21,1094.45v23.42a9.81,9.81,0,0,1-1.36,5,8.28,8.28,0,0,1-3.72,3.37,6.708,6.708,0,0,1-1.44.46,7.233,7.233,0,0,1-1.4.14l-326.6-.77a7.159,7.159,0,0,1-3.53-1,9.14,9.14,0,0,1-4.33-7.25v-24.71c.21-4.4,3.2-8,7-8.48a5.649,5.649,0,0,1,.93-.07l326.61.78a7.105,7.105,0,0,1,1.39.14,7.444,7.444,0,0,1,1.45.47,8.331,8.331,0,0,1,3.7,3.39,9.821,9.821,0,0,1,1.3,5.11Z" fill="#ffb93e"/>
    <path id="Tracé_339" data-name="Tracé 339" d="M1576.77,1126.52l-175-.42a5.8,5.8,0,0,1-3.15-1,9.35,9.35,0,0,1-3.86-7.25v-24.71c.18-4.39,2.85-8,6.23-8.49a5.671,5.671,0,0,1,.83-.06l153.49.36a.168.168,0,0,1,0,.07c2.38,11.9,7.84,28.21,20.4,40.5Z" fill="#ffa412"/>
    <path id="Tracé_340" data-name="Tracé 340" d="M1713.28,1053v23.42a9.8,9.8,0,0,1-1.36,5,8.191,8.191,0,0,1-3.71,3.37,6.271,6.271,0,0,1-1.45.46l-.46.08h-.94l-326.6-.78c-4.21,0-7.67-3.83-7.88-8.58v-24.35c.23-4.75,3.7-8.55,7.91-8.54l326.61.77a6.375,6.375,0,0,1,1.39.15,6.644,6.644,0,0,1,1.45.47,8.25,8.25,0,0,1,3.7,3.38,9.87,9.87,0,0,1,1.34,5.15Z" fill="#ffb93e"/>
    <path id="Tracé_341" data-name="Tracé 341" d="M1552.84,1085.05l-175-.41c-3.76,0-6.85-3.83-7-8.58v-24.35c.21-4.75,3.31-8.55,7.07-8.55l153.48.37c2.43,12.19,8.09,29,21.35,41.46Z" fill="#ffa412"/>
    <rect id="Rectangle_107" data-name="Rectangle 107" width="41.47" height="3.71" transform="translate(1685.456 1414.777) rotate(-89.86)" fill="#ffa412"/>
    <rect id="Rectangle_108" data-name="Rectangle 108" width="41.47" height="3.71" transform="translate(1672.767 1414.629) rotate(-89.88)" fill="#ffa412"/>
    <rect id="Rectangle_109" data-name="Rectangle 109" width="41.47" height="3.71" transform="translate(1657.645 1414.559) rotate(-89.88)" fill="#ffa412"/>
    <rect id="Rectangle_110" data-name="Rectangle 110" width="41.47" height="3.71" transform="translate(1634.733 1414.656) rotate(-89.86)" fill="#ffa412"/>
    <rect id="Rectangle_111" data-name="Rectangle 111" width="41.47" height="3.71" transform="translate(1610.303 1414.596) rotate(-89.86)" fill="#ffa412"/>
    <rect id="Rectangle_112" data-name="Rectangle 112" width="41.47" height="3.71" transform="translate(1572.851 1414.516) rotate(-89.86)" fill="#ffa412"/>
    <rect id="Rectangle_113" data-name="Rectangle 113" width="41.47" height="3.71" transform="translate(1537.684 1414.319) rotate(-89.88)" fill="#ffa412"/>
    <rect id="Rectangle_114" data-name="Rectangle 114" width="41.47" height="3.71" transform="translate(1506.5 1414.356) rotate(-89.86)" fill="#ffa412"/>
    <rect id="Rectangle_115" data-name="Rectangle 115" width="41.47" height="3.71" transform="translate(1693.33 1411.41) rotate(-90)" fill="#ffa412"/>
    <rect id="Rectangle_116" data-name="Rectangle 116" width="41.47" height="3.71" transform="translate(1705.195 1414.719) rotate(-89.88)" fill="#ffa412"/>
    <rect id="Rectangle_117" data-name="Rectangle 117" width="41.47" height="3.71" transform="translate(1708.82 1411.45) rotate(-90)" fill="#ffa412"/>
    <path id="Tracé_342" data-name="Tracé 342" d="M1718.66,1373.29l-.07,41.48h2.32a7.192,7.192,0,0,0,1.39-.14l.07-41.18a6.375,6.375,0,0,0-1.39-.15Z" fill="#ffa412"/>
    <path id="Tracé_343" data-name="Tracé 343" d="M1723.82,1373.91l-.07,40.26a8.31,8.31,0,0,0,3.71-3.37l.06-33.5a8.27,8.27,0,0,0-3.7-3.39Z" fill="#ffa412"/>
    <rect id="Rectangle_118" data-name="Rectangle 118" width="41.47" height="3.71" transform="translate(1576.95 1369.76) rotate(-90)" fill="#ffa412"/>
    <rect id="Rectangle_119" data-name="Rectangle 119" width="41.47" height="3.71" transform="translate(1545.476 1372.775) rotate(-89.87)" fill="#ffa412"/>
    <rect id="Rectangle_120" data-name="Rectangle 120" width="41.47" height="3.71" transform="translate(1514.389 1372.905) rotate(-89.86)" fill="#ffa412"/>
    <path id="Tracé_344" data-name="Tracé 344" d="M1708.92,1373.27l.08-41.47h-3.26l.52-.08.08-41.19c-.23,0-.46-.08-.69-.1l.07-40.19h1.45l-.07,39.84a8.311,8.311,0,0,0,3.71-3.37l.06-33.5a8.452,8.452,0,0,0-2.94-3h1.3l.07-41.47h-3.71l-.07,40.56a6.662,6.662,0,0,0-1.19-.11H1702l-.07,41.48h.68l-.07,41.17h2.74l-.08,41.43Z" fill="#ffa412"/>
    <rect id="Rectangle_121" data-name="Rectangle 121" width="41.47" height="3.71" transform="translate(1713.224 1373.366) rotate(-89.86)" fill="#ffa412"/>
    <rect id="Rectangle_122" data-name="Rectangle 122" width="41.47" height="3.71" transform="translate(1716.29 1369.76) rotate(-90)" fill="#ffa412"/>
    <path id="Tracé_345" data-name="Tracé 345" d="M1726.56,1331.84l-.08,41.47h2.32a6.521,6.521,0,0,0,1.4-.15l.07-41.18a6.373,6.373,0,0,0-1.39-.15Z" fill="#ffa412"/>
    <path id="Tracé_346" data-name="Tracé 346" d="M1731.72,1332.46l-.08,40.25a8.17,8.17,0,0,0,3.72-3.37l.06-33.5A8.31,8.31,0,0,0,1731.72,1332.46Z" fill="#ffa412"/>
    <path id="Tracé_347" data-name="Tracé 347" d="M1673.03,1331.78l.07-41.48h-.68l.07-41.18-3.71-.01-.08,41.48h.69l-.07,41.11-3.63-.01-.07,41.48h3.71l.07-41.4Z" fill="#ffa412"/>
    <path id="Tracé_348" data-name="Tracé 348" d="M1645.47,1290.24l-.69-.01.08-41.17-3.71-.01-.08,41.47h.69l-.08,41.18h.92l-.08,41.41,3.71.01.08-41.47-.92-.01Z" fill="#ffa412"/>
    <path id="Tracé_349" data-name="Tracé 349" d="M1707.78,1291l-.07,40.26a8.311,8.311,0,0,0,3.71-3.37l.06-33.5a8.221,8.221,0,0,0-3.7-3.39Z" fill="#ffa412"/>
    <path id="Tracé_350" data-name="Tracé 350" d="M1621.76,1249l-3.71-.01-.08,41.48h.69l-.07,41.11h-.42l-.07,41.47,3.71.01.08-41.41h.41l.07-41.47h-.68Z" fill="#ffa412"/>
    <path id="Tracé_351" data-name="Tracé 351" d="M1597.34,1248.94l-3.71-.01-.08,41.48h.69l-.08,41.18,3.71.01.08-41.48h-.69Z" fill="#ffa412"/>
    <path id="Tracé_352" data-name="Tracé 352" d="M1559.9,1248.86l-3.72-.01-.07,41.47h.68l-.07,41.18,3.71.01.08-41.48h-.69Z" fill="#ffa412"/>
    <path id="Tracé_353" data-name="Tracé 353" d="M1524.84,1248.77l-3.71-.01-.08,41.48h.69l-.08,41.18h3.72l.07-41.47h-.69Z" fill="#ffa412"/>
    <path id="Tracé_354" data-name="Tracé 354" d="M1493.53,1248.7l-3.71-.01-.07,41.47h.68l-.07,41.18,3.71.01.08-41.47h-.69Z" fill="#ffa412"/>
    <path id="Tracé_355" data-name="Tracé 355" d="M1684.45,1249.15l-3.71-.01-.08,41.48h.69l-.07,41.11h-.52l-.08,41.47,3.72.01.07-41.41h.52l.07-41.47h-.68Z" fill="#ffa412"/>
    <path id="Tracé_356" data-name="Tracé 356" d="M1692.35,1249.17l-2.98-.01.07-40.45-3.71-.01-.08,41.48h2.99l-.07,40.45.68.01-.07,41.17,3.71.01.07-41.47h-.68Z" fill="#ffa412"/>
    <rect id="Rectangle_123" data-name="Rectangle 123" width="41.47" height="3.71" transform="translate(1673.196 1250.235) rotate(-89.86)" fill="#ffa412"/>
    <path id="Tracé_357" data-name="Tracé 357" d="M1658.02,1249.09h-1.81l-.07,41.47h.68l-.07,41.18,3.71.01.08-41.48h-.69l.07-40.15h1.81l.08-41.47-3.71-.01Z" fill="#ffa412"/>
    <rect id="Rectangle_124" data-name="Rectangle 124" width="41.47" height="3.71" transform="translate(1634.874 1250.026) rotate(-89.85)" fill="#ffa412"/>
    <rect id="Rectangle_125" data-name="Rectangle 125" width="41.47" height="3.71" transform="translate(1610.604 1250.075) rotate(-89.86)" fill="#ffa412"/>
    <rect id="Rectangle_126" data-name="Rectangle 126" width="41.47" height="3.71" transform="translate(1572.928 1249.816) rotate(-89.87)" fill="#ffa412"/>
    <rect id="Rectangle_127" data-name="Rectangle 127" width="41.47" height="3.71" transform="translate(1537.935 1249.775) rotate(-89.88)" fill="#ffa412"/>
    <rect id="Rectangle_128" data-name="Rectangle 128" width="41.47" height="3.71" transform="translate(1506.79 1249.834) rotate(-89.86)" fill="#ffa412"/>
    <path id="Tracé_358" data-name="Tracé 358" d="M1697.61,1249.18h-1.34l-.08,41.47h.69l-.07,41.12-3.48-.01-.08,41.47,3.71.01.08-41.41,3.48.01.08-41.47h-.69l.07-40.16h1.34l.08-41.47-3.71-.01Z" fill="#ffa412"/>
    <rect id="Rectangle_129" data-name="Rectangle 129" width="41.47" height="3.71" transform="translate(1709.12 1247.33) rotate(-90)" fill="#ffa412"/>
    <path id="Tracé_359" data-name="Tracé 359" d="M1722.6,1250.12l.07-41.18a6.373,6.373,0,0,0-1.39-.15H1719l-.08,41.47h2.33a7.184,7.184,0,0,0,1.35-.14Z" fill="#ffa412"/>
    <path id="Tracé_360" data-name="Tracé 360" d="M1727.76,1246.29l.06-33.5a8.329,8.329,0,0,0-3.7-3.39l-.08,40.26a8.28,8.28,0,0,0,3.72-3.37Z" fill="#ffa412"/>
    <rect id="Rectangle_130" data-name="Rectangle 130" width="41.47" height="3.71" transform="translate(1712.532 1208.844) rotate(-89.86)" fill="#ffa412"/>
    <rect id="Rectangle_131" data-name="Rectangle 131" width="41.47" height="3.71" transform="translate(1657.79 1205.83) rotate(-90)" fill="#ffa412"/>
    <rect id="Rectangle_132" data-name="Rectangle 132" width="41.47" height="3.71" transform="translate(1637.369 1208.674) rotate(-89.86)" fill="#ffa412"/>
    <rect id="Rectangle_133" data-name="Rectangle 133" width="41.47" height="3.71" transform="translate(1599.928 1208.574) rotate(-89.86)" fill="#ffa412"/>
    <rect id="Rectangle_134" data-name="Rectangle 134" width="41.47" height="3.71" transform="translate(1564.872 1208.493) rotate(-89.86)" fill="#ffa412"/>
    <rect id="Rectangle_135" data-name="Rectangle 135" width="41.47" height="3.71" transform="translate(1533.436 1208.328) rotate(-89.88)" fill="#ffa412"/>
    <rect id="Rectangle_136" data-name="Rectangle 136" width="41.47" height="3.71" transform="translate(1724.491 1208.874) rotate(-89.86)" fill="#ffa412"/>
    <rect id="Rectangle_137" data-name="Rectangle 137" width="41.47" height="3.71" transform="translate(1728.22 1206) rotate(-90)" fill="#ffa412"/>
    <rect id="Rectangle_138" data-name="Rectangle 138" width="41.47" height="3.71" transform="translate(1739.777 1208.733) rotate(-89.87)" fill="#ffa412"/>
    <path id="Tracé_361" data-name="Tracé 361" d="M1745.73,1167.37l-.08,41.47H1748a7.228,7.228,0,0,0,1.4-.14l.07-41.19a7.108,7.108,0,0,0-1.39-.14Z" fill="#ffa412"/>
    <path id="Tracé_362" data-name="Tracé 362" d="M1750.88,1168l-.07,40.26a8.279,8.279,0,0,0,3.72-3.37l.06-33.5A8.24,8.24,0,0,0,1750.88,1168Z" fill="#ffa412"/>
    <path id="Tracé_363" data-name="Tracé 363" d="M1669.61,1167.26l3.72.01.07-41.48-3.62-.01.07-40.45,3.62.01.08-41.47-3.71-.01-.08,41.41-3.62-.01-.07,41.47,3.62.01Z" fill="#ffa412"/>
    <rect id="Rectangle_139" data-name="Rectangle 139" width="41.47" height="3.71" transform="translate(1657.002 1167.189) rotate(-89.85)" fill="#ffa412"/>
    <rect id="Rectangle_140" data-name="Rectangle 140" width="41.47" height="3.71" transform="translate(1594.564 1167.153) rotate(-89.86)" fill="#ffa412"/>
    <rect id="Rectangle_141" data-name="Rectangle 141" width="41.47" height="3.71" transform="translate(1556.892 1166.898) rotate(-89.87)" fill="#ffa412"/>
    <rect id="Rectangle_142" data-name="Rectangle 142" width="41.47" height="3.71" transform="translate(1518.39 1164.19) rotate(-90)" fill="#ffa412"/>
    <rect id="Rectangle_143" data-name="Rectangle 143" width="41.47" height="3.71" transform="translate(1490.541 1166.747) rotate(-89.87)" fill="#ffa412"/>
    <path id="Tracé_364" data-name="Tracé 364" d="M1681.58,1167.28l3.28.01-.07,41.41,3.71.01.07-41.47-3.28-.01.07-41.41h-.51l.07-40.45h.51l.08-41.47-3.71-.01-.08,41.41-.51-.01-.08,41.48h.52Z" fill="#ffa412"/>
    <rect id="Rectangle_144" data-name="Rectangle 144" width="41.47" height="3.71" transform="translate(1689.628 1167.398) rotate(-89.89)" fill="#ffa412"/>
    <path id="Tracé_365" data-name="Tracé 365" d="M1708.72,1126.83h.65l.08-41.47h-3.26a4.321,4.321,0,0,0,.52-.08l.07-41.18a6.381,6.381,0,0,0-1.39-.15h-2.32l-.07,41.47h2.31a3.012,3.012,0,0,0,.43,0l-.08,40.5h-2.74l-.07,41.41h-2l.07-41.41h-3.48l.08-40.45H1701l.07-41.48h-3.71l-.07,41.41h-3.48l-.08,41.48h3.48l-.07,40.52h2.82l-.08,41.41h3.72l.07-41.41h1.53a7.125,7.125,0,0,0,1.39-.14l.07-40.37h1.45l-.07,39.91a8.311,8.311,0,0,0,3.71-3.37l.06-33.5A8.328,8.328,0,0,0,1708.72,1126.83Z" fill="#ffa412"/>
    <rect id="Rectangle_145" data-name="Rectangle 145" width="41.47" height="3.71" transform="translate(1581.085 1126.517) rotate(-89.88)" fill="#ffa412"/>
    <rect id="Rectangle_146" data-name="Rectangle 146" width="41.47" height="3.71" transform="translate(1542.42 1123.83) rotate(-90)" fill="#ffa412"/>
    <rect id="Rectangle_147" data-name="Rectangle 147" width="41.47" height="3.71" transform="translate(1514.84 1126.443) rotate(-89.86)" fill="#ffa412"/>
    <rect id="Rectangle_148" data-name="Rectangle 148" width="41.47" height="3.71" transform="translate(1713.437 1126.757) rotate(-89.87)" fill="#ffa412"/>
    <rect id="Rectangle_149" data-name="Rectangle 149" width="41.47" height="3.71" transform="translate(1717.14 1124.24) rotate(-90)" fill="#ffa412"/>
    <path id="Tracé_366" data-name="Tracé 366" d="M1727,1085.4l-.08,41.48h2.32a7.228,7.228,0,0,0,1.4-.14l.07-41.19a7.116,7.116,0,0,0-1.39-.14Z" fill="#ffa412"/>
    <path id="Tracé_367" data-name="Tracé 367" d="M1735.81,1122.91l.06-33.5a8.271,8.271,0,0,0-3.7-3.39l-.08,40.26a8.28,8.28,0,0,0,3.72-3.37Z" fill="#ffa412"/>
    <rect id="Rectangle_150" data-name="Rectangle 150" width="41.47" height="3.71" transform="translate(1657.298 1085.373) rotate(-89.86)" fill="#ffa412"/>
    <path id="Tracé_368" data-name="Tracé 368" d="M1645.92,1043.8l-3.72-.01-.07,41.48h.92l-.08,40.45h-.91l-.08,41.47,3.71.01.08-40.52h.91l.08-41.47h-.92Z" fill="#ffa412"/>
    <path id="Tracé_369" data-name="Tracé 369" d="M1619.03,1085.15l-.41-.01-.07,41.48h.41l-.08,40.52h3.72l.07-41.47h-.41l.08-40.45h.41l.07-41.47-3.71-.01Z" fill="#ffa412"/>
    <rect id="Rectangle_151" data-name="Rectangle 151" width="41.47" height="3.71" transform="translate(1590.86 1082.63) rotate(-90)" fill="#ffa412"/>
    <rect id="Rectangle_152" data-name="Rectangle 152" width="41.47" height="3.71" transform="translate(1553.52 1082.54) rotate(-90)" fill="#ffa412"/>
    <rect id="Rectangle_153" data-name="Rectangle 153" width="41.47" height="3.71" transform="translate(1522.109 1084.983) rotate(-89.85)" fill="#ffa412"/>
    <rect id="Rectangle_154" data-name="Rectangle 154" width="41.47" height="3.71" transform="translate(1490.786 1084.9) rotate(-89.88)" fill="#ffa412"/>
    <rect id="Rectangle_155" data-name="Rectangle 155" width="41.47" height="3.71" transform="translate(1689.577 1085.355) rotate(-89.85)" fill="#ffa412"/>
    <path id="Tracé_370" data-name="Tracé 370" d="M1708.23,1044.56l-.07,40.25a8.19,8.19,0,0,0,3.71-3.37l.06-33.5A8.2,8.2,0,0,0,1708.23,1044.56Z" fill="#ffa412"/>
    <path id="Tracé_371" data-name="Tracé 371" d="M1817.05,1155.13l23.06,4.09a9.778,9.778,0,0,1,4.72,2.22,8.19,8.19,0,0,1,2.68,4.24,6.373,6.373,0,0,1,.2,1.5,5.99,5.99,0,0,1-.1,1.4l-57.29,321.55c-.74,4.14-5.1,6.89-9.81,6.27l-.46-.07-23.06-4.1-.46-.09c-4.64-1-7.78-5.12-7-9.27l57.29-321.54a4.141,4.141,0,0,1,.14-.61,2.523,2.523,0,0,1,.07-.26.791.791,0,0,1,.1-.28,1.214,1.214,0,0,0,.07-.2,6.926,6.926,0,0,1,.72-1.34l.12-.19.14-.18.28-.35.19-.2a1.278,1.278,0,0,1,.16-.17l.33-.32.41-.34.34-.25h0l.24-.17a7.148,7.148,0,0,1,.76-.44l.24-.12.24-.11a4.377,4.377,0,0,1,.5-.21A9.83,9.83,0,0,1,1817.05,1155.13Z" fill="#ffb93e"/>
    <path id="Tracé_372" data-name="Tracé 372" d="M1820.87,1318.7l-30.7,172.3c-.66,3.7-5,6.08-9.66,5.44l-.46-.07-23.06-4.1-.46-.09c-4.64-1-7.85-4.73-7.19-8.43l26.92-151.11h1C1789.68,1332.17,1806.74,1329.35,1820.87,1318.7Z" fill="#ffa412"/>
    <rect id="Rectangle_156" data-name="Rectangle 156" width="3.71" height="41.47" transform="translate(1800.512 1196.29) rotate(-79.88)" fill="#ffa412"/>
    <rect id="Rectangle_157" data-name="Rectangle 157" width="3.71" height="41.47" transform="translate(1798.263 1208.647) rotate(-79.91)" fill="#ffa412"/>
    <rect id="Rectangle_158" data-name="Rectangle 158" width="3.71" height="41.47" transform="matrix(0.175, -0.984, 0.984, 0.175, 1795.582, 1223.417)" fill="#ffa412"/>
    <rect id="Rectangle_159" data-name="Rectangle 159" width="3.71" height="41.47" transform="matrix(0.175, -0.984, 0.984, 0.175, 1791.529, 1246.152)" fill="#ffa412"/>
    <rect id="Rectangle_160" data-name="Rectangle 160" width="3.71" height="41.47" transform="translate(1787.298 1270.252) rotate(-79.91)" fill="#ffa412"/>
    <rect id="Rectangle_161" data-name="Rectangle 161" width="3.71" height="41.47" transform="matrix(0.176, -0.984, 0.984, 0.176, 1780.909, 1307.297)" fill="#ffa412"/>
    <rect id="Rectangle_162" data-name="Rectangle 162" width="3.71" height="41.47" transform="translate(1774.585 1341.63) rotate(-79.91)" fill="#ffa412"/>
    <rect id="Rectangle_163" data-name="Rectangle 163" width="3.71" height="41.47" transform="translate(1769.195 1372.539) rotate(-79.88)" fill="#ffa412"/>
    <rect id="Rectangle_164" data-name="Rectangle 164" width="3.71" height="41.47" transform="matrix(0.175, -0.984, 0.984, 0.175, 1802.525, 1184.438)" fill="#ffa412"/>
    <rect id="Rectangle_165" data-name="Rectangle 165" width="3.71" height="41.47" transform="matrix(0.176, -0.984, 0.984, 0.176, 1804.152, 1176.887)" fill="#ffa412"/>
    <rect id="Rectangle_166" data-name="Rectangle 166" width="3.71" height="41.47" transform="matrix(0.175, -0.984, 0.984, 0.175, 1805.249, 1169.149)" fill="#ffa412"/>
    <path id="Tracé_373" data-name="Tracé 373" d="M1806.37,1163.61l40.83,7.26.41-2.29a6.6,6.6,0,0,0,.1-1.4l-40.55-7.2a6.74,6.74,0,0,0-.38,1.35Z" fill="#ffa412"/>
    <path id="Tracé_374" data-name="Tracé 374" d="M1807.87,1158.64l39.64,7a8.189,8.189,0,0,0-2.68-4.24l-33-5.86A8.261,8.261,0,0,0,1807.87,1158.64Z" fill="#ffa412"/>
    <path id="Tracé_375" data-name="Tracé 375" d="M2595.46,1496.36H2455.11c-7.52-6.38,5.21-20.87,18.5-21.85,5.78-.43,13.08.78,21.43,2.54,1.93-25.65,13-141,54.52-136.34,46.74,5.19,0,50.78-13.21,77.78-9.79,20-20.11,48.67-24.83,62.2,3.8.82,7.73,1.63,11.74,2.37,6.19-19,29.24-83,58.56-79.28,34.41,4.37,20.58,30-3.82,45.25-17.89,11.2-39.87,27.11-50.31,34.8a148.446,148.446,0,0,0,27.45,2.2C2579.18,1485.46,2590.92,1492.54,2595.46,1496.36Z" fill="#82b378"/>
    <path id="Tracé_376" data-name="Tracé 376" d="M765.43,1491.7c-5.57-8.76-22.35-31.49-44.69-28.48-24.35,3.28,26.88,19.33,42.57,28.54a26.064,26.064,0,0,1-8.68-1c-10.49-3.74-28.44,3.43-34.19,5.94h99.83a15.84,15.84,0,0,0-7.14-9.13c-1.63-1-4.93-1.14-9.18-.81,5.93-7,10-29.35-6.47-23.6-12.07,4.2-12,17.86-10.85,25.94-2.57.4-5.18.81-7.75,1.18-5-25.33-22.55-99.57-58.18-101.55-36.12-2,30.63,77,52.86,102.26C770.71,1491.32,768,1491.58,765.43,1491.7Z" fill="#82b378"/>
    <circle id="Ellipse_34" data-name="Ellipse 34" cx="143.76" cy="143.76" r="143.76" transform="translate(1450.358 759.508) rotate(-45)" fill="#e2810e"/>
    <circle id="Ellipse_35" data-name="Ellipse 35" cx="143.76" cy="143.76" r="143.76" transform="translate(1467.218 868.164) rotate(-75.28)" fill="#ffb93e"/>
    <path id="Tracé_377" data-name="Tracé 377" d="M1643.72,898a131,131,0,1,1,114.49-194.19c34.86,63.25,11.77,143.07-51.48,177.94A130.19,130.19,0,0,1,1643.72,898Zm-.4-254.18a17.555,17.555,0,1,1,0,.01Z" fill="#ffa412"/>
    <path id="Tracé_378" data-name="Tracé 378" d="M1677.64,791.64a21.41,21.41,0,0,0-3.94-6.51,15.67,15.67,0,0,0-5.86-4,29.87,29.87,0,0,0-8.38-1.87,79.086,79.086,0,0,0-11.42-.07,204,204,0,0,1-21,0,65.441,65.441,0,0,1-17.46-3.17,38.389,38.389,0,0,1-13.71-8,43.3,43.3,0,0,1-12.74-30.35,36.407,36.407,0,0,1,3.45-14.78,45.311,45.311,0,0,1,9.38-13.07,60.763,60.763,0,0,1,14.88-10.6l-8.17-20.14,16.21-6.58,8.29,20.42a54.471,54.471,0,0,1,17.68-1.8,41.1,41.1,0,0,1,28.71,14.16,54.859,54.859,0,0,1,9.59,15.9l-29.29,11.89q-4.59-11.3-11.87-14.86t-15.71-.15a23.561,23.561,0,0,0-7.33,4.46,16,16,0,0,0-4,5.69,14.82,14.82,0,0,0-1,6.5,21.89,21.89,0,0,0,1.62,6.9,20.149,20.149,0,0,0,3.58,5.9,14.779,14.779,0,0,0,5.62,3.8,29.438,29.438,0,0,0,8.42,1.84,99.109,99.109,0,0,0,12,.25q11.31-.31,20.94.27a65.908,65.908,0,0,1,17.44,3.27,37,37,0,0,1,23.34,22.6,39.48,39.48,0,0,1,3.15,16,36,36,0,0,1-3.53,14.71,44,44,0,0,1-9.58,12.88,65.48,65.48,0,0,1-15,10.49l7.6,18.73L1673.34,859l-7.57-18.63a73.263,73.263,0,0,1-17.75,2.93,46.6,46.6,0,0,1-17.24-2.49,41.461,41.461,0,0,1-15.17-9.46q-6.93-6.62-11.52-17.91l29.28-11.89a31,31,0,0,0,6.41,10.39,20,20,0,0,0,7.92,5.12,19.59,19.59,0,0,0,8.67.87,34.08,34.08,0,0,0,8.59-2.23,28,28,0,0,0,7.87-4.62,18.763,18.763,0,0,0,4.65-5.84,14.7,14.7,0,0,0,1.56-6.61,18,18,0,0,0-1.4-6.99Z" fill="#ffa412"/>
    <path id="Tracé_379" data-name="Tracé 379" d="M1785.74,682.14c-6-4.25-19.66-13.59-20.36-11.51-.51,1.5.21,4,1.85,6.69-8.25-3.08-16.63-5.1-36.44-1.3a14.88,14.88,0,0,0-9.74,6.42c-2,3.14-2.77,7.07,2.28,10.22,10.11,6.28,7.18,2.52,21.23,11.67s31.24,11.49,41.52,5.06l13.79-2.3,1.71-22.68S1793.72,683.47,1785.74,682.14Z" fill="#ffb27d"/>
    <path id="Tracé_380" data-name="Tracé 380" d="M2147.11,491.89s-32.51,38.57-73.91,22.43c0,0-8.91-21.54-9-37.42,0-1.95,0-3.85-.07-5.65-.22-17.88-.83-27.91-.83-27.91h0c1.89-.79,63.3-26,63.24-23.9C2125.5,467.79,2147.11,491.89,2147.11,491.89Z" fill="#ffb27d"/>
    <path id="Tracé_381" data-name="Tracé 381" d="M2120.39,431c-5.92,11-26.24,32.45-56.29,40.29-.22-17.88-.83-27.91-.83-27.91h0C2065,442.87,2122.15,427.72,2120.39,431Z" fill="#ed975d"/>
    <path id="Tracé_382" data-name="Tracé 382" d="M2050.41,441.48s69.06,16.23,78.51-26.93,24.72-70.13-19-82.32-55.89,2.4-62.55,16S2032.69,436.14,2050.41,441.48Z" fill="#ffb27d"/>
    <path id="Tracé_383" data-name="Tracé 383" d="M2126.56,426.31c.94.61,15.8,5.17,43.94-50.89,4.42-8.8,7.43-27.84-2.87-44.66s-46.81-30-77.15-35.8-37.61,11.31-44.76,28.47c-7.5,18-29.16,32.83-29.16,32.83,26.16,14.62,57.67-6.28,68.59-2.85s14.77,20.64,15.59,26.16,2.07,10.09,15.8,5.17,6.21,19.45,4,24.11C2120.55,408.85,2118.68,421.27,2126.56,426.31Z" fill="#a9453d"/>
    <path id="Tracé_384" data-name="Tracé 384" d="M2304.46,1502.67h41.81c8.77,0,18.51-8.77,20.94-24.84s20.46-24.85,24.36-38-16.08-31.67-16.08-31.67l-3.34-4.3-3.47-4.47-33.13,7.79s-.81,7.89-1.32,17.93a228.929,228.929,0,0,0-.14,23c1,17.54-4.91,36.43-20.49,39.84S2304.46,1502.67,2304.46,1502.67Z" fill="#2c3a64"/>
    <path id="Tracé_385" data-name="Tracé 385" d="M2013.35,1502.67h110.84a9.551,9.551,0,0,0,2.36-.68c7.4-3.7,5.08-32,4.19-40.79-.17-1.62-.29-2.57-.29-2.57s-39-31.18-44.34-7.31c-.17.75-.37,1.48-.57,2.2h0c-6.77,22.34-37,32.48-54.49,35.31C2017.7,1491,2014.24,1498.79,2013.35,1502.67Z" fill="#2c3a64"/>
    <path id="Tracé_386" data-name="Tracé 386" d="M2035.69,863.48s5.92,73.85,12.88,162.63c9.45,120.59,20.82,268.72,21.95,296.78,1.94,48.73,9.75,126.68,9.75,126.68s18.5,18.51,55.54,10.71c0,0,33-111.27,42.43-229q.21-2.9.44-5.82c8.77-119.84,22.4-372.21,22.4-372.21Z" fill="#2b478b"/>
    <path id="Tracé_387" data-name="Tracé 387" d="M2035.69,863.48s5.92,73.85,12.88,162.63l129.67,205.17q.21-2.9.44-5.82c8.77-119.84,22.4-372.21,22.4-372.21Z" fill="#233862"/>
    <path id="Tracé_388" data-name="Tracé 388" d="M2062.72,872.25s106.7,267.46,176.85,393.16,92.08,160.77,92.08,160.77,40.19-16.08,43.85-27c0,0-26.83-242.66-73.81-301.81-26.55-33.43-57.73-133.73-59.19-168.81S2233,824,2233,824Z" fill="#2b478b"/>
    <path id="Tracé_389" data-name="Tracé 389" d="M2306,823.65l1.13,17.2s-11.34,30.56,20.44,46.24c0,0,13.61,5.49,14.16-5.11s-1.19-6.6-.08-21.52-4.76-29-14.63-33.76l-8.09-9.34Z" fill="#ffb27d"/>
    <path id="Tracé_390" data-name="Tracé 390" d="M2318.46,836.18c-11.81,3.79-13.7,2.93-13.7,2.93s-57.48-104.65-63.3-114.23-122-117.35-122-117.35l29.86-111.37s132.18,171.17,146.46,195.73c23.59,40.59,37.41,134.85,37.41,134.85a34.6,34.6,0,0,1-14.73,9.44Z" fill="#1e3d70"/>
    <path id="Tracé_391" data-name="Tracé 391" d="M2013.17,651.26c.41,22.87,1.74,48.58,3.53,74.69l.33,4.65c1.15,16.18,2.39,32.39,3.82,48.2.57,6.34,1.18,12.61,1.81,18.77l.1.82a64.545,64.545,0,0,0,.59,7.09c5.82,59.22,11.93,106,13.07,106.73a6.55,6.55,0,0,0,4.54,1.16c15.54-2,61.87,1.57,99.81-6.68,32-6.75,59.58-19.56,88.79-36.82,3.88-2.29,12.72-8.36,12-12.9-.71-5-2-12.19-3.67-21.25-5.76-31.5-15.69-85.69-19.08-149.11q-1-17.72-2.86-35c-3.26-29.88-8.48-58.26-15.48-83.47-13-46.84-32.12-82.71-56.1-96.74-3.13-1.76-20,9-35.48,18.91-14.3,9.16-29.35,11.7-44,10.42L2052,515c-15.61,18.14-32.22,42.29-36.76,76.62-.34,2.54-.63,5.23-.88,8.1C2013.12,613.73,2012.81,631.43,2013.17,651.26Z" fill="#2a4e96"/>
    <path id="Tracé_392" data-name="Tracé 392" d="M2013.17,651.26c.41,22.87,1.74,48.58,3.53,74.69l.33,4.65c88.72-55.53,102.39-157.15,102.39-157.15-43.65,1.92-78.32,11.95-105.05,26.3C2013.12,613.73,2012.81,631.43,2013.17,651.26Z" fill="#1e3d70"/>
    <path id="Tracé_393" data-name="Tracé 393" d="M1789,695c-.91-13.16,5.9-15.35,5.9-15.35s133.76-24.24,145.13-27.82,108.61-104.72,108.61-104.72,37.27-42,67.78-32.75c26.52,8.07,36.89,28.75,40.41,48.46a58,58,0,0,1-27,59.58c-45.65,28-137,83.17-158.56,89.48-47.9,14-176.6,1.12-176.6,1.12A41.539,41.539,0,0,1,1789,695Z" fill="#2a4e96"/>
    <path id="Tracé_394" data-name="Tracé 394" d="M1946.4,951.92v497.2a52.9,52.9,0,0,1-52.73,52.74H1382.6a53.22,53.22,0,0,1-12.89-1.58,54.329,54.329,0,0,1-35-27.56c-.16-.3-.31-.6-.47-.92a53.061,53.061,0,0,1-5.46-20.14c-.1-1.22-.14-2.46-.14-3.71V955.11a81.6,81.6,0,0,1,37.92-68.69h.06A70.69,70.69,0,0,0,1396,805.67h483.14A70.64,70.64,0,0,0,1906,884.78h0c1.22.84,2.47,1.66,3.73,2.42h0A75.82,75.82,0,0,1,1946.4,951.92Z" fill="#ed9f4a" opacity="0.2"/>
    <path id="Tracé_395" data-name="Tracé 395" d="M1946.4,951.92v497.2a52.91,52.91,0,0,1-49,52.6c-1.22.09-2.47.14-3.72.14h-225a54.07,54.07,0,0,1-53.9-53.91V955.11a81.58,81.58,0,0,1,37.92-68.69,70.63,70.63,0,0,0,29.3-80.75h197.1a70.65,70.65,0,0,0,30.66,81.55,75.82,75.82,0,0,1,36.64,64.7Z" fill="#ed9f4a" opacity="0.2"/>
    <path id="Tracé_396" data-name="Tracé 396" d="M1906,884.78c-15.78-9.45-84.15-42.95-258-41.53-199.13,1.63-278.9,41.88-281.35,43.13A70.69,70.69,0,0,0,1396,805.67h483.14A70.64,70.64,0,0,0,1906,884.78Z" fill="#ed9f4a" opacity="0.6"/>
    <path id="Tracé_397" data-name="Tracé 397" d="M1890.06,802.19v22.55a4,4,0,0,1-4,4h-497a4,4,0,0,1-4-4V802.19a4.05,4.05,0,0,1,4-4h497A4,4,0,0,1,1890.06,802.19Z" fill="#2b478b"/>
    <path id="Tracé_398" data-name="Tracé 398" d="M1890.06,802.19v22.55a4,4,0,0,1-4,4H1697.92a4.05,4.05,0,0,1-4-4V802.19a4.06,4.06,0,0,1,4-4H1886a4,4,0,0,1,4.06,4Z" fill="#233862"/>
    <path id="Tracé_399" data-name="Tracé 399" d="M1558.5,913.85s-12.81,18-24.55,18.28-29.61-8.35-29.61-8.35-10.78-24-3.47-33.44a15.72,15.72,0,0,1,15,2.47,22.5,22.5,0,0,1,4,3.8,12.57,12.57,0,0,0,6.17,4.18c8.38,2.55,18.32-3.45,22,2.34a39.272,39.272,0,0,0,6.48,7.67A29.408,29.408,0,0,0,1558.5,913.85Z" fill="#f9ddbf"/>
    <path id="Tracé_400" data-name="Tracé 400" d="M1391.51,1043.92s45.28-109.7,126.77-111.79c0,0,75.22,8.36,79.4,111.79Z" fill="#f9ddbf"/>
    <path id="Tracé_401" data-name="Tracé 401" d="M1496,935.48s32.67,7.27,42.74,3c0,0,1.53-13.66-12.23-11.74-9.41,1.31-15.55-3.22-19.15-5C1502.2,919.09,1494.59,929.77,1496,935.48Z" fill="#f1a34f"/>
    <path id="Tracé_402" data-name="Tracé 402" d="M1524.38,914.9c-2.09,1.56-8.51-22.09-8.51-22.09a22.5,22.5,0,0,1,4,3.8,12.57,12.57,0,0,0,6.17,4.18C1526,901.48,1526.4,913.37,1524.38,914.9Z" fill="#e5c1a1"/>
    <path id="Tracé_403" data-name="Tracé 403" d="M1554.53,910.8c-.46.27-15.57,9.32-17.62,9.32s11.14-17,11.14-17A39.269,39.269,0,0,0,1554.53,910.8Z" fill="#e5c1a1"/>
    <path id="Tracé_404" data-name="Tracé 404" d="M1435.74,1013.28c-.84-.72,32-48.41,41.09-48.76s29.4,10.45,44.13,11.84,29-2.78,31.79,5.92,10.45,39.58,5.75,44.51S1453.82,1028.72,1435.74,1013.28Z" fill="#e5c1a1"/>
    <path id="Tracé_405" data-name="Tracé 405" d="M1399.13,1464.29c-2.62,1.38-5.25,2.68-7.91,3.94-2.53,1.46-5.1,2.89-7.72,4.26a210.356,210.356,0,0,1-37.19,15.23,54.416,54.416,0,0,1-11.55-15c-2,1.07-4,2.11-6.07,3.12V1100.7a213.812,213.812,0,0,1,27.56,5.55c50.68,13.69,95.81,45.94,123.26,93.37C1534,1293.84,1498.05,1412.34,1399.13,1464.29Z" fill="#e2810e" opacity="0.5"/>
    <path id="Tracé_406" data-name="Tracé 406" d="M1433.4,1184.84c-54.52-98.92-178.92-134.9-277.84-80.38s-134.9,178.93-80.37,277.84,178.92,134.91,277.84,80.38S1487.93,1283.76,1433.4,1184.84Z" fill="#e2810e"/>
    <path id="Tracé_407" data-name="Tracé 407" d="M1345.09,1466.83q-3.78,2.31-7.69,4.46c-.88.49-1.76,1-2.64,1.43-2,1.07-4,2.11-6.07,3.12-97.39,47.83-216.18,11.12-269.13-84.92-50.5-91.61-23.36-205.08,59.51-264.66a206.972,206.972,0,0,1,20.87-13.19c2.62-1.44,5.26-2.83,7.92-4.14s5.18-2.51,7.79-3.67a204.347,204.347,0,0,1,262.13,88.19C1470.87,1289.77,1438.16,1410.22,1345.09,1466.83Z" fill="#ffb93e"/>
    <path id="Tracé_408" data-name="Tracé 408" d="M1240.1,1480.72a186.59,186.59,0,1,1,89.69-23.23,186.59,186.59,0,0,1-89.69,23.23Zm-153.71-101.83a175.22,175.22,0,1,0-14.87-133.28,175.22,175.22,0,0,0,14.87,133.28Z" fill="#ffa412"/>
    <path id="Tracé_409" data-name="Tracé 409" d="M1330,1312.1c-.4-1-.83-2-1.27-2.94a53.619,53.619,0,0,0-12.4-17.72,55.27,55.27,0,0,0-19.53-11.49,93.476,93.476,0,0,0-24.81-4.66q-13.7-.84-29.8-.39a143.482,143.482,0,0,1-17-.34,42.575,42.575,0,0,1-12-2.62,21.1,21.1,0,0,1-8-5.42,28.557,28.557,0,0,1-5.08-8.38,31.134,31.134,0,0,1-2.31-9.83,21.118,21.118,0,0,1,1.46-9.25,22.492,22.492,0,0,1,5.7-8.07,33.11,33.11,0,0,1,10.43-6.35q12-4.87,22.34.21t16.89,21.14l41.67-16.92a77.943,77.943,0,0,0-13.64-22.62,58.47,58.47,0,0,0-40.85-20.15,77.281,77.281,0,0,0-25.14,2.57l-11.8-29.06-23.07,9.37,11.64,28.65a86.49,86.49,0,0,0-21.18,15.07,64.721,64.721,0,0,0-13.34,18.61,51.748,51.748,0,0,0-4.91,21,56,56,0,0,0,4.4,22.39q5.33,13.13,13.73,20.79a54.57,54.57,0,0,0,19.5,11.42,92.509,92.509,0,0,0,24.83,4.5,291.757,291.757,0,0,0,29.87,0,109.391,109.391,0,0,1,16.25.11,42.5,42.5,0,0,1,11.91,2.64,22.552,22.552,0,0,1,8.34,5.66,30.677,30.677,0,0,1,5.61,9.27,25.509,25.509,0,0,1,2,9.87,21.059,21.059,0,0,1-2.219,9.409,26.651,26.651,0,0,1-6.621,8.311,39.86,39.86,0,0,1-11.19,6.56,47.917,47.917,0,0,1-12.23,3.18,28.061,28.061,0,0,1-12.34-1.23,28.808,28.808,0,0,1-11.26-7.29q-5.25-5.27-9.11-14.78l-41.66,16.92q6.51,16.05,16.39,25.47a59,59,0,0,0,21.58,13.46,66,66,0,0,0,24.53,3.54,104.067,104.067,0,0,0,25.26-4.18l10.76,26.52,22.92-9.31-10.82-26.64a92.392,92.392,0,0,0,21.39-14.93,62.87,62.87,0,0,0,12.91-16.86c.25-.48.5-1,.73-1.47a51.348,51.348,0,0,0,5-20.91,56.33,56.33,0,0,0-4.46-22.83Z" fill="#ffa412"/>
    <path id="Tracé_410" data-name="Tracé 410" d="M1086.71,572.17c.62-2.5-54.47,24.91-57.27,28-25.84,28.67-18.47,66.07-3.68,66.43,9.48.23,7.64,16,7.64,16L1139,637.91S1126.32,563.73,1086.71,572.17Z" fill="#2c3a64"/>
    <path id="Tracé_411" data-name="Tracé 411" d="M1099.72,578s3.77-41.15-42.21-41.15c0,0,13.94,3.78,21.14,11.33,0,0-29.32-17.21-61.24,9.24s-12.08,92.81-21.79,105.41-47.5,15.12-42.88,55.85,120,91.75,112.54,125.46c0,0,45.2-66.44,12.88-96.76,0,0,15.75,14.83,17.36,32.47,0,0,4.27-34.43-17.64-45.45-19.39-9.74-35.27-45.39-33.59-51.76S1099.72,578,1099.72,578Z" fill="#2c3a64"/>
    <path id="Tracé_412" data-name="Tracé 412" d="M1058,771.57c-7.09-34.14-51.37-44.73-72.31-16.85a36.93,36.93,0,0,0-7.28,17.94c-4.79,38.76,57.18,196.62,66.06,210.91,16.15,26,111.29,115.23,111.29,115.23l17.53-10.63s-67.48-114.24-77.93-124.93C1083.25,950.88,1071.43,836.4,1058,771.57Z" fill="#ed985f"/>
    <path id="Tracé_413" data-name="Tracé 413" d="M1149.06,1088.22s25.59-16.8,35.28-15.72,37.72,9.15,38.07,13.27-31.25,6.7-33.37,9-23.56,16.57-31.33,12.08S1149.06,1088.22,1149.06,1088.22Z" fill="#ed985f"/>
    <path id="Tracé_414" data-name="Tracé 414" d="M970.56,1467.82l-22.86-3.36s-76.87-61.09-88.31-175.07a204.014,204.014,0,0,1-.55-35.24,6.161,6.161,0,0,0-.8-3.89h0c-2.46-3.77-8.59-13.22-16.88-26.66-8.17-13.24-22.15-38.27-37.54-66.35-27.71-50.58-60-111.07-71.05-130.34-35.27-61.4-18.27-102.69-18.27-102.69s98.38-9.72,125.34-33.31l9.71,15s21.32,94.37,20.31,94.81q1.58,4.8,3.2,9.8c16.82,51.92,36.17,116.82,46.72,169.67,5.93,29.74,9.07,55.65,7.39,73.3-.58,6.06.12,15.37,1.74,26.86C938.21,1348,970.56,1467.82,970.56,1467.82Z" fill="#2b478b"/>
    <path id="Tracé_415" data-name="Tracé 415" d="M1018.52,1496.74H923.14s-2.29-14.54,2.69-25.57c4.78-10.58,11.58-10.91.87-27.5,6.06,6.24,25.55,8.82,39.34,7,1.68,2.74,10.89,21.12,16.53,25.17C988.8,1480.28,1016.6,1478.69,1018.52,1496.74Z" fill="#233862"/>
    <path id="Tracé_416" data-name="Tracé 416" d="M872.84,1010.46c-8.33,46-28,122.42-69.24,146.76-27.71-50.58-60-111.07-71.05-130.34-35.27-61.4-18.27-102.69-18.27-102.69s98.38-9.72,125.34-33.31l9.71,15s21.32,94.37,20.31,94.81Q871.22,1005.46,872.84,1010.46Z" fill="#233862"/>
    <path id="Tracé_417" data-name="Tracé 417" d="M1047.76,750.39s13.49,14,19.65,30.82c0,0-21.51,61.78-71.79,69.52C995.62,850.73,1035.4,750.37,1047.76,750.39Z" fill="#ed7d2b"/>
    <path id="Tracé_418" data-name="Tracé 418" d="M806,931.29l.32-17.84C770.73,917.93,683.73,871,683.73,871s-37.19,24.73-42.27,95.35c-2.49,34.48-18.21,180.26-20,223.79-.63,15.78-.84,27-.91,31.54h0a6.17,6.17,0,0,1-1.51,3.67,204.13,204.13,0,0,0-19.26,29.52c-54.23,100.9-25.87,238-25.87,238l12.6-3.2s45.85-142.14,75.82-203.62c5.09-10.43,9.71-18.54,13.58-23.23,11.27-13.69,23.15-36.93,34.86-64.91,22.14-52.88,43.63-122.67,59-176.7C770.87,1021.45,806,931.29,806,931.29Z" fill="#2b478b"/>
    <path id="Tracé_419" data-name="Tracé 419" d="M1013.93,812.23c-58.1-13.33-21-95-17.61-93.54,8-1.64,25.73-15.78,41.55-43.38l2.13,1.85,35.69,31.29s-8.25,12.17-15.19,24.09c-5.42,9.33-10,18.52-9.3,21.68C1054.07,756.48,1029.43,815.79,1013.93,812.23Z" fill="#ffb27d"/>
    <path id="Tracé_420" data-name="Tracé 420" d="M1075.69,708.46s-8.26,12.15-15.19,24.08c-22.19-13.67-22.21-41.14-20.5-55.37Z" fill="#ed985f"/>
    <path id="Tracé_421" data-name="Tracé 421" d="M1076.68,724.13s-53.87-30-34.69-63.24,25.15-59.53,60.36-41.8,34.51,34.25,30.8,46.91S1091.18,731.07,1076.68,724.13Z" fill="#ffb27d"/>
    <path id="Tracé_422" data-name="Tracé 422" d="M1142.25,646.6c-2.46-14.77-10-16.18-15.2-15.19-19.89-32.9-52.39-20.06-52.39-20.06-17.36,21.78-42.46,25.5-42.46,25.5s6.25,11.63,32,18.83c7.86,2.2,16.79.87,25.4-2a143.821,143.821,0,0,1-36.55,13.78c33.94,3.11,66.23-27.93,69.58-31.24,1.57,4.8,4.32,14.87,2.67,22.23-2.23,10-11.11,28.12-5.69,30.47C1119.62,688.89,1146,668.75,1142.25,646.6Z" fill="#2c3a64"/>
    <path id="Tracé_423" data-name="Tracé 423" d="M649.81,1496.74H554.43s-2.29-14.54,2.7-25.57c4.77-10.58,12.25-15.39,10.46-28.19,6.06,6.24,15.93,13.23,29.72,11.37,1.69,2.74,10.91,17.4,16.55,21.45C620.09,1480.28,647.89,1478.69,649.81,1496.74Z" fill="#233862"/>
    <path id="Tracé_424" data-name="Tracé 424" d="M1020.77,877c-12.27,4.28-29.5,6.62-47.12,8.54-25.08,2.74-51,4.61-64.53,10-5,2-8.26,4.41-9.29,7.52C894,920.72,868,948,868,948c-166-7.56-184.27-77-184.27-77C795.46,741.05,984.66,703.44,984.66,703.44s13.51-5.73,47.54,21.31c22.71,18.06,19.72,25,19.72,25S1056.89,864.36,1020.77,877Z" fill="#f99746"/>
    <path id="Tracé_425" data-name="Tracé 425" d="M973.65,885.5c-25.08,2.74-51,4.61-64.53,10-5.55-82.83,33.54-145.13,33.54-145.13S968.16,854.16,973.65,885.5Z" fill="#ed7d2b"/>
    <path id="Tracé_426" data-name="Tracé 426" d="M999.46,734.36s-62.85,6.21-67.89,47,60.26,207.2,69.61,222.26c17,27.42,117.28,121.42,117.28,121.42l18.48-11.2s-71.11-120.38-82.12-131.65C1037.53,964.56,1020.75,748.51,999.46,734.36Z" fill="#ffb27d"/>
    <path id="Tracé_427" data-name="Tracé 427" d="M933.38,806c.17.92,58,18.89,95.24,0,0,0,8-85.89-36.48-81.23s-70.76,18.66-71.88,39.93S933.38,806,933.38,806Z" fill="#f99746"/>
    <path id="Tracé_428" data-name="Tracé 428" d="M1112.75,1113.15s22.55-20.7,32.28-21.2,38.71,3,39.71,7-29.75,11.64-31.48,14.2-20.59,20.15-29,17S1112.75,1113.15,1112.75,1113.15Z" fill="#ffb27d"/>
    <rect id="Rectangle_167" data-name="Rectangle 167" width="2589.27" height="6.87" rx="2.93" transform="translate(273.79 1496.36)" fill="#2e3552"/>
  </g>
</svg>
